<svg width="61" height="62" viewBox="0 0 61 62" fill="none" xmlns="http://www.w3.org/2000/svg">
<path d="M50.78 23.9873L51.2793 23.961C51.265 23.6904 51.0378 23.4804 50.7668 23.4875C50.4959 23.4946 50.28 23.7163 50.28 23.9873H50.78ZM2.92664 36.0242L2.50973 36.3003C2.51745 36.3119 2.52565 36.3232 2.53432 36.3342L2.92664 36.0242ZM12.015 18.7454L11.8787 19.2264L12.015 18.7454ZM18.2046 28.4403L18.7023 28.4882L18.7023 28.4882L18.2046 28.4403ZM36.7952 41.2489C37.0657 41.1935 37.2401 40.9292 37.1846 40.6587C37.1291 40.3882 36.8649 40.2138 36.5943 40.2693L36.7952 41.2489ZM52.2983 28.193C52.1186 28.4026 52.1428 28.7183 52.3524 28.898C52.562 29.0778 52.8777 29.0536 53.0574 28.844L52.2983 28.193ZM55.185 39.4643L54.9804 39.0081L54.9804 39.0081L55.185 39.4643ZM17.3546 49.637C17.0983 49.5342 16.8072 49.6586 16.7044 49.9149C16.6016 50.1712 16.726 50.4623 16.9823 50.5651L17.3546 49.637ZM27.2559 34.9348L27.0726 35.3999L27.0726 35.3999L27.2559 34.9348ZM33.4051 38.5173L33.5547 38.9944L33.4051 38.5173ZM33.3043 33.5509L33.3018 34.0509L33.3018 34.0509L33.3043 33.5509ZM44.4992 1.99105L44.9919 1.90649C44.9499 1.66166 44.7346 1.4848 44.4862 1.49122C44.2379 1.49764 44.0319 1.6854 44.0026 1.93207L44.4992 1.99105ZM40.404 36.4651L39.9075 36.4061C39.8843 36.6015 39.9778 36.7924 40.1465 36.8937C40.3152 36.9951 40.5276 36.988 40.6892 36.8758L40.404 36.4651ZM40.4678 36.4208L40.7531 36.8314L40.7531 36.8314L40.4678 36.4208ZM47.6691 28.336L48.1311 28.527L47.6691 28.336ZM53.1939 3.81378L53.6856 3.90453C53.6945 3.85604 53.6962 3.80648 53.6907 3.75748L53.1939 3.81378ZM47.5132 5.63558L47.6067 5.1444L47.5132 5.63558ZM47.623 3.90301L47.4618 4.37632L47.4618 4.37632L47.623 3.90301ZM48.9862 1.03942L48.9285 1.53608L48.9862 1.03942ZM48.8143 2.04475C48.5388 2.02645 48.3006 2.23498 48.2823 2.51052C48.264 2.78605 48.4725 3.02425 48.748 3.04255L48.8143 2.04475ZM56.5872 55.8959L56.0929 55.8205L56.5872 55.8959ZM29.3535 60.0917L29.4286 59.5973L29.3535 60.0917ZM4.60352 48.0013L4.10924 47.926L4.60352 48.0013ZM48.2514 47.7025C47.9974 47.5942 47.7036 47.7123 47.5953 47.9663C47.4871 48.2204 47.6052 48.5141 47.8592 48.6224L48.2514 47.7025ZM8.80275 45.8282C9.07889 45.8282 9.30275 45.6044 9.30275 45.3282C9.30275 45.0521 9.07889 44.8282 8.80275 44.8282L8.80275 45.8282ZM42.1752 21.5087C42.4514 21.5109 42.677 21.2888 42.6792 21.0126C42.6813 20.7365 42.4592 20.5109 42.1831 20.5087L42.1752 21.5087ZM39.1692 20.6006C38.8937 20.6186 38.6849 20.8566 38.703 21.1322C38.7211 21.4077 38.9591 21.6165 39.2346 21.5984L39.1692 20.6006ZM50.3179 24.0469C50.396 24.3118 50.674 24.4632 50.9388 24.3852C51.2037 24.3071 51.3552 24.0291 51.2771 23.7642L50.3179 24.0469ZM49.7214 21.9549C49.4841 21.8136 49.1772 21.8914 49.036 22.1287C48.8947 22.3659 48.9725 22.6728 49.2098 22.8141L49.7214 21.9549ZM29.9848 10.2605C30.1569 10.0446 30.1215 9.73003 29.9055 9.55789C29.6896 9.38575 29.375 9.42124 29.2029 9.63716L29.9848 10.2605ZM27.2576 19.6822C27.3188 19.9515 27.5867 20.1202 27.8559 20.0591C28.1252 19.9979 28.2939 19.73 28.2328 19.4607L27.2576 19.6822ZM18.393 17.3192C18.1323 17.4103 17.9948 17.6955 18.0859 17.9562C18.177 18.2168 18.4622 18.3543 18.7228 18.2633L18.393 17.3192ZM27.4179 19.9445C27.6394 20.1093 27.9526 20.0634 28.1175 19.8419C28.2824 19.6204 28.2365 19.3072 28.015 19.1423L27.4179 19.9445ZM22.7921 11.0134C22.5477 10.885 22.2454 10.979 22.1169 11.2234C21.9884 11.4678 22.0824 11.7701 22.3269 11.8986L22.7921 11.0134ZM27.2338 19.5731C27.2747 19.8462 27.5291 20.0345 27.8023 19.9937C28.0754 19.9529 28.2637 19.6984 28.2228 19.4253L27.2338 19.5731ZM23.0423 11.4279C23.0207 11.1526 22.7799 10.947 22.5046 10.9687C22.2293 10.9904 22.0237 11.2312 22.0454 11.5065L23.0423 11.4279ZM27.4474 19.9341C27.6814 20.0807 27.99 20.0097 28.1365 19.7757C28.2831 19.5416 28.2121 19.2331 27.9781 19.0866L27.4474 19.9341ZM25.4288 29.2824C25.5088 29.5468 25.7879 29.6962 26.0522 29.6162C26.3165 29.5363 26.4659 29.2572 26.386 28.9929L25.4288 29.2824ZM28.168 19.7985C28.3245 19.571 28.267 19.2597 28.0395 19.1031C27.812 18.9466 27.5007 19.0041 27.3441 19.2316L28.168 19.7985ZM18.888 17.4007C18.6795 17.2197 18.3637 17.2421 18.1827 17.4507C18.0018 17.6593 18.0242 17.9751 18.2328 18.1561L18.888 17.4007ZM27.8482 20.0135C28.1149 19.9421 28.2733 19.668 28.2019 19.4012C28.1305 19.1345 27.8564 18.9761 27.5896 19.0475L27.8482 20.0135ZM19.8776 24.644C19.603 24.6732 19.404 24.9194 19.4332 25.194C19.4623 25.4686 19.7086 25.6676 19.9832 25.6384L19.8776 24.644ZM28.1455 19.8278C28.2846 19.5892 28.204 19.2831 27.9654 19.144C27.7268 19.0049 27.4207 19.0856 27.2816 19.3241L28.1455 19.8278ZM19.4716 24.904C19.3494 25.1516 19.4512 25.4514 19.6989 25.5735C19.9465 25.6957 20.2463 25.5939 20.3685 25.3462L19.4716 24.904ZM27.7933 20.0517C28.0649 20.0019 28.2448 19.7414 28.195 19.4698C28.1453 19.1981 27.8848 19.0183 27.6132 19.068L27.7933 20.0517ZM30.0602 9.80172C29.9802 9.53741 29.7011 9.38797 29.4368 9.46793C29.1725 9.54789 29.0231 9.82698 29.103 10.0913L30.0602 9.80172ZM27.321 19.2857C27.1645 19.5132 27.222 19.8245 27.4495 19.981C27.677 20.1376 27.9883 20.08 28.1449 19.8526L27.321 19.2857ZM36.6009 21.6835C36.8095 21.8644 37.1253 21.842 37.3063 21.6334C37.4872 21.4249 37.4648 21.1091 37.2562 20.9281L36.6009 21.6835ZM27.6409 19.0707C27.3741 19.1421 27.2157 19.4162 27.2871 19.6829C27.3585 19.9497 27.6326 20.108 27.8994 20.0367L27.6409 19.0707ZM35.6114 14.4401C35.886 14.411 36.085 14.1648 36.0558 13.8902C36.0267 13.6156 35.7804 13.4166 35.5058 13.4457L35.6114 14.4401ZM27.3435 19.2564C27.2044 19.4949 27.285 19.8011 27.5236 19.9402C27.7622 20.0792 28.0683 19.9986 28.2074 19.76L27.3435 19.2564ZM36.0174 14.1802C36.1396 13.9325 36.0378 13.6328 35.7901 13.5106C35.5425 13.3885 35.2427 13.4903 35.1205 13.7379L36.0174 14.1802ZM27.6957 19.0325C27.4241 19.0823 27.2442 19.3428 27.294 19.6144C27.3437 19.886 27.6042 20.0659 27.8758 20.0162L27.6957 19.0325ZM25.5042 28.8236C25.3321 29.0396 25.3675 29.3541 25.5835 29.5263C25.7994 29.6984 26.114 29.6629 26.2861 29.447L25.5042 28.8236ZM28.2314 19.402C28.1702 19.1327 27.9023 18.964 27.6331 19.0251C27.3638 19.0863 27.1951 19.3541 27.2562 19.6234L28.2314 19.402ZM37.096 21.7649C37.3567 21.6739 37.4942 21.3887 37.4031 21.128C37.312 20.8673 37.0268 20.7298 36.7662 20.8209L37.096 21.7649ZM28.0711 19.1397C27.8496 18.9748 27.5364 19.0207 27.3715 19.2422C27.2066 19.4638 27.2525 19.777 27.474 19.9419L28.0711 19.1397ZM32.6969 28.0707C32.9413 28.1992 33.2436 28.1052 33.3721 27.8608C33.5006 27.6163 33.4066 27.314 33.1621 27.1855L32.6969 28.0707ZM28.2552 19.511C28.2144 19.2379 27.9599 19.0496 27.6867 19.0905C27.4136 19.1313 27.2253 19.3858 27.2662 19.6589L28.2552 19.511ZM32.4467 27.6563C32.4683 27.9315 32.7091 28.1371 32.9844 28.1154C33.2597 28.0937 33.4653 27.853 33.4436 27.5777L32.4467 27.6563ZM28.0416 19.15C27.8076 19.0035 27.499 19.0744 27.3525 19.3085C27.2059 19.5425 27.2769 19.8511 27.5109 19.9976L28.0416 19.15ZM50.78 23.9873H50.28C50.28 28.3622 48.1294 32.2127 44.6557 35.3123C41.1789 38.4148 36.399 40.7408 31.2267 42.0402C20.8416 44.6491 9.13268 43.0722 3.31895 35.7142L2.92664 36.0242L2.53432 36.3342C8.7079 44.1476 20.9257 45.6591 31.4704 43.0101C36.763 41.6805 41.6989 39.291 45.3215 36.0585C48.9473 32.8231 51.28 28.7192 51.28 23.9873H50.78ZM2.92664 36.0242L3.34354 35.7482C0.573714 31.5648 1.2202 27.0118 3.33821 23.6958C5.48357 20.337 9.00934 18.4134 11.8787 19.2264L12.015 18.7454L12.1513 18.2643C8.6745 17.2791 4.75718 19.6165 2.49545 23.1575C0.20636 26.7414 -0.518237 31.7269 2.50973 36.3003L2.92664 36.0242ZM12.015 18.7454L11.8787 19.2264C14.2481 19.8978 15.7831 21.2228 16.6894 22.842C17.6019 24.4723 17.8954 26.4356 17.7069 28.3923L18.2046 28.4403L18.7023 28.4882C18.9055 26.3793 18.5962 24.2013 17.562 22.3536C16.5216 20.4948 14.766 19.0052 12.1513 18.2643L12.015 18.7454ZM18.2046 28.4403L17.7069 28.3923C17.2937 32.6797 18.9906 36.5482 22.3617 39.0137C25.7256 41.4739 30.6997 42.4989 36.7952 41.2489L36.6948 40.7591L36.5943 40.2693C30.7026 41.4775 26.0348 40.4611 22.952 38.2065C19.8763 35.9571 18.3217 32.4372 18.7023 28.4882L18.2046 28.4403ZM52.6779 28.5185L53.0574 28.844C54.7542 26.8653 56.1302 26.4747 57.0769 26.741C58.0535 27.0157 58.8713 28.0648 59.2639 29.6274C60.046 32.74 58.9663 37.22 54.9804 39.0081L55.185 39.4643L55.3897 39.9205C59.9437 37.8776 61.097 32.8191 60.2337 29.3837C59.8037 27.6723 58.8293 26.1951 57.3477 25.7783C55.8362 25.3532 54.088 26.106 52.2983 28.193L52.6779 28.5185ZM50.78 23.9873L50.2807 24.0137C50.7446 32.8102 49.2507 39.3696 46.4321 43.9448L46.8578 44.207L47.2835 44.4693C50.2428 39.6657 51.7499 32.884 51.2793 23.961L50.78 23.9873ZM46.8578 44.207L46.4321 43.9448C46.2899 44.1756 46.1443 44.4014 45.9954 44.6222L46.41 44.9017L46.8246 45.1813C46.9812 44.949 47.1342 44.7117 47.2835 44.4693L46.8578 44.207ZM46.41 44.9017L45.9954 44.6222C40.2317 53.17 29.3235 54.4381 17.3546 49.637L17.1685 50.1011L16.9823 50.5651C29.1454 55.4441 40.6744 54.3022 46.8246 45.1813L46.41 44.9017ZM55.185 39.4643L54.9804 39.0081C54.1702 39.3716 53.3628 39.6944 52.5663 40.0175C51.7739 40.3389 50.992 40.6606 50.2537 41.0154C48.7775 41.7248 47.4317 42.586 46.4554 43.9103L46.8578 44.207L47.2603 44.5037C48.096 43.3701 49.273 42.5961 50.6868 41.9167C51.3936 41.5771 52.1487 41.266 52.9421 40.9442C53.7315 40.624 54.5589 40.2932 55.3897 39.9205L55.185 39.4643ZM46.8578 44.207L46.4554 43.9103C46.2823 44.145 46.1214 44.3936 45.9737 44.6575L46.41 44.9017L46.8463 45.1459C46.9735 44.9187 47.1117 44.7052 47.2603 44.5037L46.8578 44.207ZM27.2559 34.9348L27.4392 34.4696C26.9792 34.2883 26.5463 34.1935 26.1886 34.2735C25.9941 34.3171 25.8064 34.4166 25.6716 34.5929C25.5394 34.7658 25.4945 34.9648 25.493 35.1437C25.4903 35.4819 25.6397 35.8402 25.8334 36.161C26.0357 36.4961 26.3228 36.8503 26.6742 37.1929C28.0635 38.5477 30.6587 39.9023 33.5547 38.9944L33.4051 38.5173L33.2555 38.0402C30.8291 38.8009 28.6012 37.6752 27.3723 36.477C27.0692 36.1814 26.8395 35.8928 26.6895 35.6442C26.5309 35.3814 26.4925 35.2153 26.493 35.1518C26.4932 35.1299 26.4976 35.1589 26.4659 35.2003C26.4316 35.2452 26.3955 35.252 26.407 35.2494C26.4615 35.2372 26.6584 35.2367 27.0726 35.3999L27.2559 34.9348ZM33.4051 38.5173L33.5547 38.9944C34.7066 38.6332 35.5041 38.1047 35.9731 37.4627C36.4501 36.8098 36.5562 36.0801 36.3916 35.4084C36.0731 34.109 34.7558 33.0583 33.3069 33.0509L33.3043 33.5509L33.3018 34.0509C34.3068 34.056 35.2145 34.8067 35.4203 35.6464C35.5179 36.0443 35.4609 36.4686 35.1656 36.8728C34.8624 37.2879 34.2784 37.7195 33.2555 38.0402L33.4051 38.5173ZM33.3043 33.5509L33.3069 33.0509C32.404 33.0463 31.8006 33.2724 31.3458 33.6234C31.1276 33.7918 30.9582 33.9779 30.8173 34.1465C30.6616 34.3328 30.5735 34.4539 30.4486 34.5919C30.2431 34.819 30.0458 34.9641 29.676 34.9951C29.2591 35.03 28.5862 34.9216 27.4392 34.4696L27.2559 34.9348L27.0726 35.3999C28.2626 35.869 29.1098 36.046 29.7595 35.9916C30.4564 35.9332 30.8723 35.6141 31.1901 35.2629C31.3269 35.1118 31.478 34.9152 31.5845 34.7879C31.7057 34.6428 31.8215 34.5194 31.9568 34.415C32.2092 34.2202 32.5866 34.0472 33.3018 34.0509L33.3043 33.5509ZM44.4992 1.99105L44.0026 1.93207L39.9075 36.4061L40.404 36.4651L40.9005 36.5241L44.9957 2.05003L44.4992 1.99105ZM40.404 36.4651L40.6892 36.8758L40.7531 36.8314L40.4678 36.4208L40.1826 36.0101L40.1187 36.0545L40.404 36.4651ZM40.4678 36.4208L40.7531 36.8314C43.1413 35.1725 46.2828 32.9976 48.1311 28.527L47.6691 28.336L47.207 28.145C45.4792 32.3239 42.5613 34.3578 40.1826 36.0101L40.4678 36.4208ZM47.6691 28.336L48.1311 28.527C48.5994 27.3944 49.1784 25.2785 49.7795 22.7806C50.3839 20.2696 51.0193 17.3348 51.5976 14.5399C52.1761 11.7444 52.698 9.08581 53.0753 7.1263C53.264 6.14647 53.4165 5.34126 53.5219 4.78091C53.5745 4.50073 53.6155 4.28176 53.6432 4.13277C53.6571 4.05827 53.6676 4.00128 53.6748 3.96287C53.6783 3.94367 53.681 3.92911 53.6828 3.91935C53.6837 3.91446 53.6844 3.91077 53.6849 3.9083C53.6851 3.90706 53.6853 3.90613 53.6854 3.9055C53.6854 3.90518 53.6855 3.90494 53.6855 3.90479C53.6856 3.90462 53.6856 3.90453 53.1939 3.81378C52.7022 3.72303 52.7022 3.72309 52.7021 3.72323C52.7021 3.72338 52.7021 3.7236 52.702 3.7239C52.7019 3.7245 52.7017 3.7254 52.7015 3.72661C52.7011 3.72902 52.7004 3.73265 52.6995 3.73747C52.6977 3.74711 52.6951 3.76154 52.6915 3.78061C52.6844 3.81876 52.6739 3.87549 52.6601 3.94971C52.6325 4.09814 52.5917 4.31653 52.5391 4.59609C52.4339 5.15522 52.2817 5.959 52.0933 6.93723C51.7166 8.89384 51.1956 11.5477 50.6184 14.3373C50.041 17.1275 49.408 20.0506 48.8073 22.5466C48.2034 25.0556 47.6407 27.0959 47.207 28.145L47.6691 28.336ZM44.4992 1.99105C44.0064 2.07562 44.0064 2.0758 44.0064 2.076C44.0064 2.07609 44.0065 2.0763 44.0065 2.07647C44.0066 2.0768 44.0066 2.07718 44.0067 2.07761C44.0068 2.07847 44.007 2.07952 44.0073 2.08077C44.0077 2.08326 44.0083 2.08652 44.009 2.09051C44.0105 2.09851 44.0126 2.10948 44.0153 2.12325C44.0207 2.15078 44.0286 2.18953 44.0396 2.23803C44.0613 2.33495 44.0949 2.47136 44.1431 2.63544C44.2392 2.96228 44.3955 3.40586 44.6369 3.86841C45.1143 4.78315 45.9691 5.85067 47.4197 6.12676L47.5132 5.63558L47.6067 5.1444C46.588 4.95051 45.9357 4.19577 45.5234 3.40574C45.32 3.0159 45.1858 2.63647 45.1025 2.3534C45.0611 2.21252 45.0329 2.09725 45.0152 2.01872C45.0064 1.97951 45.0003 1.94959 44.9965 1.93039C44.9946 1.92079 44.9933 1.91388 44.9926 1.90984C44.9922 1.90781 44.992 1.90651 44.9919 1.90594C44.9918 1.90566 44.9918 1.90556 44.9918 1.90565C44.9918 1.9057 44.9918 1.90579 44.9919 1.90593C44.9919 1.906 44.9919 1.90614 44.9919 1.90618C44.9919 1.90633 44.9919 1.90649 44.4992 1.99105ZM47.5132 5.63558L47.4197 6.12676C49.6771 6.55641 51.2267 6.08066 52.2239 5.45316C52.7167 5.143 53.0635 4.80281 53.2894 4.53595C53.4024 4.40245 53.4855 4.28685 53.542 4.20172C53.5702 4.15912 53.5918 4.12406 53.6072 4.09807C53.6149 4.08508 53.6211 4.07434 53.6257 4.06606C53.628 4.06192 53.63 4.05839 53.6316 4.0555C53.6324 4.05405 53.6331 4.05276 53.6337 4.05163C53.634 4.05107 53.6343 4.05055 53.6345 4.05007C53.6346 4.04983 53.6348 4.04949 53.6349 4.04937C53.6351 4.04905 53.6352 4.04874 53.1939 3.81378C52.7525 3.57882 52.7527 3.57853 52.7528 3.57825C52.7529 3.57816 52.753 3.57789 52.7531 3.57773C52.7533 3.57741 52.7534 3.57713 52.7536 3.57688C52.7538 3.57639 52.754 3.57606 52.7541 3.57588C52.7543 3.57551 52.7542 3.57575 52.7537 3.57657C52.7528 3.57821 52.7505 3.58218 52.7469 3.58829C52.7397 3.60052 52.727 3.6213 52.7085 3.64919C52.6715 3.70503 52.6115 3.78899 52.5261 3.8899C52.3552 4.09182 52.0839 4.35973 51.6913 4.60679C50.9175 5.09372 49.6267 5.52887 47.6067 5.1444L47.5132 5.63558ZM47.623 3.90301L47.7842 3.42971C46.9326 3.13967 46.7007 2.53341 46.7882 2.19527C46.8658 1.89584 47.3387 1.35141 48.9285 1.53608L48.9862 1.03942L49.0439 0.542759C47.3063 0.340919 46.0941 0.886494 45.8202 1.9446C45.5562 2.964 46.3063 3.98278 47.4618 4.37632L47.623 3.90301ZM48.9862 1.03942L48.9285 1.53608C50.8006 1.75356 51.7305 2.40086 52.1938 2.92838C52.4293 3.19658 52.5567 3.44767 52.6245 3.62419C52.6586 3.71267 52.6777 3.78249 52.6878 3.82623C52.6929 3.84808 52.6957 3.86331 52.697 3.87097C52.6976 3.8748 52.6979 3.87672 52.6979 3.87661C52.6978 3.87656 52.6978 3.876 52.6976 3.87492C52.6976 3.87438 52.6975 3.8737 52.6974 3.8729C52.6973 3.87249 52.6973 3.87206 52.6972 3.87159C52.6972 3.87135 52.6972 3.87098 52.6971 3.87086C52.6971 3.87047 52.6971 3.87008 53.1939 3.81378C53.6907 3.75748 53.6906 3.75707 53.6906 3.75665C53.6906 3.75649 53.6905 3.75606 53.6905 3.75576C53.6904 3.75515 53.6903 3.7545 53.6903 3.75382C53.6901 3.75245 53.6899 3.75094 53.6897 3.74928C53.6893 3.74597 53.6888 3.74208 53.6881 3.73763C53.6869 3.72873 53.6852 3.71759 53.683 3.70434C53.6785 3.67786 53.6718 3.64288 53.662 3.6005C53.6424 3.51579 53.6101 3.40109 53.5579 3.26527C53.4533 2.99321 53.2684 2.63664 52.9452 2.26854C52.2909 1.52345 51.1169 0.783574 49.0439 0.542759L48.9862 1.03942ZM47.623 3.90301L47.4618 4.37632C48.1425 4.60814 48.8003 4.64636 49.3536 4.56236C49.8903 4.48086 50.3851 4.27434 50.6857 3.95552C50.8397 3.79219 50.9732 3.56414 50.9741 3.2868C50.975 2.99729 50.8315 2.75747 50.6336 2.58527C50.2709 2.26964 49.6437 2.09983 48.8143 2.04475L48.7812 2.54365L48.748 3.04255C49.5368 3.09494 49.876 3.25165 49.9771 3.33963C50.0111 3.36925 49.9739 3.35051 49.9741 3.28361C49.9743 3.22888 50.0001 3.22496 49.958 3.26956C49.8666 3.36658 49.6161 3.51104 49.2035 3.57369C48.8074 3.63383 48.3117 3.60936 47.7842 3.42971L47.623 3.90301ZM56.5872 55.8959L56.0929 55.8205C55.9565 56.715 55.2332 57.5696 53.8274 58.3134C52.4322 59.0515 50.456 59.6283 48.0201 60.0036C43.1544 60.7532 36.5702 60.6819 29.4286 59.5973L29.3535 60.0917L29.2784 60.586C36.4918 61.6815 43.1815 61.7609 48.1724 60.9919C50.6648 60.6079 52.7626 60.0081 54.2951 59.1973C55.817 58.3921 56.875 57.3254 57.0815 55.9713L56.5872 55.8959ZM29.3535 60.0917L29.4286 59.5973C22.287 58.5128 15.9796 56.6263 11.5577 54.4662C9.34395 53.3848 7.62924 52.2475 6.51736 51.1287C5.39709 50.0015 4.96141 48.9711 5.09781 48.0767L4.60352 48.0013L4.10924 47.926C3.90271 49.2802 4.59496 50.613 5.80806 51.8336C7.02956 53.0627 8.85368 54.2582 11.1188 55.3647C15.6546 57.5805 22.0651 59.4905 29.2784 60.586L29.3535 60.0917ZM48.0553 48.1624L47.8592 48.6224C50.6178 49.7984 52.793 51.0728 54.222 52.3426C55.6688 53.6282 56.2469 54.811 56.0929 55.8205L56.5872 55.8959L57.0815 55.9713C57.314 54.4463 56.41 52.9491 54.8862 51.5951C53.3446 50.2252 51.0606 48.9001 48.2514 47.7025L48.0553 48.1624ZM4.60352 48.0013L5.09781 48.0767C5.17328 47.5818 5.57117 47.021 6.26207 46.5689C6.94151 46.1242 7.84418 45.8282 8.80275 45.8282L8.80275 45.3282L8.80275 44.8282C7.6459 44.8282 6.55352 45.183 5.71449 45.7321C4.88692 46.2737 4.2429 47.0495 4.10924 47.926L4.60352 48.0013ZM42.1792 21.0087L42.1831 20.5087C41.2264 20.5012 40.2177 20.5319 39.1692 20.6006L39.2019 21.0995L39.2346 21.5984C40.2609 21.5312 41.2452 21.5014 42.1752 21.5087L42.1792 21.0087ZM50.7975 23.9056L51.2771 23.7642C51.0528 23.0032 50.4825 22.4081 49.7214 21.9549L49.4656 22.3845L49.2098 22.8141C49.8387 23.1886 50.1884 23.6076 50.3179 24.0469L50.7975 23.9056ZM29.5938 9.94885L29.2029 9.63716C29.2002 9.64055 29.1972 9.64426 29.1943 9.64794L29.5855 9.95935L29.9767 10.2708C29.9793 10.2674 29.9819 10.2642 29.9848 10.2605L29.5938 9.94885ZM29.5855 9.95935L29.1943 9.64792C28.1284 10.9868 27.427 12.1788 27.0533 13.4403C26.6784 14.7056 26.6448 16.0015 26.8536 17.5301L27.349 17.4625L27.8444 17.3948C27.6483 15.9589 27.6893 14.8141 28.0121 13.7243C28.336 12.6308 28.9554 11.5535 29.9766 10.2708L29.5855 9.95935ZM27.349 17.4625L26.8536 17.5301C26.9414 18.173 27.0723 18.8588 27.2395 19.602L27.7273 19.4922L28.2151 19.3825C28.0521 18.6576 27.9272 18.0012 27.8444 17.3948L27.349 17.4625ZM27.7273 19.4922L27.2395 19.602C27.2432 19.6183 27.2469 19.6348 27.2506 19.6512L27.7383 19.5409L28.2259 19.4305C28.2223 19.4145 28.2187 19.3985 28.2151 19.3825L27.7273 19.4922ZM27.7383 19.5409L27.2506 19.6513C27.2518 19.6564 27.2529 19.6616 27.2541 19.6669L27.7418 19.5563L28.2294 19.4457C28.2282 19.4407 28.2271 19.4357 28.2259 19.4305L27.7383 19.5409ZM27.7418 19.5563L27.2541 19.6669C27.2553 19.672 27.2565 19.6772 27.2576 19.6822L27.7452 19.5715L28.2328 19.4607C28.2316 19.4556 28.2305 19.4507 28.2294 19.4457L27.7418 19.5563ZM18.5579 17.7912L18.7228 18.2633C18.7268 18.2619 18.7308 18.2605 18.7349 18.2591L18.5703 17.7869L18.4057 17.3148C18.4015 17.3162 18.3973 17.3177 18.393 17.3192L18.5579 17.7912ZM18.5703 17.7869L18.7349 18.2591C20.2882 17.7175 21.484 17.5164 22.5821 17.6247C23.6765 17.7326 24.7243 18.153 25.9737 18.9424L26.2408 18.5197L26.5078 18.097C25.1801 17.2581 23.9821 16.7579 22.6802 16.6295C21.3821 16.5015 20.0312 16.7481 18.4057 17.3148L18.5703 17.7869ZM26.2408 18.5197L25.9737 18.9424C26.3384 19.1728 26.7192 19.4341 27.1227 19.7273L27.4166 19.3228L27.7106 18.9183C27.2939 18.6155 26.8949 18.3416 26.5078 18.097L26.2408 18.5197ZM27.4166 19.3228L27.1227 19.7273C27.2159 19.795 27.3103 19.8645 27.406 19.9356L27.7043 19.5344L28.0027 19.1332C27.9043 19.06 27.807 18.9884 27.7106 18.9183L27.4166 19.3228ZM27.7043 19.5344L27.406 19.9356C27.4099 19.9385 27.4138 19.9415 27.4179 19.9445L27.7164 19.5434L28.015 19.1423C28.0109 19.1393 28.0068 19.1362 28.0027 19.1332L27.7043 19.5344ZM22.5595 11.456L22.3269 11.8986C23.7399 12.6414 24.6979 13.3662 25.3876 14.2347C26.0756 15.1012 26.525 16.1465 26.8623 17.5772L27.349 17.4625L27.8357 17.3477C27.4775 15.8288 26.9798 14.6318 26.1707 13.6129C25.3633 12.596 24.2743 11.7925 22.7921 11.0134L22.5595 11.456ZM27.349 17.4625L26.8623 17.5772C27.0024 18.1713 27.1226 18.8294 27.2328 19.5662L27.7273 19.4922L28.2218 19.4183C28.1089 18.6636 27.984 17.9768 27.8357 17.3477L27.349 17.4625ZM27.7273 19.4922L27.2328 19.5662C27.2331 19.5686 27.2335 19.5708 27.2338 19.5731L27.7283 19.4992L28.2228 19.4253C28.2225 19.423 28.2221 19.4205 28.2218 19.4183L27.7273 19.4922ZM22.5439 11.4672L22.0454 11.5065C22.1856 13.2852 22.5006 14.6682 23.1252 15.8514C23.7522 17.0388 24.6692 17.9837 25.9444 18.9224L26.2408 18.5197L26.5372 18.117C25.3377 17.2341 24.5437 16.3962 24.0095 15.3845C23.4731 14.3684 23.1769 13.1359 23.0423 11.4279L22.5439 11.4672ZM26.2408 18.5197L25.9444 18.9224C26.3138 19.1943 26.7141 19.4663 27.1468 19.7437L27.4166 19.3228L27.6865 18.9019C27.2675 18.6333 26.8856 18.3735 26.5372 18.117L26.2408 18.5197ZM27.4166 19.3228L27.1468 19.7437C27.2452 19.8069 27.3455 19.8703 27.4474 19.9341L27.7127 19.5104L27.9781 19.0866C27.879 19.0245 27.7818 18.963 27.6865 18.9019L27.4166 19.3228ZM25.9074 29.1377L26.386 28.9929C26.3847 28.9886 26.3834 28.9844 26.3822 28.9804L25.9035 29.1248L25.4248 29.2693C25.4262 29.2737 25.4275 29.2782 25.4288 29.2824L25.9074 29.1377ZM25.9035 29.1248L26.3822 28.9803C25.9088 27.4117 25.7326 26.1824 25.8369 25.0469C25.9408 23.9153 26.327 22.8364 27.0414 21.5746L26.6063 21.3283L26.1712 21.0819C25.4108 22.425 24.9617 23.6414 24.8411 24.9554C24.7208 26.2654 24.9306 27.6319 25.4249 29.2693L25.9035 29.1248ZM26.6063 21.3283L27.0414 21.5746C27.3431 21.0418 27.7024 20.4779 28.1225 19.8646L27.71 19.582L27.2975 19.2995C26.8668 19.9282 26.491 20.5171 26.1712 21.0819L26.6063 21.3283ZM27.71 19.582L28.1225 19.8646C28.1318 19.8511 28.1411 19.8375 28.1504 19.824L27.7383 19.5409L27.3261 19.2578C27.3166 19.2717 27.307 19.2856 27.2975 19.2995L27.71 19.582ZM27.7383 19.5409L28.1504 19.824C28.1533 19.8198 28.1562 19.8155 28.1592 19.8111L27.7472 19.5278L27.3352 19.2445C27.3322 19.2489 27.3292 19.2533 27.3261 19.2578L27.7383 19.5409ZM27.7472 19.5278L28.1592 19.8111C28.1621 19.8069 28.1651 19.8027 28.168 19.7985L27.756 19.515L27.3441 19.2316C27.3412 19.2359 27.3382 19.2402 27.3352 19.2445L27.7472 19.5278ZM18.5604 17.7784L18.2328 18.1561C18.2362 18.159 18.2396 18.162 18.2429 18.1648L18.5703 17.7869L18.8977 17.409C18.8944 17.4062 18.8912 17.4034 18.888 17.4007L18.5604 17.7784ZM18.5703 17.7869L18.2429 18.1648C19.5432 19.2913 20.707 20.0191 21.9607 20.3793C23.2178 20.7404 24.5162 20.7179 26.0606 20.4284L25.9685 19.937L25.8764 19.4455C24.4229 19.7179 23.2936 19.7217 22.2368 19.4181C21.1764 19.1135 20.1401 18.4854 18.8977 17.409L18.5703 17.7869ZM25.9685 19.937L26.0606 20.4284C26.5108 20.3441 26.9831 20.2368 27.4824 20.1093L27.3586 19.6248L27.2348 19.1404C26.7513 19.2639 26.3007 19.366 25.8764 19.4455L25.9685 19.937ZM27.3586 19.6248L27.4824 20.1093C27.5979 20.0797 27.7149 20.0491 27.8334 20.0174L27.7043 19.5344L27.5753 19.0513C27.46 19.0821 27.3466 19.1118 27.2348 19.1404L27.3586 19.6248ZM27.7043 19.5344L27.8334 20.0175C27.8383 20.0161 27.8432 20.0148 27.8482 20.0135L27.7189 19.5305L27.5896 19.0475C27.5848 19.0488 27.58 19.0501 27.5753 19.0513L27.7043 19.5344ZM19.9304 25.1412L19.9832 25.6384C21.6489 25.4616 22.9584 25.117 24.0852 24.4704C25.2143 23.8224 26.1203 22.8941 27.0159 21.6151L26.6063 21.3283L26.1968 21.0415C25.3531 22.2463 24.548 23.0518 23.5875 23.603C22.6246 24.1555 21.4658 24.4754 19.8776 24.644L19.9304 25.1412ZM26.6063 21.3283L27.0159 21.6151C27.3868 21.0853 27.7574 20.4934 28.142 19.8339L27.71 19.582L27.2781 19.3302C26.9026 19.9741 26.5471 20.5412 26.1968 21.0415L26.6063 21.3283ZM27.71 19.582L28.142 19.8339C28.1426 19.8328 28.1433 19.8316 28.1439 19.8306C28.1445 19.8296 28.145 19.8287 28.1455 19.8278L27.7136 19.576L27.2816 19.3241C27.2757 19.3343 27.2837 19.3205 27.2781 19.3302L27.71 19.582ZM19.92 25.1251L20.3685 25.3462C21.1265 23.809 21.8585 22.773 22.7336 22.0269C23.605 21.2839 24.6535 20.7983 26.0952 20.4207L25.9685 19.937L25.8418 19.4533C24.3092 19.8548 23.1072 20.3942 22.0848 21.2659C21.0661 22.1345 20.261 23.3031 19.4716 24.904L19.92 25.1251ZM25.9685 19.937L26.0952 20.4207C26.514 20.311 26.9651 20.2106 27.4539 20.1156L27.3586 19.6248L27.2632 19.134C26.7585 19.2321 26.2858 19.337 25.8418 19.4533L25.9685 19.937ZM27.3586 19.6248L27.4539 20.1156C27.5651 20.094 27.6782 20.0727 27.7933 20.0517L27.7032 19.5598L27.6132 19.068C27.4948 19.0897 27.3782 19.1117 27.2632 19.134L27.3586 19.6248ZM29.5816 9.94651L29.103 10.0913C29.1043 10.0954 29.1055 10.0995 29.1068 10.1038L29.5855 9.95935L30.0642 9.8149C30.0629 9.81061 30.0615 9.80619 30.0602 9.80172L29.5816 9.94651ZM29.5855 9.95935L29.1068 10.1038C29.5802 11.6724 29.7564 12.9018 29.6521 14.0373C29.5482 15.1689 29.162 16.2478 28.4476 17.5096L28.8827 17.7559L29.3178 18.0023C30.0782 16.6591 30.5273 15.4427 30.6479 14.1288C30.7682 12.8187 30.5584 11.4523 30.0641 9.81487L29.5855 9.95935ZM28.8827 17.7559L28.4476 17.5096C28.1459 18.0424 27.7866 18.6062 27.3665 19.2196L27.779 19.5021L28.1915 19.7847C28.6222 19.1559 28.998 18.5671 29.3178 18.0023L28.8827 17.7559ZM27.779 19.5021L27.3665 19.2196C27.3572 19.2331 27.3479 19.2466 27.3386 19.2602L27.7507 19.5433L28.1629 19.8264C28.1724 19.8125 28.1819 19.7986 28.1915 19.7847L27.779 19.5021ZM27.7507 19.5433L27.3386 19.2602C27.3356 19.2645 27.3327 19.2688 27.3298 19.273L27.7418 19.5563L28.1538 19.8396C28.1568 19.8352 28.1598 19.8308 28.1629 19.8264L27.7507 19.5433ZM27.7418 19.5563L27.3298 19.273C27.3267 19.2775 27.3239 19.2815 27.321 19.2857L27.733 19.5691L28.1449 19.8526C28.1479 19.8482 28.1509 19.8437 28.1538 19.8396L27.7418 19.5563ZM36.9286 21.3058L37.2562 20.9281C37.253 20.9253 37.2496 20.9223 37.2461 20.9193L36.9187 21.2972L36.5913 21.6751C36.5945 21.6779 36.5976 21.6806 36.6009 21.6835L36.9286 21.3058ZM36.9187 21.2972L37.2461 20.9193C35.9458 19.7928 34.782 19.0651 33.5284 18.7049C32.2712 18.3437 30.9729 18.3663 29.4284 18.6557L29.5205 19.1472L29.6126 19.6386C31.0661 19.3662 32.1955 19.3624 33.2522 19.666C34.3126 19.9707 35.3489 20.5988 36.5913 21.6751L36.9187 21.2972ZM29.5205 19.1472L29.4284 18.6557C28.9782 18.7401 28.5059 18.8474 28.0066 18.9749L28.1304 19.4594L28.2542 19.9438C28.7377 19.8203 29.1883 19.7181 29.6126 19.6386L29.5205 19.1472ZM28.1304 19.4594L28.0066 18.9749C27.8911 19.0044 27.7741 19.035 27.6556 19.0667L27.7847 19.5498L27.9137 20.0328C28.029 20.002 28.1424 19.9723 28.2542 19.9438L28.1304 19.4594ZM27.7847 19.5498L27.6556 19.0667C27.6506 19.068 27.6454 19.0694 27.6409 19.0707L27.7701 19.5537L27.8994 20.0367C27.9045 20.0353 27.909 20.0341 27.9137 20.0328L27.7847 19.5498ZM35.5586 13.9429L35.5058 13.4457C33.8401 13.6225 32.5306 13.9672 31.4038 14.6138C30.2747 15.2618 29.3687 16.19 28.4731 17.4691L28.8827 17.7559L29.2922 18.0427C30.1359 16.8378 30.941 16.0323 31.9015 15.4811C32.8644 14.9286 34.0232 14.6087 35.6114 14.4401L35.5586 13.9429ZM28.8827 17.7559L28.4731 17.4691C28.1022 17.9988 27.7316 18.5908 27.347 19.2503L27.779 19.5021L28.2109 19.754C28.5864 19.11 28.9419 18.543 29.2922 18.0427L28.8827 17.7559ZM27.779 19.5021L27.347 19.2503C27.3459 19.2521 27.3446 19.2545 27.3435 19.2564L27.7754 19.5082L28.2074 19.76C28.2086 19.7579 28.2096 19.7561 28.2109 19.7539L27.779 19.5021ZM35.569 13.9591L35.1205 13.7379C34.3625 15.2752 33.6305 16.3111 32.7554 17.0573C31.884 17.8003 30.8355 18.2858 29.3938 18.6635L29.5205 19.1472L29.6472 19.6308C31.1798 19.2294 32.3818 18.69 33.4042 17.8182C34.4229 16.9496 35.228 15.7811 36.0174 14.1802L35.569 13.9591ZM29.5205 19.1472L29.3938 18.6635C28.975 18.7732 28.5239 18.8736 28.035 18.9685L28.1304 19.4594L28.2257 19.9502C28.7305 19.8521 29.2032 19.7472 29.6472 19.6308L29.5205 19.1472ZM28.1304 19.4594L28.035 18.9685C27.9239 18.9901 27.8108 19.0114 27.6957 19.0325L27.7858 19.5243L27.8758 20.0162C27.9942 19.9945 28.1108 19.9725 28.2257 19.9502L28.1304 19.4594ZM25.8952 29.1353L26.2861 29.447C26.289 29.4434 26.2918 29.4398 26.2947 29.4362L25.9035 29.1248L25.5123 28.8134C25.5097 28.8168 25.5069 28.8202 25.5042 28.8236L25.8952 29.1353ZM25.9035 29.1248L26.2947 29.4362C27.3606 28.0974 28.062 26.9054 28.4357 25.6439C28.8106 24.3786 28.8442 23.0827 28.6354 21.554L28.14 21.6217L27.6446 21.6893C27.8407 23.1252 27.7997 24.2701 27.4769 25.3598C27.1529 26.4534 26.5336 27.5307 25.5124 28.8134L25.9035 29.1248ZM28.14 21.6217L28.6354 21.554C28.5476 20.9112 28.4167 20.2254 28.2495 19.4822L27.7617 19.5919L27.2739 19.7017C27.4369 20.4265 27.5618 21.083 27.6446 21.6893L28.14 21.6217ZM27.7617 19.5919L28.2495 19.4822C28.2458 19.4658 28.2421 19.4494 28.2384 19.4329L27.7507 19.5433L27.2631 19.6536C27.2667 19.6697 27.2703 19.6857 27.2739 19.7017L27.7617 19.5919ZM27.7507 19.5433L28.2384 19.4329C28.2372 19.4277 28.236 19.4225 28.2349 19.4173L27.7472 19.5278L27.2596 19.6384C27.2608 19.6435 27.2619 19.6485 27.2631 19.6536L27.7507 19.5433ZM27.7472 19.5278L28.2349 19.4173C28.2337 19.4121 28.2325 19.407 28.2314 19.402L27.7438 19.5127L27.2562 19.6234C27.2574 19.6285 27.2585 19.6335 27.2596 19.6384L27.7472 19.5278ZM36.9311 21.2929L36.7662 20.8209C36.7622 20.8223 36.7584 20.8236 36.7541 20.8251L36.9187 21.2972L37.0833 21.7694C37.0873 21.768 37.0917 21.7665 37.096 21.7649L36.9311 21.2929ZM36.9187 21.2972L36.7541 20.8251C35.2008 21.3666 34.005 21.5678 32.9069 21.4595C31.8125 21.3515 30.7647 20.9312 29.5153 20.1417L29.2482 20.5644L28.9811 20.9871C30.3089 21.8261 31.5069 22.3262 32.8087 22.4546C34.1069 22.5827 35.4578 22.3361 37.0833 21.7694L36.9187 21.2972ZM29.2482 20.5644L29.5153 20.1417C29.1506 19.9113 28.7698 19.6501 28.3663 19.3569L28.0724 19.7614L27.7784 20.1658C28.1951 20.4686 28.5941 20.7426 28.9811 20.9871L29.2482 20.5644ZM28.0724 19.7614L28.3663 19.3569C28.2731 19.2891 28.1787 19.2197 28.083 19.1486L27.7847 19.5498L27.4863 19.951C27.5847 20.0242 27.682 20.0958 27.7784 20.1658L28.0724 19.7614ZM27.7847 19.5498L28.083 19.1485C28.0791 19.1456 28.0752 19.1427 28.0711 19.1397L27.7726 19.5408L27.474 19.9419C27.4781 19.9449 27.4822 19.9479 27.4863 19.951L27.7847 19.5498ZM32.9295 27.6281L33.1621 27.1855C31.7491 26.4428 30.7911 25.718 30.1014 24.8494C29.4134 23.983 28.964 22.9377 28.6267 21.5069L28.14 21.6217L27.6533 21.7364C28.0115 23.2554 28.5092 24.4524 29.3183 25.4713C30.1257 26.4881 31.2147 27.2917 32.6969 28.0707L32.9295 27.6281ZM28.14 21.6217L28.6267 21.5069C28.4866 20.9128 28.3664 20.2548 28.2562 19.518L27.7617 19.5919L27.2672 19.6659C27.3801 20.4205 27.505 21.1073 27.6533 21.7364L28.14 21.6217ZM27.7617 19.5919L28.2562 19.518C28.2559 19.5156 28.2555 19.5134 28.2552 19.511L27.7607 19.585L27.2662 19.6589C27.2665 19.6612 27.2669 19.6636 27.2672 19.6659L27.7617 19.5919ZM32.9451 27.617L33.4436 27.5777C33.3034 25.7989 32.9884 24.416 32.3638 23.2328C31.7368 22.0453 30.8198 21.1004 29.5446 20.1618L29.2482 20.5644L28.9518 20.9671C30.1513 21.85 30.9453 22.688 31.4795 23.6997C32.0159 24.7157 32.3121 25.9482 32.4467 27.6563L32.9451 27.617ZM29.2482 20.5644L29.5446 20.1618C29.1752 19.8898 28.7749 19.6179 28.3423 19.3405L28.0724 19.7614L27.8025 20.1823C28.2215 20.4509 28.6034 20.7106 28.9518 20.9671L29.2482 20.5644ZM28.0724 19.7614L28.3423 19.3405C28.2438 19.2773 28.1436 19.2138 28.0416 19.15L27.7763 19.5738L27.5109 19.9976C27.61 20.0596 27.7072 20.1212 27.8025 20.1823L28.0724 19.7614Z" fill="#795338"/>
</svg>
