<svg width="240" height="62" viewBox="0 0 240 62" fill="none" xmlns="http://www.w3.org/2000/svg">
<path d="M75.96 44.92C75.1333 44.8667 74.64 44.72 74.48 44.48C74.3467 44.24 74.28 43.9867 74.28 43.72C74.4133 43.32 74.56 42.9333 74.72 42.56C74.9067 42.1867 75.04 41.7867 75.12 41.36C75.2 41.0133 75.28 40.6933 75.36 40.4C75.44 40.1067 75.5333 39.7867 75.64 39.44C75.8533 38.8 76.0933 38.0133 76.36 37.08C76.6533 36.1467 76.96 35.2133 77.28 34.28C77.6 33.3467 77.88 32.5733 78.12 31.96C78.3333 31.3467 78.5067 30.8267 78.64 30.4C78.8 29.9733 78.96 29.56 79.12 29.16C79.28 28.76 79.4533 28.28 79.64 27.72C79.7733 27.3733 79.8933 27.04 80 26.72C80.1067 26.3733 80.2133 26.0267 80.32 25.68C80.4533 25.3333 80.5733 25 80.68 24.68C80.8133 24.3333 80.9333 23.9867 81.04 23.64C81.3333 23.0267 81.5867 22.44 81.8 21.88C82.04 21.32 82.2533 20.7067 82.44 20.04C82.5467 19.8 82.5333 19.6267 82.4 19.52C82.2933 19.4133 82.24 19.1867 82.24 18.84C82.2133 18.52 82.2933 18.2933 82.48 18.16C82.6933 18 82.96 17.96 83.28 18.04C83.6533 18.12 84.1733 18.1867 84.84 18.24C85.5333 18.2933 86.16 18.32 86.72 18.32C87.3067 18.2933 87.6267 18.2667 87.68 18.24C87.8133 18.1867 88.2533 18.1067 89 18C89.7467 17.8667 90.6533 17.72 91.72 17.56C92.7867 17.4 93.88 17.2533 95 17.12C96.1467 16.9867 97.16 16.8667 98.04 16.76C98.3333 16.7067 98.6133 16.7067 98.88 16.76C99.1733 16.8133 99.4533 16.8667 99.72 16.92C100.067 16.9733 100.413 17.16 100.76 17.48C101.107 17.8 101.227 18.1867 101.12 18.64C101.013 18.9333 100.787 19.0933 100.44 19.12C100.093 19.12 99.6267 19.0667 99.04 18.96C98.9867 18.96 98.9333 19.0667 98.88 19.28C98.8267 19.4933 98.76 19.7467 98.68 20.04C98.6267 20.3333 98.5333 20.64 98.4 20.96C98.24 21.1467 98.0533 21.5067 97.84 22.04C97.6533 22.5733 97.4533 23.16 97.24 23.8C97.0267 24.44 96.8533 25.0267 96.72 25.56C96.5867 26.0933 96.52 26.4667 96.52 26.68C96.1467 27.2667 95.88 27.9067 95.72 28.6C95.5867 29.2933 95.4133 29.9467 95.2 30.56C95.1733 30.6667 95.0667 31.04 94.88 31.68C94.72 32.2933 94.52 33.04 94.28 33.92C94.04 34.8 93.8 35.68 93.56 36.56C93.32 37.4133 93.12 38.1467 92.96 38.76C92.8 39.3733 92.72 39.72 92.72 39.8C92.6933 40.3333 92.6267 40.88 92.52 41.44C92.44 42 92.3867 42.5467 92.36 43.08C92.3867 43.1867 92.4 43.28 92.4 43.36C92.4 43.4133 92.3467 43.4667 92.24 43.52C92.0267 43.7067 91.6667 43.8 91.16 43.8C90.6533 43.7733 90.3333 43.68 90.2 43.52C90.0933 43.3067 90 43.12 89.92 42.96C89.84 42.7733 89.8133 42.5733 89.84 42.36C89.8933 41.6133 89.9867 40.8667 90.12 40.12C90.2533 39.3733 90.3733 38.6533 90.48 37.96C90.6133 37.2667 90.7733 36.64 90.96 36.08C91.1467 35.52 91.28 35.2133 91.36 35.16L92.12 32.32C92.4133 31.52 92.6 30.8933 92.68 30.44C92.76 29.96 92.84 29.4933 92.92 29.04C93.0267 28.5867 93.2133 28 93.48 27.28C93.7467 26.6133 93.96 25.9467 94.12 25.28C94.3067 24.5867 94.4933 23.9067 94.68 23.24C94.8667 22.6 95.0533 22.04 95.24 21.56C95.4267 21.0533 95.5733 20.6133 95.68 20.24C95.8133 19.8667 95.8667 19.5467 95.84 19.28C95.2533 19.3333 94.7067 19.4 94.2 19.48C93.72 19.56 93.2133 19.64 92.68 19.72C92.1733 19.7733 91.5467 19.8533 90.8 19.96C90.3467 20.0133 89.7467 20.1067 89 20.24C88.2533 20.3467 87.56 20.4533 86.92 20.56C86.3067 20.64 85.92 20.68 85.76 20.68C85.5733 20.7067 85.4133 20.76 85.28 20.84C85.1467 20.92 85.08 21.0267 85.08 21.16C84.68 21.96 84.2933 22.7733 83.92 23.6C83.5467 24.4 83.2133 25.1733 82.92 25.92C82.6533 26.64 82.4533 27.28 82.32 27.84C82.2667 27.9467 82.16 28.2133 82 28.64C81.84 29.0667 81.6533 29.56 81.44 30.12C81.2267 30.68 81.0267 31.2133 80.84 31.72C80.6533 32.2267 80.5067 32.6267 80.4 32.92C80.32 33.1867 80.2933 33.2533 80.32 33.12C79.92 34.4 79.5867 35.4133 79.32 36.16C79.08 36.88 78.88 37.4533 78.72 37.88C78.56 38.3067 78.4267 38.68 78.32 39C78.2133 39.32 78.1067 39.7067 78 40.16C77.84 40.5867 77.7067 41.0267 77.6 41.48C77.4933 41.9333 77.3867 42.3867 77.28 42.84C77.2533 42.9733 77.2133 43.12 77.16 43.28C77.1333 43.44 77.08 43.7733 77 44.28C76.8933 44.4933 76.76 44.6533 76.6 44.76C76.4667 44.8933 76.2533 44.9467 75.96 44.92ZM97.6197 52.96C97.513 52.96 97.3797 52.96 97.2197 52.96C97.0597 52.9867 96.913 52.88 96.7797 52.64C96.673 52.5067 96.6064 52.3067 96.5797 52.04C96.5797 51.7733 96.6464 51.2933 96.7797 50.6C96.913 50.1467 97.0197 49.6933 97.0997 49.24C97.1797 48.8133 97.2197 48.4933 97.2197 48.28C97.2197 48.1733 97.2464 47.96 97.2997 47.64C97.3797 47.3467 97.4197 47.1333 97.4197 47C97.553 46.7867 97.6597 46.4933 97.7397 46.12C97.8197 45.7467 97.8597 45.4133 97.8597 45.12C97.8597 44.8 98.0197 44.5067 98.3397 44.24C98.3397 44.0267 98.3797 43.76 98.4597 43.44C98.5664 43.12 98.6197 42.9067 98.6197 42.8C98.6997 42.4267 98.873 41.7733 99.1397 40.84C99.433 39.88 99.7797 38.8 100.18 37.6C100.606 36.4 101.02 35.2267 101.42 34.08C101.82 32.9333 102.18 31.96 102.5 31.16C102.82 30.4133 103.033 29.7733 103.14 29.24C103.273 28.68 103.34 28.2667 103.34 28C103.34 27.8933 103.366 27.8133 103.42 27.76C103.473 27.68 103.593 27.5333 103.78 27.32C104.046 27.0533 104.273 26.9733 104.46 27.08C104.673 27.1867 104.926 27.3467 105.22 27.56C105.433 27.9067 105.58 28.2 105.66 28.44C105.766 28.68 105.766 29.0933 105.66 29.68C105.66 30.08 105.593 30.4267 105.46 30.72C105.326 31.0133 105.206 31.24 105.1 31.4C104.993 31.5333 104.966 31.5867 105.02 31.56C106.113 31.0533 107.073 30.7867 107.9 30.76C108.753 30.7067 109.46 30.8533 110.02 31.2C110.606 31.52 111.046 31.9733 111.34 32.56C111.633 33.1467 111.78 33.8267 111.78 34.6C111.78 34.92 111.713 35.3067 111.58 35.76C111.446 36.1867 111.273 36.5867 111.06 36.96C110.873 37.3067 110.7 37.56 110.54 37.72C110.433 37.72 110.326 37.8133 110.22 38C110.113 38.16 110.006 38.3467 109.9 38.56C109.686 38.8267 109.34 39.1333 108.86 39.48C108.406 39.8 107.953 40.0667 107.5 40.28C107.046 40.4667 106.713 40.52 106.5 40.44C106.5 40.44 106.46 40.4533 106.38 40.48C106.326 40.48 106.3 40.5467 106.3 40.68C106.3 40.7333 106.086 40.8533 105.66 41.04C105.233 41.2 104.74 41.36 104.18 41.52C103.62 41.6533 103.126 41.72 102.7 41.72C102.14 41.72 101.74 41.6133 101.5 41.4C101.446 41.4533 101.38 41.5333 101.3 41.64C101.246 41.7467 101.22 41.84 101.22 41.92C101.22 42.08 101.153 42.3867 101.02 42.84C100.913 43.2667 100.78 43.68 100.62 44.08C100.46 44.48 100.313 44.68 100.18 44.68C100.18 44.68 100.153 44.72 100.1 44.8C100.046 44.88 100.073 44.9867 100.18 45.12C100.18 45.12 100.166 45.2667 100.14 45.56C100.14 45.88 100.073 46.1467 99.9397 46.36C99.9397 46.5733 99.8997 46.8933 99.8197 47.32C99.7397 47.7467 99.6464 48.0667 99.5397 48.28C99.5397 48.6 99.4864 48.9067 99.3797 49.2C99.2997 49.52 99.2064 49.68 99.0997 49.68C98.993 49.7067 98.9264 49.8667 98.8997 50.16C98.873 50.48 98.8597 50.7067 98.8597 50.84C98.833 51.5067 98.6997 52.0267 98.4597 52.4C98.2197 52.7733 97.9397 52.96 97.6197 52.96ZM102.46 39.6C102.673 39.6 103.113 39.5067 103.78 39.32C104.446 39.1333 105.126 38.9067 105.82 38.64C106.54 38.3467 107.073 38.0533 107.42 37.76C108.113 37.1467 108.646 36.4533 109.02 35.68C109.42 34.88 109.393 34.12 108.94 33.4C108.726 33.0267 108.34 32.88 107.78 32.96C107.22 33.0133 106.606 33.2267 105.94 33.6C105.273 33.9733 104.646 34.44 104.06 35C103.74 35.3467 103.446 35.7733 103.18 36.28C102.913 36.7867 102.686 37.2933 102.5 37.8C102.34 38.3067 102.246 38.7333 102.22 39.08C102.193 39.4267 102.273 39.6 102.46 39.6ZM114.937 43.8C114.617 43.8 114.337 43.76 114.097 43.68C113.884 43.5733 113.71 43.44 113.577 43.28C113.47 43.0933 113.364 42.9067 113.257 42.72C113.15 42.5067 113.057 42.28 112.977 42.04C113.03 41.8267 113.15 41.6133 113.337 41.4C113.524 41.1867 113.777 41.1733 114.097 41.36C114.15 41.36 114.204 41.3867 114.257 41.44C114.31 41.4933 114.377 41.5467 114.457 41.6C115.444 41.1467 116.244 40.56 116.857 39.84C117.497 39.0933 118.11 38.2667 118.697 37.36C118.244 37.2267 117.79 37.0133 117.337 36.72C116.91 36.4267 116.604 36.12 116.417 35.8C116.15 35.3733 115.977 34.8667 115.897 34.28C115.817 33.6933 115.75 33.3733 115.697 33.32C115.937 32.7867 116.084 32.3333 116.137 31.96C116.217 31.5867 116.324 31.2267 116.457 30.88C116.59 30.5067 116.844 30.08 117.217 29.6C117.51 29.2267 117.87 28.88 118.297 28.56C118.724 28.2133 119.137 27.9333 119.537 27.72C119.937 27.5067 120.23 27.4 120.417 27.4C120.71 27.5067 120.99 27.4933 121.257 27.36C121.524 27.2267 121.79 27.2133 122.057 27.32C122.164 27.3467 122.257 27.36 122.337 27.36C122.444 27.3333 122.524 27.3333 122.577 27.36C123.244 27.4933 123.83 27.68 124.337 27.92C124.844 28.16 125.177 28.6 125.337 29.24C125.204 29.8 125.057 30.36 124.897 30.92C124.764 31.4533 124.55 31.9867 124.257 32.52C123.99 33.0267 123.724 33.56 123.457 34.12C123.217 34.6533 122.91 35.16 122.537 35.64L122.617 35.88C122.91 35.9333 123.27 36 123.697 36.08C124.15 36.1333 124.39 36.16 124.417 36.16C124.71 36.24 124.964 36.3733 125.177 36.56C125.417 36.72 125.67 36.9067 125.937 37.12C125.964 37.2267 125.964 37.3333 125.937 37.44C125.91 37.5467 125.857 37.6667 125.777 37.8C125.484 38.3867 125.177 38.9867 124.857 39.6C124.537 40.1867 124.23 40.7867 123.937 41.4C123.83 41.6667 123.737 42 123.657 42.4C123.577 42.8 123.47 43.12 123.337 43.36C123.097 43.6 122.937 43.7467 122.857 43.8C122.804 43.8267 122.75 43.8133 122.697 43.76C122.644 43.7067 122.497 43.68 122.257 43.68C121.884 43.6 121.63 43.4 121.497 43.08C121.444 42.8933 121.364 42.72 121.257 42.56C121.177 42.4 121.164 42.2133 121.217 42C121.27 41.84 121.324 41.6933 121.377 41.56C121.43 41.4 121.497 41.2533 121.577 41.12C121.79 40.6933 121.977 40.2667 122.137 39.84C122.297 39.4133 122.47 39 122.657 38.6C122.764 38.4933 122.817 38.3467 122.817 38.16H122.537C122.377 38.1333 122.19 38.1067 121.977 38.08C121.79 38.0267 121.577 37.9867 121.337 37.96C121.204 38.0667 121.044 38.1867 120.857 38.32C120.67 38.4267 120.524 38.6267 120.417 38.92C120.124 39.24 119.844 39.6 119.577 40C119.337 40.3733 119.044 40.7333 118.697 41.08C118.35 41.4267 118.004 41.7733 117.657 42.12C117.337 42.4667 116.977 42.8133 116.577 43.16C115.99 43.5867 115.444 43.8 114.937 43.8ZM119.737 35.48C119.87 35.4533 120.057 35.2933 120.297 35C120.564 34.68 120.83 34.3333 121.097 33.96C121.39 33.56 121.644 33.2 121.857 32.88C122.07 32.5333 122.19 32.32 122.217 32.24C122.217 32.2933 122.27 32.1733 122.377 31.88C122.484 31.5867 122.604 31.24 122.737 30.84C122.897 30.44 123.044 30.0667 123.177 29.72C123.31 29.3733 123.377 29.1867 123.377 29.16C123.03 28.92 122.75 28.8 122.537 28.8C122.324 28.8 122.07 28.8533 121.777 28.96C120.79 29.2267 119.977 29.68 119.337 30.32C118.697 30.9333 118.23 31.7333 117.937 32.72C117.724 33.6267 117.777 34.3867 118.097 35C118.444 35.5867 118.99 35.7467 119.737 35.48ZM138.588 43.56C138.428 43.5067 138.268 43.4667 138.108 43.44C137.948 43.3867 137.788 43.3333 137.628 43.28C137.495 43.2267 137.335 43.1867 137.148 43.16C136.881 42.7867 136.775 42.3333 136.828 41.8C136.881 41.24 137.001 40.6667 137.188 40.08C137.401 39.4933 137.601 38.92 137.788 38.36C138.001 37.8 138.121 37.32 138.148 36.92C138.121 36.8133 138.081 36.7867 138.028 36.84C137.975 36.8667 137.948 36.9067 137.948 36.96C137.761 37.1733 137.495 37.32 137.148 37.4C136.801 37.48 136.481 37.5467 136.188 37.6C135.681 37.68 135.175 37.7733 134.668 37.88C134.161 37.9867 133.668 38.1067 133.188 38.24C133.108 38.1867 133.015 38.12 132.908 38.04C132.828 37.96 132.748 37.8933 132.668 37.84C132.481 37.84 132.321 38.0133 132.188 38.36C132.055 38.7067 131.935 39.1333 131.828 39.64C131.721 40.12 131.615 40.5867 131.508 41.04C131.428 41.4667 131.348 41.7733 131.268 41.96C130.841 42.0133 130.535 42.0267 130.348 42C130.188 41.9733 129.881 41.8933 129.428 41.76C129.215 41.4667 129.095 41.1867 129.068 40.92C129.068 40.6533 129.108 40.36 129.188 40.04C129.321 39.4267 129.428 38.9333 129.508 38.56C129.615 38.1867 129.788 37.7067 130.028 37.12C130.161 36.8267 130.281 36.5467 130.388 36.28C130.521 35.9867 130.588 35.6667 130.588 35.32C130.801 35.0533 130.948 34.76 131.028 34.44C131.108 34.12 131.201 33.8 131.308 33.48C131.735 32.3867 132.068 31.5467 132.308 30.96C132.575 30.3467 132.761 29.8667 132.868 29.52C132.975 29.1733 133.041 28.8533 133.068 28.56C133.095 28.1867 133.321 28 133.748 28C134.015 28 134.295 28.1067 134.588 28.32C134.881 28.5067 135.108 28.7467 135.268 29.04C135.428 29.3333 135.441 29.64 135.308 29.96C135.228 30.1733 135.095 30.52 134.908 31C134.748 31.4533 134.561 31.96 134.348 32.52C134.161 33.0533 133.975 33.56 133.788 34.04C133.628 34.4933 133.495 34.8267 133.388 35.04C133.361 35.1467 133.308 35.24 133.228 35.32C133.148 35.3733 133.108 35.4667 133.108 35.6C133.295 35.7333 133.601 35.7867 134.028 35.76C134.481 35.7067 134.801 35.6267 134.988 35.52C135.388 35.52 135.775 35.52 136.148 35.52C136.548 35.52 136.948 35.52 137.348 35.52C137.748 35.76 138.055 36.12 138.268 36.6C138.455 36.0933 138.708 35.4267 139.028 34.6C139.348 33.7467 139.655 32.9067 139.948 32.08C140.241 31.2533 140.415 30.6267 140.468 30.2C140.521 29.96 140.628 29.7467 140.788 29.56C140.948 29.3733 141.121 29.2267 141.308 29.12C141.681 29.3067 142.041 29.4667 142.388 29.6C142.761 29.7067 143.001 30.0133 143.108 30.52C143.081 30.76 143.028 31 142.948 31.24C142.868 31.4533 142.788 31.6667 142.708 31.88C142.441 32.6533 142.108 33.5067 141.708 34.44C141.308 35.3467 140.935 36.28 140.588 37.24C140.268 38.1733 140.041 39.0533 139.908 39.88C139.908 39.96 139.841 40.2267 139.708 40.68C139.601 41.1333 139.481 41.5733 139.348 42C139.241 42.4267 139.175 42.6533 139.148 42.68C139.148 42.8667 139.095 43.04 138.988 43.2C138.881 43.3333 138.748 43.4533 138.588 43.56ZM151.923 43.48C151.016 43.72 150.376 43.84 150.003 43.84C149.629 43.84 149.229 43.6533 148.803 43.28C148.669 43.1467 148.589 43.0133 148.563 42.88C148.536 42.72 148.469 42.6267 148.363 42.6C148.336 42.4133 148.349 42.2667 148.403 42.16C148.483 42.0267 148.656 41.9067 148.923 41.8C149.323 42.04 149.829 42.1067 150.443 42C151.056 41.8933 151.656 41.6667 152.243 41.32C152.856 40.9467 153.336 40.5067 153.683 40C154.216 39.36 154.629 38.76 154.923 38.2C155.216 37.6133 155.376 37.0933 155.403 36.64C155.403 36.3733 155.363 36.1867 155.283 36.08C155.229 35.9467 155.096 35.7467 154.883 35.48C154.403 35.64 153.963 35.8267 153.563 36.04C153.189 36.2533 152.883 36.48 152.643 36.72C151.843 37.3867 151.216 37.9333 150.763 38.36C150.336 38.7867 149.963 39.2133 149.643 39.64C149.349 40.0667 148.976 40.64 148.523 41.36C148.309 41.6267 148.109 41.8267 147.923 41.96C147.763 42.0933 147.589 42.16 147.403 42.16C147.483 42.6933 147.296 43.0133 146.843 43.12C146.256 42.9867 145.829 42.8133 145.563 42.6C145.296 42.36 145.216 41.9067 145.323 41.24C145.429 40.8667 145.536 40.4267 145.643 39.92C145.749 39.3867 145.869 38.9467 146.003 38.6C146.643 36.8933 147.203 35.3733 147.683 34.04C148.189 32.7067 148.629 31.76 149.003 31.2L149.883 28.92C150.336 28.9467 150.683 29.04 150.923 29.2C151.163 29.3333 151.443 29.6667 151.763 30.2C151.763 30.3333 151.629 30.72 151.363 31.36C151.123 31.9733 150.829 32.68 150.483 33.48C150.163 34.28 149.856 35.0267 149.563 35.72C149.296 36.3867 149.109 36.8533 149.003 37.12C148.896 37.4133 148.976 37.36 149.243 36.96C149.536 36.56 150.043 36.0533 150.763 35.44C151.109 35.0933 151.536 34.7733 152.043 34.48C152.549 34.16 152.976 33.92 153.323 33.76C153.696 33.6 154.003 33.5067 154.243 33.48C154.483 33.4533 154.656 33.4267 154.763 33.4C155.429 33.4 155.963 33.5733 156.363 33.92C156.763 34.24 157.043 34.6133 157.203 35.04C157.389 35.4667 157.483 35.8133 157.483 36.08C157.563 36.5067 157.616 36.92 157.643 37.32C157.696 37.6933 157.669 38.0933 157.563 38.52C157.483 38.7333 157.336 39.0267 157.123 39.4C156.909 39.7733 156.656 40.16 156.363 40.56C156.096 40.9333 155.776 41.24 155.403 41.48C155.163 41.72 154.843 41.9733 154.443 42.24C154.043 42.5067 153.616 42.76 153.163 43C152.736 43.2133 152.323 43.3733 151.923 43.48ZM160.243 44.12C159.763 44.0667 159.363 43.92 159.043 43.68C158.749 43.4133 158.536 43.0267 158.403 42.52C158.403 42.0667 158.456 41.6533 158.563 41.28C158.696 40.88 158.803 40.4933 158.883 40.12C159.016 39.5067 159.203 38.8933 159.443 38.28C159.683 37.6667 159.896 37.0533 160.083 36.44C160.243 36.0667 160.376 35.7067 160.483 35.36C160.589 35.0133 160.696 34.6667 160.803 34.32C160.936 33.8933 161.069 33.48 161.203 33.08C161.336 32.68 161.469 32.28 161.603 31.88C161.709 31.5333 161.789 31.1733 161.843 30.8C161.923 30.4267 161.989 30.0533 162.043 29.68C162.336 29.36 162.656 29.2267 163.003 29.28C163.376 29.3333 163.829 29.64 164.363 30.2C164.496 30.52 164.563 30.8133 164.563 31.08C164.563 31.32 164.496 31.5733 164.363 31.84C164.256 32.08 164.109 32.44 163.923 32.92C163.763 33.4 163.589 33.88 163.403 34.36C163.243 34.8133 163.123 35.16 163.043 35.4C162.989 35.6933 162.843 36.1733 162.603 36.84C162.389 37.5067 162.163 38.2 161.923 38.92C161.683 39.6133 161.509 40.1733 161.403 40.6C161.243 41 161.123 41.3867 161.043 41.76C160.963 42.1333 160.883 42.6 160.803 43.16C160.856 43.4 160.816 43.6 160.683 43.76C160.576 43.8933 160.429 44.0133 160.243 44.12ZM175.576 43.92C175.389 44.0267 175.136 43.9867 174.816 43.8C174.522 43.6133 174.229 43.3333 173.936 42.96C173.749 42.64 173.616 42.2933 173.536 41.92C173.482 41.5467 173.456 41.0267 173.456 40.36C173.482 39.8267 173.456 39.48 173.376 39.32C173.322 39.16 173.176 39.1867 172.936 39.4C172.696 39.5867 172.282 39.9733 171.696 40.56C171.029 41.2267 170.389 41.7467 169.776 42.12C169.189 42.4933 168.709 42.6667 168.336 42.64C168.149 42.64 167.936 42.5467 167.696 42.36C167.482 42.1467 167.282 41.8933 167.096 41.6C166.909 41.28 166.749 40.96 166.616 40.64C166.456 40.0533 166.429 39.3067 166.536 38.4C166.669 37.4667 166.882 36.4933 167.176 35.48C167.469 34.4667 167.802 33.5067 168.176 32.6C168.576 31.6933 168.976 30.96 169.376 30.4C169.802 29.84 170.176 29.56 170.496 29.56C170.709 29.56 170.896 29.6667 171.056 29.88C171.242 30.0933 171.429 30.4267 171.616 30.88C171.722 31.0667 171.762 31.2267 171.736 31.36C171.736 31.4933 171.629 31.6533 171.416 31.84C171.176 32.16 170.896 32.64 170.576 33.28C170.282 33.92 169.989 34.6133 169.696 35.36C169.429 36.1067 169.189 36.8267 168.976 37.52C168.762 38.2133 168.616 38.7867 168.536 39.24C168.456 39.6667 168.469 39.88 168.576 39.88C168.949 39.88 169.389 39.7333 169.896 39.44C170.429 39.12 170.936 38.7333 171.416 38.28C171.976 37.72 172.469 37.1067 172.896 36.44C173.349 35.7733 173.802 35.0667 174.256 34.32C174.602 33.7867 174.962 33.2 175.336 32.56C175.736 31.92 175.989 31.4667 176.096 31.2C176.469 30.5067 176.749 30.04 176.936 29.8C177.122 29.5333 177.349 29.36 177.616 29.28C177.749 29.28 177.869 29.28 177.976 29.28C178.109 29.28 178.176 29.28 178.176 29.28C178.336 29.3067 178.522 29.4267 178.736 29.64C178.949 29.7467 179.069 29.8533 179.096 29.96C179.122 30.04 179.136 30.1467 179.136 30.28C179.029 30.5467 178.856 30.9467 178.616 31.48C178.402 31.9867 178.242 32.36 178.136 32.6C177.629 33.7467 177.122 34.88 176.616 36C176.136 37.0933 175.789 38.2133 175.576 39.36C175.522 39.7333 175.509 40.1733 175.536 40.68C175.589 41.16 175.669 41.5067 175.776 41.72C175.856 41.88 175.949 42.0667 176.056 42.28C176.189 42.4667 176.336 42.6267 176.496 42.76C176.736 42.92 176.776 43.0933 176.616 43.28C176.482 43.4667 176.296 43.6267 176.056 43.76C175.816 43.8667 175.656 43.92 175.576 43.92ZM175.056 27.32C174.229 27.4267 173.536 27.1867 172.976 26.6C172.416 26.0133 171.989 25.1467 171.696 24C171.642 23.7867 171.616 23.6 171.616 23.44C171.642 23.2533 171.696 23.0933 171.776 22.96C171.829 22.8533 171.936 22.7733 172.096 22.72C172.256 22.64 172.389 22.6267 172.496 22.68C172.869 22.8133 173.136 22.9867 173.296 23.2C173.482 23.3867 173.602 23.6267 173.656 23.92C173.709 24.0533 173.736 24.1867 173.736 24.32C173.762 24.4533 173.776 24.5067 173.776 24.48C173.909 24.9067 174.082 25.2 174.296 25.36C174.509 25.52 174.829 25.5067 175.256 25.32C175.709 25.1333 176.149 24.92 176.576 24.68C177.029 24.44 177.429 24.1467 177.776 23.8C178.069 23.5067 178.349 23.24 178.616 23C178.909 22.76 179.189 22.5067 179.456 22.24L179.496 22.2C179.602 22.12 179.736 22.0933 179.896 22.12C180.056 22.1467 180.149 22.1867 180.176 22.24C180.362 22.4267 180.456 22.6133 180.456 22.8C180.456 22.9867 180.456 23.1867 180.456 23.4L180.416 23.48C180.469 23.64 180.336 23.9467 180.016 24.4C179.722 24.8533 179.362 25.24 178.936 25.56C178.562 25.8533 178.162 26.12 177.736 26.36C177.309 26.6 176.869 26.8267 176.416 27.04C176.229 27.1467 176.029 27.2133 175.816 27.24C175.629 27.24 175.376 27.2667 175.056 27.32ZM190.823 52.96C190.716 52.96 190.583 52.96 190.423 52.96C190.263 52.9867 190.116 52.88 189.983 52.64C189.876 52.5067 189.809 52.3067 189.783 52.04C189.783 51.7733 189.849 51.2933 189.983 50.6C190.116 50.1467 190.223 49.6933 190.303 49.24C190.383 48.8133 190.423 48.4933 190.423 48.28C190.423 48.1733 190.449 47.96 190.503 47.64C190.583 47.3467 190.623 47.1333 190.623 47C190.756 46.7867 190.863 46.4933 190.943 46.12C191.023 45.7467 191.063 45.4133 191.063 45.12C191.063 44.8 191.223 44.5067 191.543 44.24C191.543 44.0267 191.583 43.76 191.663 43.44C191.769 43.12 191.823 42.9067 191.823 42.8C191.903 42.4267 192.076 41.7733 192.343 40.84C192.636 39.88 192.983 38.8 193.383 37.6C193.809 36.4 194.223 35.2267 194.623 34.08C195.023 32.9333 195.383 31.96 195.703 31.16C196.023 30.4133 196.236 29.7733 196.343 29.24C196.476 28.68 196.543 28.2667 196.543 28C196.543 27.8933 196.569 27.8133 196.623 27.76C196.676 27.68 196.796 27.5333 196.983 27.32C197.249 27.0533 197.476 26.9733 197.663 27.08C197.876 27.1867 198.129 27.3467 198.423 27.56C198.636 27.9067 198.783 28.2 198.863 28.44C198.969 28.68 198.969 29.0933 198.863 29.68C198.863 30.08 198.796 30.4267 198.663 30.72C198.529 31.0133 198.409 31.24 198.303 31.4C198.196 31.5333 198.169 31.5867 198.223 31.56C199.316 31.0533 200.276 30.7867 201.103 30.76C201.956 30.7067 202.663 30.8533 203.223 31.2C203.809 31.52 204.249 31.9733 204.543 32.56C204.836 33.1467 204.983 33.8267 204.983 34.6C204.983 34.92 204.916 35.3067 204.783 35.76C204.649 36.1867 204.476 36.5867 204.263 36.96C204.076 37.3067 203.903 37.56 203.743 37.72C203.636 37.72 203.529 37.8133 203.423 38C203.316 38.16 203.209 38.3467 203.103 38.56C202.889 38.8267 202.543 39.1333 202.063 39.48C201.609 39.8 201.156 40.0667 200.703 40.28C200.249 40.4667 199.916 40.52 199.703 40.44C199.703 40.44 199.663 40.4533 199.583 40.48C199.529 40.48 199.503 40.5467 199.503 40.68C199.503 40.7333 199.289 40.8533 198.863 41.04C198.436 41.2 197.943 41.36 197.383 41.52C196.823 41.6533 196.329 41.72 195.903 41.72C195.343 41.72 194.943 41.6133 194.703 41.4C194.649 41.4533 194.583 41.5333 194.503 41.64C194.449 41.7467 194.423 41.84 194.423 41.92C194.423 42.08 194.356 42.3867 194.223 42.84C194.116 43.2667 193.983 43.68 193.823 44.08C193.663 44.48 193.516 44.68 193.383 44.68C193.383 44.68 193.356 44.72 193.303 44.8C193.249 44.88 193.276 44.9867 193.383 45.12C193.383 45.12 193.369 45.2667 193.343 45.56C193.343 45.88 193.276 46.1467 193.143 46.36C193.143 46.5733 193.103 46.8933 193.023 47.32C192.943 47.7467 192.849 48.0667 192.743 48.28C192.743 48.6 192.689 48.9067 192.583 49.2C192.503 49.52 192.409 49.68 192.303 49.68C192.196 49.7067 192.129 49.8667 192.103 50.16C192.076 50.48 192.063 50.7067 192.063 50.84C192.036 51.5067 191.903 52.0267 191.663 52.4C191.423 52.7733 191.143 52.96 190.823 52.96ZM195.663 39.6C195.876 39.6 196.316 39.5067 196.983 39.32C197.649 39.1333 198.329 38.9067 199.023 38.64C199.743 38.3467 200.276 38.0533 200.623 37.76C201.316 37.1467 201.849 36.4533 202.223 35.68C202.623 34.88 202.596 34.12 202.143 33.4C201.929 33.0267 201.543 32.88 200.983 32.96C200.423 33.0133 199.809 33.2267 199.143 33.6C198.476 33.9733 197.849 34.44 197.263 35C196.943 35.3467 196.649 35.7733 196.383 36.28C196.116 36.7867 195.889 37.2933 195.703 37.8C195.543 38.3067 195.449 38.7333 195.423 39.08C195.396 39.4267 195.476 39.6 195.663 39.6ZM207.78 42.56C207.673 42.3467 207.54 42.1867 207.38 42.08C207.22 41.9467 207.14 41.8267 207.14 41.72C207.14 41.6133 207.127 41.5067 207.1 41.4C207.1 41.2667 207.047 41.1467 206.94 41.04C206.807 40.88 206.82 40.52 206.98 39.96C207.14 39.3733 207.407 38.6667 207.78 37.84C208.153 36.9867 208.593 36.0933 209.1 35.16C209.313 34.9467 209.527 34.6667 209.74 34.32C209.953 33.9733 210.113 33.7467 210.22 33.64C210.22 33.5333 210.26 33.44 210.34 33.36C210.42 33.2533 210.513 33.2 210.62 33.2V32.96C210.62 32.8267 210.74 32.6 210.98 32.28C211.247 31.96 211.567 31.6133 211.94 31.24C212.313 30.84 212.7 30.4667 213.1 30.12C213.5 29.7467 213.833 29.48 214.1 29.32C214.66 28.9467 215.233 28.72 215.82 28.64C216.433 28.56 216.953 28.6933 217.38 29.04C217.46 29.12 217.593 29.2533 217.78 29.44C217.967 29.6267 218.18 29.84 218.42 30.08C218.687 30.2933 218.953 30.52 219.22 30.76L220.7 32.08L219.98 34.08C219.633 35.1467 219.54 36.08 219.7 36.88C219.887 37.68 220.153 38.3733 220.5 38.96C220.633 39.2533 220.9 39.5333 221.3 39.8C221.727 40.0667 222.127 40.2267 222.5 40.28C222.713 40.3067 222.913 40.3867 223.1 40.52C223.287 40.6533 223.38 40.8667 223.38 41.16C223.38 41.4267 223.327 41.64 223.22 41.8C223.113 41.96 222.927 42.0667 222.66 42.12C221.78 42.2267 220.953 42.0133 220.18 41.48C219.433 40.9467 218.74 40.0667 218.1 38.84C217.993 38.68 217.847 38.3867 217.66 37.96C217.5 37.5067 217.407 37.2133 217.38 37.08C217.273 37.2133 217.073 37.4667 216.78 37.84C216.487 38.1867 216.26 38.44 216.1 38.6C214.207 40.52 212.567 41.8133 211.18 42.48C209.82 43.12 208.687 43.1467 207.78 42.56ZM209.22 40.32C209.22 40.5067 209.5 40.5067 210.06 40.32C210.647 40.1067 211.273 39.7333 211.94 39.2C212.847 38.4267 213.753 37.5733 214.66 36.64C215.593 35.7067 216.34 34.84 216.9 34.04L217.78 32.6C217.513 31.9867 217.22 31.5733 216.9 31.36C216.607 31.12 216.353 31 216.14 31C215.793 31 215.273 31.32 214.58 31.96C213.913 32.6 213.193 33.4533 212.42 34.52C211.647 35.5867 210.913 36.76 210.22 38.04C209.953 38.5733 209.713 39.0933 209.5 39.6C209.313 40.08 209.22 40.32 209.22 40.32ZM234.521 43.92C234.334 44.0267 234.081 43.9867 233.761 43.8C233.468 43.6133 233.174 43.3333 232.881 42.96C232.694 42.64 232.561 42.2933 232.481 41.92C232.428 41.5467 232.401 41.0267 232.401 40.36C232.428 39.8267 232.401 39.48 232.321 39.32C232.268 39.16 232.121 39.1867 231.881 39.4C231.641 39.5867 231.228 39.9733 230.641 40.56C229.974 41.2267 229.334 41.7467 228.721 42.12C228.134 42.4933 227.654 42.6667 227.281 42.64C227.094 42.64 226.881 42.5467 226.641 42.36C226.428 42.1467 226.228 41.8933 226.041 41.6C225.854 41.28 225.694 40.96 225.561 40.64C225.401 40.0533 225.374 39.3067 225.481 38.4C225.614 37.4667 225.828 36.4933 226.121 35.48C226.414 34.4667 226.748 33.5067 227.121 32.6C227.521 31.6933 227.921 30.96 228.321 30.4C228.748 29.84 229.121 29.56 229.441 29.56C229.654 29.56 229.841 29.6667 230.001 29.88C230.188 30.0933 230.374 30.4267 230.561 30.88C230.668 31.0667 230.708 31.2267 230.681 31.36C230.681 31.4933 230.574 31.6533 230.361 31.84C230.121 32.16 229.841 32.64 229.521 33.28C229.228 33.92 228.934 34.6133 228.641 35.36C228.374 36.1067 228.134 36.8267 227.921 37.52C227.708 38.2133 227.561 38.7867 227.481 39.24C227.401 39.6667 227.414 39.88 227.521 39.88C227.894 39.88 228.334 39.7333 228.841 39.44C229.374 39.12 229.881 38.7333 230.361 38.28C230.921 37.72 231.414 37.1067 231.841 36.44C232.294 35.7733 232.748 35.0667 233.201 34.32C233.548 33.7867 233.908 33.2 234.281 32.56C234.681 31.92 234.934 31.4667 235.041 31.2C235.414 30.5067 235.694 30.04 235.881 29.8C236.068 29.5333 236.294 29.36 236.561 29.28C236.694 29.28 236.814 29.28 236.921 29.28C237.054 29.28 237.121 29.28 237.121 29.28C237.281 29.3067 237.468 29.4267 237.681 29.64C237.894 29.7467 238.014 29.8533 238.041 29.96C238.068 30.04 238.081 30.1467 238.081 30.28C237.974 30.5467 237.801 30.9467 237.561 31.48C237.348 31.9867 237.188 32.36 237.081 32.6C236.574 33.7467 236.068 34.88 235.561 36C235.081 37.0933 234.734 38.2133 234.521 39.36C234.468 39.7333 234.454 40.1733 234.481 40.68C234.534 41.16 234.614 41.5067 234.721 41.72C234.801 41.88 234.894 42.0667 235.001 42.28C235.134 42.4667 235.281 42.6267 235.441 42.76C235.681 42.92 235.721 43.0933 235.561 43.28C235.428 43.4667 235.241 43.6267 235.001 43.76C234.761 43.8667 234.601 43.92 234.521 43.92ZM234.001 27.32C233.174 27.4267 232.481 27.1867 231.921 26.6C231.361 26.0133 230.934 25.1467 230.641 24C230.588 23.7867 230.561 23.6 230.561 23.44C230.588 23.2533 230.641 23.0933 230.721 22.96C230.774 22.8533 230.881 22.7733 231.041 22.72C231.201 22.64 231.334 22.6267 231.441 22.68C231.814 22.8133 232.081 22.9867 232.241 23.2C232.428 23.3867 232.548 23.6267 232.601 23.92C232.654 24.0533 232.681 24.1867 232.681 24.32C232.708 24.4533 232.721 24.5067 232.721 24.48C232.854 24.9067 233.028 25.2 233.241 25.36C233.454 25.52 233.774 25.5067 234.201 25.32C234.654 25.1333 235.094 24.92 235.521 24.68C235.974 24.44 236.374 24.1467 236.721 23.8C237.014 23.5067 237.294 23.24 237.561 23C237.854 22.76 238.134 22.5067 238.401 22.24L238.441 22.2C238.548 22.12 238.681 22.0933 238.841 22.12C239.001 22.1467 239.094 22.1867 239.121 22.24C239.308 22.4267 239.401 22.6133 239.401 22.8C239.401 22.9867 239.401 23.1867 239.401 23.4L239.361 23.48C239.414 23.64 239.281 23.9467 238.961 24.4C238.668 24.8533 238.308 25.24 237.881 25.56C237.508 25.8533 237.108 26.12 236.681 26.36C236.254 26.6 235.814 26.8267 235.361 27.04C235.174 27.1467 234.974 27.2133 234.761 27.24C234.574 27.24 234.321 27.2667 234.001 27.32Z" fill="#795338"/>
<path d="M50.78 24.0563L51.2793 24.03C51.2651 23.7594 51.0378 23.5493 50.7669 23.5565C50.4959 23.5636 50.28 23.7853 50.28 24.0563H50.78ZM2.92664 36.1293L2.50935 36.4047C2.51705 36.4164 2.52523 36.4277 2.53387 36.4387L2.92664 36.1293ZM12.015 18.7986L11.8783 19.2795L12.015 18.7986ZM18.2046 28.5226L18.7023 28.5704L18.7023 28.5704L18.2046 28.5226ZM36.7955 41.3681C37.066 41.3125 37.2402 41.0481 37.1845 40.7777C37.1289 40.5072 36.8645 40.333 36.5941 40.3886L36.7955 41.3681ZM52.2978 28.2761C52.1184 28.486 52.1431 28.8016 52.3529 28.9811C52.5628 29.1605 52.8784 29.1358 53.0579 28.9259L52.2978 28.2761ZM55.185 39.5797L54.9799 39.1238L54.9799 39.1238L55.185 39.5797ZM17.3551 49.7845C17.0989 49.6814 16.8077 49.8055 16.7046 50.0617C16.6015 50.3179 16.7256 50.6091 16.9818 50.7122L17.3551 49.7845ZM27.2559 35.0366L27.0721 35.5016L27.0721 35.5016L27.2559 35.0366ZM33.4051 38.6298L33.5551 39.1068L33.4051 38.6298ZM33.3043 33.6485L33.3017 34.1485L33.3017 34.1485L33.3043 33.6485ZM44.4992 1.99403L44.992 1.90971C44.9501 1.66478 44.7347 1.48779 44.4863 1.49419C44.2379 1.5006 44.0318 1.68846 44.0026 1.93522L44.4992 1.99403ZM40.404 36.5715L39.9074 36.5127C39.8843 36.7082 39.978 36.8991 40.1469 37.0003C40.3157 37.1016 40.5283 37.0943 40.6898 36.9818L40.404 36.5715ZM40.4678 36.527L40.7536 36.9373L40.7536 36.9373L40.4678 36.527ZM47.6691 28.418L48.1313 28.6086L48.1313 28.6086L47.6691 28.418ZM53.1939 3.82222L53.6856 3.91271C53.6945 3.86435 53.6962 3.81495 53.6907 3.76609L53.1939 3.82222ZM47.5132 5.64949L47.6069 5.15836L47.5132 5.64949ZM47.623 3.91172L47.4614 4.38488L47.4614 4.38488L47.623 3.91172ZM48.9862 1.03954L48.9283 1.53618L48.9283 1.53618L48.9862 1.03954ZM48.8144 2.04939C48.5389 2.03103 48.3006 2.23952 48.2823 2.51505C48.2639 2.79058 48.4724 3.02882 48.748 3.04717L48.8144 2.04939ZM56.5872 56.0606L56.0929 55.9854L56.5872 56.0606ZM29.3535 60.2689L29.4288 59.7746L29.3535 60.2689ZM4.60352 48.1423L4.1092 48.0672L4.60352 48.1423ZM48.2519 47.8442C47.998 47.7356 47.7041 47.8534 47.5956 48.1073C47.487 48.3612 47.6048 48.6551 47.8587 48.7636L48.2519 47.8442ZM8.80275 45.9612C9.07889 45.9612 9.30275 45.7373 9.30275 45.4612C9.30275 45.185 9.07889 44.9612 8.80275 44.9612L8.80275 45.9612ZM42.1752 21.5687C42.4514 21.5709 42.677 21.3488 42.6792 21.0727C42.6813 20.7965 42.4593 20.5709 42.1831 20.5687L42.1752 21.5687ZM39.1691 20.6609C38.8936 20.679 38.6849 20.917 38.703 21.1926C38.7211 21.4681 38.9592 21.6768 39.2347 21.6587L39.1691 20.6609ZM50.3178 24.1153C50.3956 24.3802 50.6735 24.5319 50.9385 24.454C51.2034 24.3761 51.3551 24.0983 51.2772 23.8333L50.3178 24.1153ZM49.7219 22.0193C49.4848 21.8778 49.1779 21.9552 49.0363 22.1923C48.8947 22.4293 48.9721 22.7363 49.2092 22.8779L49.7219 22.0193ZM29.9853 10.2868C30.1571 10.0706 30.1211 9.7561 29.905 9.58428C29.6888 9.41245 29.3743 9.44841 29.2024 9.66458L29.9853 10.2868ZM27.2575 19.7376C27.3185 20.0069 27.5863 20.1758 27.8556 20.1148C28.1249 20.0539 28.2938 19.7861 28.2329 19.5168L27.2575 19.7376ZM18.3926 17.3697C18.132 17.4611 17.9947 17.7464 18.0861 18.007C18.1774 18.2676 18.4627 18.4048 18.7233 18.3135L18.3926 17.3697ZM27.4173 19.9997C27.6386 20.1649 27.9519 20.1194 28.1171 19.8981C28.2823 19.6768 28.2368 19.3635 28.0155 19.1983L27.4173 19.9997ZM22.7927 11.0451C22.5484 10.9163 22.246 11.0099 22.1172 11.2542C21.9884 11.4985 22.082 11.8009 22.3263 11.9297L22.7927 11.0451ZM27.2338 19.6284C27.2745 19.9015 27.5289 20.0899 27.802 20.0492C28.0752 20.0085 28.2636 19.7541 28.2229 19.481L27.2338 19.6284ZM23.0424 11.4594C23.0207 11.1841 22.78 10.9785 22.5047 11.0001C22.2294 11.0218 22.0238 11.2625 22.0454 11.5378L23.0424 11.4594ZM27.4468 19.9893C27.6807 20.1362 27.9893 20.0656 28.1362 19.8318C28.283 19.5979 28.2125 19.2893 27.9786 19.1425L27.4468 19.9893ZM25.4287 29.3665C25.5084 29.6308 25.7874 29.7805 26.0518 29.7008C26.3162 29.621 26.4658 29.3421 26.3861 29.0777L25.4287 29.3665ZM28.1684 19.8534C28.3246 19.6257 28.2666 19.3145 28.0389 19.1583C27.8112 19.0021 27.4999 19.06 27.3437 19.2877L28.1684 19.8534ZM18.8886 17.4515C18.6803 17.2702 18.3645 17.2922 18.1832 17.5005C18.0019 17.7088 18.0239 18.0246 18.2322 18.2059L18.8886 17.4515ZM27.8485 20.069C28.1152 19.9974 28.2734 19.7232 28.2018 19.4565C28.1302 19.1898 27.8559 19.0316 27.5892 19.1032L27.8485 20.069ZM19.8774 24.7165C19.6029 24.7457 19.404 24.992 19.4332 25.2666C19.4624 25.5412 19.7087 25.7401 19.9833 25.7108L19.8774 24.7165ZM28.1459 19.8829C28.2846 19.6442 28.2036 19.3382 27.9648 19.1994C27.7261 19.0606 27.4201 19.1417 27.2813 19.3804L28.1459 19.8829ZM19.4713 24.9769C19.3495 25.2247 19.4516 25.5243 19.6994 25.6462C19.9472 25.768 20.2469 25.6659 20.3687 25.4181L19.4713 24.9769ZM27.7935 20.1073C28.0651 20.0574 28.2449 19.7968 28.195 19.5252C28.1451 19.2536 27.8845 19.0738 27.6129 19.1237L27.7935 20.1073ZM30.0603 9.82896C29.9806 9.56458 29.7016 9.4149 29.4372 9.49465C29.1728 9.57439 29.0232 9.85336 29.1029 10.1177L30.0603 9.82896ZM27.3207 19.342C27.1644 19.5697 27.2224 19.8809 27.4501 20.0371C27.6778 20.1934 27.9891 20.1354 28.1453 19.9077L27.3207 19.342ZM36.6004 21.7439C36.8087 21.9252 37.1245 21.9032 37.3058 21.6949C37.4871 21.4866 37.4651 21.1708 37.2568 20.9895L36.6004 21.7439ZM27.6405 19.1264C27.3738 19.198 27.2156 19.4722 27.2872 19.7389C27.3588 20.0056 27.6331 20.1638 27.8998 20.0922L27.6405 19.1264ZM35.6116 14.4789C35.8861 14.4497 36.085 14.2034 36.0558 13.9288C36.0266 13.6542 35.7803 13.4553 35.5057 13.4846L35.6116 14.4789ZM27.3431 19.3125C27.2044 19.5512 27.2854 19.8572 27.5242 19.996C27.7629 20.1348 28.0689 20.0537 28.2077 19.815L27.3431 19.3125ZM36.0177 14.2185C36.1395 13.9707 36.0374 13.6711 35.7896 13.5492C35.5418 13.4274 35.2421 13.5295 35.1203 13.7773L36.0177 14.2185ZM27.6954 19.0881C27.4239 19.138 27.2441 19.3986 27.294 19.6702C27.3439 19.9418 27.6045 20.1216 27.8761 20.0717L27.6954 19.0881ZM25.5037 28.9086C25.3319 29.1248 25.3679 29.4393 25.584 29.6111C25.8002 29.783 26.1148 29.747 26.2866 29.5308L25.5037 28.9086ZM28.2315 19.4578C28.1705 19.1885 27.9027 19.0196 27.6334 19.0806C27.3641 19.1416 27.1952 19.4093 27.2561 19.6786L28.2315 19.4578ZM37.0964 21.8257C37.357 21.7343 37.4943 21.449 37.4029 21.1884C37.3116 20.9278 37.0263 20.7906 36.7657 20.8819L37.0964 21.8257ZM28.0717 19.1957C27.8504 19.0305 27.5371 19.076 27.3719 19.2973C27.2067 19.5186 27.2522 19.8319 27.4735 19.9971L28.0717 19.1957ZM32.6963 28.1503C32.9406 28.2791 33.243 28.1855 33.3718 27.9412C33.5006 27.6969 33.407 27.3945 33.1627 27.2657L32.6963 28.1503ZM28.2552 19.567C28.2145 19.2939 27.9601 19.1055 27.687 19.1462C27.4138 19.1869 27.2254 19.4413 27.2661 19.7144L28.2552 19.567ZM32.4466 27.736C32.4683 28.0113 32.709 28.2169 32.9843 28.1953C33.2596 28.1737 33.4652 27.933 33.4436 27.6577L32.4466 27.736ZM28.0422 19.2061C27.8083 19.0592 27.4997 19.1298 27.3528 19.3636C27.206 19.5975 27.2765 19.9061 27.5104 20.053L28.0422 19.2061ZM50.78 24.0563H50.28C50.28 28.4454 48.1289 32.308 44.6552 35.4169C41.1783 38.5287 36.3985 40.8616 31.2264 42.1649C20.8417 44.7815 9.13324 43.2001 3.31941 35.8199L2.92664 36.1293L2.53387 36.4387C8.70734 44.2754 20.9255 45.7916 31.4707 43.1345C36.7636 41.8009 41.6995 39.4042 45.3221 36.162C48.9479 32.917 51.28 28.8013 51.28 24.0563H50.78ZM2.92664 36.1293L3.34392 35.8538C0.573481 31.6569 1.2202 27.089 3.33857 23.7625C5.48438 20.3929 9.01 18.4643 11.8783 19.2795L12.015 18.7986L12.1517 18.3176C8.67384 17.3292 4.75637 19.6745 2.49508 23.2254C0.206369 26.8194 -0.518004 31.8186 2.50935 36.4047L2.92664 36.1293ZM12.015 18.7986L11.8783 19.2795C14.2474 19.9528 15.7826 21.2818 16.6891 22.9063C17.6019 24.5419 17.8954 26.5117 17.7069 28.4748L18.2046 28.5226L18.7023 28.5704C18.9054 26.4557 18.5963 24.2717 17.5623 22.419C16.5222 20.555 14.7668 19.0609 12.1517 18.3176L12.015 18.7986ZM18.2046 28.5226L17.7069 28.4748C17.2938 32.7738 18.9901 36.6533 22.3611 39.1261C25.7251 41.5938 30.6996 42.6219 36.7955 41.3681L36.6948 40.8784L36.5941 40.3886C30.7027 41.6003 26.0352 40.5811 22.9526 38.3198C19.8768 36.0635 18.3216 32.5324 18.7023 28.5704L18.2046 28.5226ZM52.6779 28.601L53.0579 28.9259C54.755 26.941 56.1307 26.5498 57.0765 26.8166C58.0528 27.0921 58.871 28.1445 59.2638 29.7126C60.0463 32.836 58.9658 37.3303 54.9799 39.1238L55.185 39.5797L55.3902 40.0357C59.9443 37.9866 61.0967 32.9138 60.2338 29.4696C59.804 27.7538 58.83 26.2723 57.348 25.8542C55.8357 25.4275 54.0872 26.1833 52.2978 28.2761L52.6779 28.601ZM50.78 24.0563L50.2807 24.0825C50.7447 32.9059 49.2506 39.4856 46.4318 44.0749L46.8578 44.3366L47.2839 44.5983C50.2428 39.7809 51.7499 32.9793 51.2793 24.03L50.78 24.0563ZM46.8578 44.3366L46.4318 44.0749C46.2895 44.3065 46.1439 44.533 45.9951 44.7545L46.41 45.0334L46.8249 45.3124C46.9816 45.0794 47.1346 44.8414 47.2839 44.5983L46.8578 44.3366ZM46.41 45.0334L45.9951 44.7545C40.2311 53.3282 29.3234 54.5997 17.3551 49.7845L17.1685 50.2484L16.9818 50.7122C29.1455 55.606 40.675 54.4604 46.8249 45.3124L46.41 45.0334ZM55.185 39.5797L54.9799 39.1238C54.1697 39.4883 53.3623 39.8121 52.5658 40.1361C51.7734 40.4585 50.9915 40.7812 50.2532 41.137C48.7768 41.8486 47.4311 42.7124 46.4549 44.0405L46.8578 44.3366L47.2607 44.6328C48.0966 43.4955 49.2736 42.7192 50.6874 42.0379C51.3941 41.6972 52.1492 41.3852 52.9426 41.0624C53.7319 40.7413 54.5594 40.4095 55.3902 40.0357L55.185 39.5797ZM46.8578 44.3366L46.4549 44.0405C46.2819 44.2758 46.1211 44.5251 45.9734 44.7898L46.41 45.0334L46.8466 45.277C46.9738 45.0491 47.1121 44.8349 47.2607 44.6328L46.8578 44.3366ZM27.2559 35.0366L27.4397 34.5716C26.9797 34.3897 26.5464 34.2945 26.1883 34.3749C25.9935 34.4186 25.8058 34.5186 25.6711 34.6952C25.5392 34.8682 25.4945 35.0673 25.493 35.2462C25.4903 35.5846 25.6394 35.9435 25.8331 36.2652C26.0352 36.6011 26.3223 36.9563 26.6737 37.2999C28.0628 38.6585 30.6584 40.0177 33.5551 39.1068L33.4051 38.6298L33.2551 38.1528C30.8294 38.9156 28.6019 37.787 27.3729 36.585C27.0697 36.2885 26.84 35.999 26.6899 35.7495C26.5312 35.4859 26.4925 35.3187 26.493 35.2542C26.4932 35.2317 26.4978 35.2602 26.4664 35.3014C26.4322 35.3462 26.3962 35.3531 26.4074 35.3506C26.4613 35.3385 26.6579 35.3378 27.0721 35.5016L27.2559 35.0366ZM33.4051 38.6298L33.5551 39.1068C34.7072 38.7445 35.5047 38.2143 35.9735 37.5706C36.4502 36.9162 36.5561 36.1851 36.3917 35.5123C36.0736 34.2104 34.7569 33.156 33.3069 33.1485L33.3043 33.6485L33.3017 34.1485C34.3057 34.1537 35.2141 34.906 35.4203 35.7497C35.518 36.1496 35.4608 36.5761 35.1652 36.9819C34.8618 37.3985 34.2777 37.8313 33.2551 38.1528L33.4051 38.6298ZM33.3043 33.6485L33.3069 33.1485C32.4036 33.1439 31.8 33.3708 31.3453 33.7229C31.127 33.8918 30.9577 34.0784 30.8168 34.2475C30.6612 34.4342 30.573 34.5558 30.4481 34.6942C30.2424 34.9222 30.0452 35.0675 29.6759 35.0986C29.2593 35.1336 28.5866 35.0249 27.4397 34.5716L27.2559 35.0366L27.0721 35.5016C28.2622 35.972 29.1096 36.1497 29.7596 36.0951C30.457 36.0365 30.8729 35.7162 31.1906 35.3641C31.3273 35.2126 31.4784 35.0155 31.585 34.8877C31.7063 34.7422 31.8221 34.6184 31.9574 34.5136C32.2098 34.3182 32.587 34.1449 33.3017 34.1485L33.3043 33.6485ZM44.4992 1.99403L44.0026 1.93522L39.9074 36.5127L40.404 36.5715L40.9005 36.6303L44.9957 2.05283L44.4992 1.99403ZM40.404 36.5715L40.6898 36.9818L40.7536 36.9373L40.4678 36.527L40.182 36.1168L40.1182 36.1613L40.404 36.5715ZM40.4678 36.527L40.7536 36.9373C43.142 35.2733 46.2832 33.0919 48.1313 28.6086L47.6691 28.418L47.2068 28.2274C45.4787 32.4195 42.5606 34.4596 40.182 36.1168L40.4678 36.527ZM47.6691 28.418L48.1313 28.6086C48.5996 27.4727 49.1784 25.3507 49.7796 22.8452C50.3839 20.3268 51.0194 17.3832 51.5977 14.5799C52.1761 11.7761 52.6981 9.1095 53.0754 7.14412C53.264 6.16135 53.4165 5.35373 53.5219 4.7917C53.5746 4.51069 53.6155 4.29106 53.6432 4.14163C53.6571 4.06691 53.6677 4.00974 53.6748 3.97122C53.6784 3.95196 53.6811 3.93737 53.6829 3.92757C53.6838 3.92267 53.6845 3.91897 53.6849 3.91649C53.6851 3.91525 53.6853 3.91431 53.6854 3.91368C53.6855 3.91336 53.6855 3.91312 53.6856 3.91296C53.6856 3.9128 53.6856 3.91271 53.1939 3.82222C52.7021 3.73173 52.7021 3.7318 52.7021 3.73194C52.7021 3.73209 52.702 3.73231 52.702 3.73261C52.7019 3.73321 52.7017 3.73411 52.7015 3.73532C52.701 3.73774 52.7004 3.74138 52.6995 3.74622C52.6977 3.75589 52.695 3.77036 52.6915 3.78949C52.6844 3.82775 52.6739 3.88465 52.66 3.95909C52.6324 4.10798 52.5916 4.32702 52.539 4.60742C52.4339 5.16823 52.2816 5.97443 52.0933 6.9556C51.7166 8.91809 51.1956 11.5799 50.6183 14.3779C50.0409 17.1765 49.4079 20.1083 48.8072 22.6119C48.2034 25.1284 47.6406 27.1751 47.2068 28.2274L47.6691 28.418ZM44.4992 1.99403C44.0063 2.07834 44.0063 2.07853 44.0064 2.07873C44.0064 2.07881 44.0064 2.07903 44.0065 2.07919C44.0065 2.07952 44.0066 2.07991 44.0067 2.08034C44.0068 2.08119 44.007 2.08225 44.0072 2.0835C44.0077 2.08599 44.0082 2.08925 44.009 2.09325C44.0104 2.10126 44.0125 2.11226 44.0152 2.12605C44.0206 2.15364 44.0286 2.19248 44.0395 2.2411C44.0613 2.33827 44.0948 2.47502 44.143 2.63954C44.2391 2.96724 44.3953 3.412 44.6366 3.87577C45.1137 4.79274 45.9684 5.86361 47.4194 6.14062L47.5132 5.64949L47.6069 5.15836C46.5887 4.96397 45.9363 4.20711 45.5237 3.41419C45.3202 3.02303 45.1859 2.64231 45.1027 2.35827C45.0612 2.21691 45.0329 2.10123 45.0153 2.02242C45.0065 1.98306 45.0003 1.95303 44.9965 1.93375C44.9947 1.92411 44.9934 1.91717 44.9926 1.9131C44.9922 1.91106 44.992 1.90975 44.9919 1.90918C44.9918 1.90889 44.9918 1.90879 44.9918 1.90888C44.9919 1.90892 44.9919 1.90901 44.9919 1.90915C44.9919 1.90922 44.9919 1.90936 44.9919 1.9094C44.992 1.90955 44.992 1.90971 44.4992 1.99403ZM47.5132 5.64949L47.4194 6.14062C49.6772 6.57163 51.2271 6.09435 52.2244 5.46489C52.7173 5.15379 53.0641 4.81261 53.2899 4.54502C53.4029 4.41116 53.4859 4.29525 53.5423 4.20992C53.5706 4.16722 53.5922 4.13207 53.6076 4.10604C53.6152 4.09302 53.6214 4.08226 53.626 4.07397C53.6284 4.06982 53.6303 4.06629 53.6319 4.06339C53.6327 4.06194 53.6334 4.06065 53.634 4.05953C53.6343 4.05896 53.6346 4.05844 53.6348 4.05796C53.6349 4.05772 53.6351 4.05739 53.6352 4.05727C53.6354 4.05695 53.6355 4.05664 53.1939 3.82222C52.7522 3.5878 52.7524 3.58751 52.7525 3.58723C52.7526 3.58715 52.7527 3.58688 52.7528 3.58672C52.753 3.5864 52.7531 3.58612 52.7533 3.58588C52.7535 3.58539 52.7537 3.58506 52.7538 3.58488C52.754 3.58452 52.7539 3.58476 52.7534 3.58559C52.7525 3.58725 52.7502 3.59124 52.7466 3.59739C52.7393 3.60968 52.7266 3.63054 52.7081 3.65854C52.671 3.7146 52.6111 3.79886 52.5256 3.9001C52.3547 4.10271 52.0833 4.37145 51.6907 4.61924C50.917 5.10756 49.6266 5.54391 47.6069 5.15836L47.5132 5.64949ZM47.623 3.91172L47.7847 3.43857C46.934 3.14799 46.7002 2.53963 46.7883 2.19813C46.8662 1.8964 47.3396 1.35108 48.9283 1.53618L48.9862 1.03954L49.044 0.542897C47.3054 0.340323 46.0937 0.888286 45.8201 1.94816C45.5567 2.96827 46.3049 3.98983 47.4614 4.38488L47.623 3.91172ZM48.9862 1.03954L48.9283 1.53618C50.8001 1.75426 51.7299 2.40335 52.1933 2.93262C52.4289 3.20173 52.5564 3.45376 52.6244 3.63106C52.6584 3.71991 52.6776 3.79007 52.6877 3.83405C52.6928 3.85602 52.6956 3.87135 52.6969 3.87909C52.6976 3.88295 52.6978 3.88491 52.6978 3.88483C52.6978 3.88479 52.6977 3.88424 52.6976 3.88317C52.6975 3.88263 52.6975 3.88196 52.6974 3.88116C52.6973 3.88076 52.6973 3.88033 52.6972 3.87986C52.6972 3.87962 52.6971 3.87925 52.6971 3.87913C52.6971 3.87875 52.697 3.87835 53.1939 3.82222C53.6907 3.76609 53.6907 3.76568 53.6906 3.76526C53.6906 3.7651 53.6905 3.76467 53.6905 3.76437C53.6904 3.76376 53.6904 3.76312 53.6903 3.76243C53.6901 3.76107 53.6899 3.75956 53.6897 3.7579C53.6893 3.75459 53.6888 3.7507 53.6882 3.74625C53.6869 3.73736 53.6852 3.72621 53.683 3.71295C53.6785 3.68644 53.6719 3.65141 53.6621 3.60896C53.6425 3.52411 53.6103 3.40918 53.5581 3.27307C53.4536 3.00045 53.2688 2.64299 52.9457 2.27389C52.2915 1.52673 51.1175 0.78448 49.044 0.542897L48.9862 1.03954ZM47.623 3.91172L47.4614 4.38488C48.1423 4.61746 48.8003 4.65582 49.3538 4.57153C49.8908 4.48974 50.3857 4.28249 50.6862 3.96282C50.8401 3.79904 50.9732 3.5708 50.9741 3.29365C50.975 3.00439 50.832 2.76436 50.6341 2.59165C50.2714 2.27503 49.644 2.10465 48.8144 2.04939L48.7812 2.54828L48.748 3.04717C49.5365 3.0997 49.8755 3.25682 49.9766 3.34503C50.0106 3.37474 49.9739 3.35645 49.9741 3.29047C49.9742 3.23659 49.9996 3.23317 49.9575 3.27794C49.866 3.37535 49.6156 3.52013 49.2032 3.58292C48.8074 3.64321 48.312 3.61869 47.7847 3.43857L47.623 3.91172ZM56.5872 56.0606L56.0929 55.9854C55.9563 56.8838 55.2323 57.7411 53.8269 58.4869C52.4318 59.2273 50.4557 59.8057 48.0199 60.1821C43.1543 60.934 36.5703 60.8624 29.4288 59.7746L29.3535 60.2689L29.2782 60.7632C36.4917 61.862 43.1815 61.9416 48.1726 61.1704C50.6651 60.7852 52.763 60.1835 54.2956 59.3703C55.8179 58.5625 56.8752 57.4927 57.0815 56.1357L56.5872 56.0606ZM29.3535 60.2689L29.4288 59.7746C22.2874 58.6868 15.9801 56.7948 11.5582 54.6282C9.34454 53.5436 7.62983 52.4029 6.51789 51.2807C5.39771 50.1501 4.96123 49.116 5.09784 48.2175L4.60352 48.1423L4.1092 48.0672C3.90289 49.4241 4.59434 50.7601 5.80753 51.9845C7.02897 53.2173 8.85308 54.4164 11.1183 55.5262C15.6541 57.7486 22.0648 59.6645 29.2782 60.7632L29.3535 60.2689ZM48.0553 48.3039L47.8587 48.7636C50.6172 49.9431 52.7924 51.2213 54.2214 52.495C55.668 53.7843 56.2471 54.9713 56.0929 55.9854L56.5872 56.0606L57.0815 56.1357C57.3138 54.6077 56.4108 53.1068 54.8868 51.7485C53.3451 50.3745 51.0611 49.0454 48.2519 47.8442L48.0553 48.3039ZM4.60352 48.1423L5.09784 48.2175C5.17347 47.7201 5.57193 47.1573 6.26265 46.7039C6.94204 46.258 7.84451 45.9612 8.80275 45.9612L8.80275 45.4612L8.80275 44.9612C7.64557 44.9612 6.55299 45.3172 5.71391 45.8679C4.88616 46.4113 4.24271 47.1891 4.1092 48.0672L4.60352 48.1423ZM42.1792 21.0687L42.1831 20.5687C41.2264 20.5612 40.2176 20.592 39.1691 20.6609L39.2019 21.1598L39.2347 21.6587C40.261 21.5913 41.2452 21.5614 42.1752 21.5687L42.1792 21.0687ZM50.7975 23.9743L51.2772 23.8333C51.0531 23.0708 50.4833 22.474 49.7219 22.0193L49.4656 22.4486L49.2092 22.8779C49.838 23.2534 50.1881 23.6739 50.3178 24.1153L50.7975 23.9743ZM29.5938 9.97569L29.2024 9.66458C29.1997 9.66798 29.1968 9.6717 29.1938 9.67538L29.5855 9.98623L29.9771 10.2971C29.9798 10.2937 29.9824 10.2904 29.9853 10.2868L29.5938 9.97569ZM29.5855 9.98623L29.1939 9.67536C28.1279 11.0182 27.4268 12.2136 27.0532 13.4784C26.6785 14.747 26.6448 16.0464 26.8536 17.5793L27.349 17.5119L27.8444 17.4444C27.6483 16.0039 27.6892 14.8552 28.0122 13.7617C28.3363 12.6644 28.9558 11.5837 29.9771 10.2971L29.5855 9.98623ZM27.349 17.5119L26.8536 17.5793C26.9414 18.224 27.0723 18.9118 27.2394 19.6571L27.7273 19.5477L28.2152 19.4383C28.0521 18.7112 27.9273 18.0527 27.8444 17.4444L27.349 17.5119ZM27.7273 19.5477L27.2394 19.6571C27.2431 19.6735 27.2468 19.69 27.2505 19.7066L27.7383 19.5965L28.226 19.4865C28.2224 19.4704 28.2188 19.4544 28.2152 19.4383L27.7273 19.5477ZM27.7383 19.5965L27.2505 19.7066C27.2517 19.7117 27.2529 19.717 27.2541 19.7223L27.7418 19.612L28.2295 19.5017C28.2283 19.4967 28.2272 19.4916 28.226 19.4864L27.7383 19.5965ZM27.7418 19.612L27.2541 19.7223C27.2552 19.7274 27.2564 19.7326 27.2575 19.7376L27.7452 19.6272L28.2329 19.5168C28.2317 19.5116 28.2306 19.5067 28.2295 19.5017L27.7418 19.612ZM18.5579 17.8416L18.7233 18.3135C18.7272 18.3121 18.7312 18.3107 18.7353 18.3093L18.5703 17.8373L18.4052 17.3653C18.4011 17.3668 18.3969 17.3682 18.3926 17.3697L18.5579 17.8416ZM18.5703 17.8373L18.7353 18.3093C20.2886 17.7661 21.4841 17.5645 22.5819 17.6731C23.676 17.7813 24.7237 18.2028 25.9731 18.9946L26.2408 18.5723L26.5084 18.1499C25.1807 17.3085 23.9825 16.8067 22.6804 16.6779C21.382 16.5495 20.0308 16.7969 18.4052 17.3653L18.5703 17.8373ZM26.2408 18.5723L25.9731 18.9946C26.3378 19.2257 26.7187 19.4877 27.1221 19.7818L27.4166 19.3778L27.7112 18.9737C27.2945 18.67 26.8954 18.3952 26.5084 18.1499L26.2408 18.5723ZM27.4166 19.3778L27.1221 19.7818C27.2153 19.8498 27.3097 19.9194 27.4054 19.9908L27.7043 19.59L28.0033 19.1892C27.9049 19.1158 27.8075 19.044 27.7112 18.9737L27.4166 19.3778ZM27.7043 19.59L27.4054 19.9908C27.4093 19.9937 27.4133 19.9967 27.4173 19.9997L27.7164 19.599L28.0155 19.1983C28.0115 19.1953 28.0074 19.1923 28.0033 19.1892L27.7043 19.59ZM22.5595 11.4874L22.3263 11.9297C23.7393 12.6746 24.6974 13.4016 25.3871 14.2729C26.0753 15.1422 26.5249 16.191 26.8623 17.6263L27.349 17.5119L27.8357 17.3975C27.4777 15.8742 26.9801 14.6739 26.1712 13.6522C25.3639 12.6325 24.2749 11.8265 22.7927 11.0451L22.5595 11.4874ZM27.349 17.5119L26.8623 17.6263C27.0024 18.2223 27.1225 18.8823 27.2328 19.6215L27.7273 19.5477L28.2218 19.474C28.109 18.7171 27.984 18.0283 27.8357 17.3975L27.349 17.5119ZM27.7273 19.5477L27.2328 19.6214C27.2331 19.6238 27.2334 19.626 27.2338 19.6284L27.7283 19.5547L28.2229 19.481C28.2225 19.4787 28.2222 19.4762 28.2218 19.474L27.7273 19.5477ZM22.5439 11.4986L22.0454 11.5378C22.1856 13.3216 22.5005 14.7083 23.1249 15.8947C23.7517 17.0854 24.6686 18.033 25.9438 18.9745L26.2408 18.5723L26.5377 18.17C25.3383 17.2845 24.5441 16.4439 24.0098 15.4289C23.4732 14.4094 23.177 13.1728 23.0424 11.4594L22.5439 11.4986ZM26.2408 18.5723L25.9438 18.9745C26.3132 19.2473 26.7135 19.5201 27.1462 19.7983L27.4166 19.3778L27.6871 18.9572C27.2681 18.6878 26.8862 18.4273 26.5377 18.17L26.2408 18.5723ZM27.4166 19.3778L27.1462 19.7983C27.2447 19.8617 27.3449 19.9253 27.4468 19.9893L27.7127 19.5659L27.9786 19.1425C27.8795 19.0802 27.7824 19.0185 27.6871 18.9572L27.4166 19.3778ZM25.9074 29.2221L26.3861 29.0777C26.3848 29.0733 26.3836 29.0692 26.3823 29.0651L25.9035 29.2092L25.4247 29.3532C25.4261 29.3577 25.4274 29.3622 25.4287 29.3665L25.9074 29.2221ZM25.9035 29.2092L26.3823 29.0651C25.9088 27.4916 25.7326 26.2582 25.8369 25.1187C25.9409 23.9832 26.3273 22.9008 27.0417 21.635L26.6063 21.3892L26.1709 21.1435C25.4105 22.4905 24.9617 23.7102 24.8411 25.0275C24.7208 26.341 24.9306 27.7111 25.4247 29.3533L25.9035 29.2092ZM26.6063 21.3892L27.0417 21.635C27.3435 21.1005 27.7028 20.535 28.1229 19.9198L27.71 19.6378L27.2971 19.3558C26.8664 19.9864 26.4907 20.577 26.1709 21.1435L26.6063 21.3892ZM27.71 19.6378L28.1229 19.9198C28.1322 19.9062 28.1415 19.8926 28.1508 19.879L27.7383 19.5965L27.3257 19.314C27.3162 19.328 27.3066 19.3419 27.2971 19.3558L27.71 19.6378ZM27.7383 19.5965L28.1508 19.8791C28.1537 19.8748 28.1566 19.8705 28.1596 19.8661L27.7472 19.5834L27.3348 19.3007C27.3319 19.3051 27.3288 19.3095 27.3258 19.314L27.7383 19.5965ZM27.7472 19.5834L28.1596 19.8661C28.1625 19.8619 28.1654 19.8577 28.1684 19.8534L27.756 19.5706L27.3437 19.2877C27.3408 19.2921 27.3378 19.2964 27.3348 19.3007L27.7472 19.5834ZM18.5604 17.8287L18.2322 18.2059C18.2356 18.2089 18.239 18.2118 18.2423 18.2147L18.5703 17.8373L18.8982 17.4599C18.895 17.457 18.8918 17.4543 18.8886 17.4515L18.5604 17.8287ZM18.5703 17.8373L18.2423 18.2147C19.5426 19.3445 20.7065 20.0746 21.9603 20.4358C23.2177 20.7982 24.5163 20.7755 26.0609 20.4852L25.9685 19.9938L25.8762 19.5024C24.4228 19.7756 23.2937 19.7794 22.2372 19.4749C21.177 19.1695 20.1407 18.5395 18.8982 17.4599L18.5703 17.8373ZM25.9685 19.9938L26.0609 20.4852C26.5111 20.4006 26.9834 20.293 27.4827 20.165L27.3586 19.6807L27.2345 19.1963C26.751 19.3202 26.3004 19.4227 25.8762 19.5024L25.9685 19.9938ZM27.3586 19.6807L27.4827 20.165C27.5982 20.1354 27.7152 20.1047 27.8338 20.073L27.7043 19.59L27.5749 19.107C27.4597 19.1379 27.3462 19.1677 27.2345 19.1963L27.3586 19.6807ZM27.7043 19.59L27.8338 20.073C27.8387 20.0716 27.8436 20.0703 27.8485 20.069L27.7189 19.5861L27.5892 19.1032C27.5845 19.1045 27.5797 19.1058 27.5749 19.107L27.7043 19.59ZM19.9304 25.2137L19.9833 25.7108C21.6492 25.5335 22.9588 25.1878 24.0858 24.5391C25.2149 23.8892 26.1208 22.9582 27.0163 21.6755L26.6063 21.3892L26.1964 21.103C25.3526 22.3116 24.5474 23.1196 23.5869 23.6725C22.6242 24.2266 21.4655 24.5474 19.8774 24.7165L19.9304 25.2137ZM26.6063 21.3892L27.0163 21.6755C27.3872 21.1442 27.7578 20.5505 28.1423 19.8891L27.71 19.6378L27.2778 19.3865C26.9023 20.0324 26.5467 20.6012 26.1964 21.103L26.6063 21.3892ZM27.71 19.6378L28.1423 19.8891C28.143 19.8879 28.1436 19.8868 28.1442 19.8858C28.1448 19.8848 28.1453 19.8839 28.1459 19.8829L27.7136 19.6317L27.2813 19.3804C27.2754 19.3906 27.2834 19.3768 27.2778 19.3865L27.71 19.6378ZM19.92 25.1975L20.3687 25.4181C21.1269 23.876 21.859 22.8368 22.7342 22.0883C23.6056 21.3431 24.654 20.8561 26.0956 20.4774L25.9685 19.9938L25.8415 19.5102C24.3087 19.9129 23.1067 20.454 22.0843 21.3283C21.0656 22.1995 20.2607 23.3714 19.4713 24.9769L19.92 25.1975ZM25.9685 19.9938L26.0956 20.4774C26.5143 20.3674 26.9654 20.2667 27.4542 20.1715L27.3586 19.6807L27.263 19.1899C26.7582 19.2883 26.2855 19.3935 25.8415 19.5102L25.9685 19.9938ZM27.3586 19.6807L27.4542 20.1715C27.5654 20.1498 27.6785 20.1284 27.7935 20.1073L27.7032 19.6155L27.6129 19.1237C27.4945 19.1455 27.3779 19.1675 27.263 19.1899L27.3586 19.6807ZM29.5816 9.97334L29.1029 10.1177C29.1041 10.1218 29.1054 10.126 29.1067 10.1303L29.5855 9.98623L30.0643 9.84217C30.063 9.83787 30.0616 9.83343 30.0603 9.82896L29.5816 9.97334ZM29.5855 9.98623L29.1067 10.1303C29.5802 11.7038 29.7564 12.9373 29.6521 14.0767C29.5481 15.2122 29.1617 16.2947 28.4473 17.5604L28.8827 17.8062L29.3181 18.052C30.0785 16.7049 30.5273 15.4852 30.6479 14.1679C30.7682 12.8544 30.5584 11.4843 30.0643 9.84215L29.5855 9.98623ZM28.8827 17.8062L28.4473 17.5604C28.1455 18.0949 27.7862 18.6605 27.3661 19.2756L27.779 19.5576L28.1919 19.8396C28.6226 19.209 28.9983 18.6184 29.3181 18.052L28.8827 17.8062ZM27.779 19.5576L27.3661 19.2756C27.3568 19.2892 27.3475 19.3028 27.3382 19.3164L27.7507 19.5989L28.1633 19.8814C28.1728 19.8675 28.1823 19.8535 28.1919 19.8396L27.779 19.5576ZM27.7507 19.5989L27.3382 19.3164C27.3353 19.3207 27.3323 19.325 27.3294 19.3293L27.7418 19.612L28.1542 19.8947C28.1572 19.8903 28.1602 19.8858 28.1632 19.8814L27.7507 19.5989ZM27.7418 19.612L27.3294 19.3293C27.3263 19.3337 27.3235 19.3378 27.3207 19.342L27.733 19.6248L28.1453 19.9077C28.1483 19.9033 28.1513 19.8988 28.1542 19.8947L27.7418 19.612ZM36.9286 21.3667L37.2568 20.9895C37.2535 20.9866 37.2501 20.9837 37.2467 20.9807L36.9187 21.3581L36.5908 21.7355C36.5939 21.7383 36.5971 21.741 36.6004 21.7439L36.9286 21.3667ZM36.9187 21.3581L37.2467 20.9807C35.9464 19.8509 34.7825 19.1209 33.5287 18.7596C32.2713 18.3972 30.9727 18.4199 29.4282 18.7102L29.5205 19.2016L29.6129 19.693C31.0662 19.4198 32.1953 19.416 33.2519 19.7205C34.312 20.026 35.3483 20.6559 36.5908 21.7355L36.9187 21.3581ZM29.5205 19.2016L29.4282 18.7102C28.9779 18.7948 28.5056 18.9024 28.0063 19.0304L28.1304 19.5147L28.2545 19.9991C28.738 19.8752 29.1886 19.7727 29.6129 19.693L29.5205 19.2016ZM28.1304 19.5147L28.0063 19.0304C27.8908 19.06 27.7738 19.0907 27.6552 19.1225L27.7847 19.6054L27.9141 20.0884C28.0293 20.0575 28.1428 20.0277 28.2545 19.9991L28.1304 19.5147ZM27.7847 19.6054L27.6552 19.1225C27.6503 19.1238 27.645 19.1252 27.6405 19.1264L27.7701 19.6093L27.8998 20.0922C27.9049 20.0908 27.9094 20.0896 27.9141 20.0884L27.7847 19.6054ZM35.5586 13.9818L35.5057 13.4846C33.8398 13.6619 32.5302 14.0076 31.4032 14.6563C30.2741 15.3062 29.3682 16.2372 28.4727 17.5199L28.8827 17.8062L29.2926 18.0924C30.1364 16.8838 30.9416 16.0758 31.9021 15.523C32.8648 14.9688 34.0235 14.648 35.6116 14.4789L35.5586 13.9818ZM28.8827 17.8062L28.4727 17.5199C28.1018 18.0512 27.7312 18.6449 27.3467 19.3063L27.779 19.5576L28.2112 19.8089C28.5867 19.163 28.9423 18.5942 29.2926 18.0924L28.8827 17.8062ZM27.779 19.5576L27.3467 19.3064C27.3456 19.3082 27.3443 19.3105 27.3431 19.3125L27.7754 19.5637L28.2077 19.815C28.2089 19.8128 28.21 19.8111 28.2112 19.8089L27.779 19.5576ZM35.569 13.9979L35.1203 13.7773C34.3621 15.3194 33.63 16.3586 32.7548 17.1071C31.8834 17.8523 30.835 18.3393 29.3935 18.718L29.5205 19.2016L29.6476 19.6852C31.1803 19.2825 32.3824 18.7414 33.4048 17.8671C34.4234 16.9959 35.2283 15.824 36.0177 14.2185L35.569 13.9979ZM29.5205 19.2016L29.3935 18.718C28.9747 18.8281 28.5236 18.9287 28.0348 19.024L28.1304 19.5147L28.226 20.0055C28.7308 19.9071 29.2035 19.8019 29.6476 19.6852L29.5205 19.2016ZM28.1304 19.5147L28.0348 19.024C27.9236 19.0456 27.8105 19.067 27.6954 19.0881L27.7858 19.5799L27.8761 20.0717C27.9945 20.0499 28.1111 20.0279 28.226 20.0055L28.1304 19.5147ZM25.8952 29.2197L26.2866 29.5308C26.2894 29.5273 26.2923 29.5237 26.2952 29.52L25.9035 29.2092L25.5119 28.8983C25.5092 28.9017 25.5065 28.9051 25.5037 28.9086L25.8952 29.2197ZM25.9035 29.2092L26.2951 29.52C27.3611 28.1772 28.0622 26.9819 28.4358 25.717C28.8105 24.4484 28.8442 23.149 28.6354 21.6161L28.14 21.6835L27.6446 21.751C27.8407 23.1915 27.7998 24.3402 27.4768 25.4337C27.1527 26.531 26.5332 27.6117 25.5119 28.8983L25.9035 29.2092ZM28.14 21.6835L28.6354 21.6161C28.5476 20.9714 28.4167 20.2836 28.2496 19.5383L27.7617 19.6477L27.2738 19.7571C27.4369 20.4842 27.5617 21.1427 27.6446 21.751L28.14 21.6835ZM27.7617 19.6477L28.2496 19.5383C28.2459 19.5218 28.2422 19.5054 28.2385 19.4889L27.7507 19.5989L27.263 19.7089C27.2666 19.725 27.2702 19.7411 27.2738 19.7571L27.7617 19.6477ZM27.7507 19.5989L28.2385 19.4888C28.2373 19.4837 28.2361 19.4784 28.2349 19.4732L27.7472 19.5834L27.2595 19.6937C27.2607 19.6987 27.2618 19.7038 27.263 19.709L27.7507 19.5989ZM27.7472 19.5834L28.2349 19.4732C28.2338 19.468 28.2326 19.4628 28.2315 19.4578L27.7438 19.5682L27.2561 19.6786C27.2573 19.6838 27.2584 19.6887 27.2595 19.6937L27.7472 19.5834ZM36.9311 21.3538L36.7657 20.8819C36.7618 20.8833 36.7579 20.8847 36.7537 20.8861L36.9187 21.3581L37.0838 21.8301C37.0877 21.8287 37.0921 21.8272 37.0964 21.8257L36.9311 21.3538ZM36.9187 21.3581L36.7537 20.8861C35.2004 21.4293 34.0049 21.631 32.9071 21.5224C31.813 21.4141 30.7653 20.9926 29.5159 20.2008L29.2482 20.6231L28.9806 21.0455C30.3083 21.8869 31.5064 22.3887 32.8086 22.5175C34.107 22.6459 35.4582 22.3985 37.0838 21.8301L36.9187 21.3581ZM29.2482 20.6231L29.5159 20.2008C29.1512 19.9697 28.7703 19.7077 28.3669 19.4136L28.0724 19.8177L27.7779 20.2217C28.1945 20.5254 28.5935 20.8002 28.9806 21.0455L29.2482 20.6231ZM28.0724 19.8177L28.3669 19.4136C28.2737 19.3456 28.1793 19.276 28.0836 19.2046L27.7847 19.6054L27.4857 20.0062C27.5841 20.0796 27.6815 20.1514 27.7779 20.2217L28.0724 19.8177ZM27.7847 19.6054L28.0836 19.2046C28.0797 19.2017 28.0757 19.1988 28.0717 19.1957L27.7726 19.5964L27.4735 19.9971C27.4775 20.0001 27.4816 20.0031 27.4857 20.0062L27.7847 19.6054ZM32.9295 27.708L33.1627 27.2657C31.7497 26.5208 30.7916 25.7938 30.1019 24.9225C29.4137 24.0532 28.9641 23.0044 28.6267 21.5691L28.14 21.6835L27.6533 21.7979C28.0113 23.3212 28.5089 24.5215 29.3178 25.5432C30.1251 26.5629 31.2141 27.3689 32.6963 28.1503L32.9295 27.708ZM28.14 21.6835L28.6267 21.5691C28.4866 20.9731 28.3665 20.3131 28.2562 19.574L27.7617 19.6477L27.2672 19.7215C27.38 20.4783 27.505 21.1671 27.6533 21.7979L28.14 21.6835ZM27.7617 19.6477L28.2562 19.574C28.2559 19.5716 28.2556 19.5694 28.2552 19.567L27.7607 19.6407L27.2661 19.7144C27.2665 19.7167 27.2668 19.7192 27.2672 19.7214L27.7617 19.6477ZM32.9451 27.6968L33.4436 27.6577C33.3034 25.8738 32.9885 24.4871 32.3641 23.3007C31.7373 22.11 30.8204 21.1624 29.5452 20.2209L29.2482 20.6231L28.9512 21.0254C30.1507 21.9109 30.9449 22.7515 31.4792 23.7665C32.0158 24.786 32.312 26.0226 32.4466 27.736L32.9451 27.6968ZM29.2482 20.6231L29.5452 20.2209C29.1757 19.9481 28.7755 19.6754 28.3428 19.3971L28.0724 19.8177L27.8019 20.2382C28.2209 20.5076 28.6028 20.7681 28.9512 21.0254L29.2482 20.6231ZM28.0724 19.8177L28.3428 19.3971C28.2443 19.3338 28.1441 19.2701 28.0422 19.2061L27.7763 19.6295L27.5104 20.053C27.6095 20.1152 27.7066 20.1769 27.8019 20.2382L28.0724 19.8177Z" fill="#795338"/>
</svg>
