<svg width="100" height="102" viewBox="0 0 100 102" fill="none" xmlns="http://www.w3.org/2000/svg">
<path d="M83.6854 39.3122L84.6841 39.2597C84.6556 38.7184 84.201 38.2983 83.6592 38.3126C83.1173 38.3268 82.6854 38.7702 82.6854 39.3122H83.6854ZM4.20018 59.3737L3.36551 59.9245C3.38089 59.9478 3.39724 59.9704 3.41452 59.9924L4.20018 59.3737ZM19.2962 30.5756L19.0227 31.5375L19.2962 30.5756ZM29.5771 46.7338L30.5725 46.8294L30.5725 46.8294L29.5771 46.7338ZM60.4912 68.2447C61.0321 68.1334 61.3804 67.6046 61.2691 67.0637C61.1578 66.5227 60.6291 66.1744 60.0881 66.2857L60.4912 68.2447ZM86.0776 46.2144C85.7188 46.6343 85.7683 47.2655 86.1881 47.6243C86.608 47.9831 87.2392 47.9337 87.598 47.5138L86.0776 46.2144ZM91.0022 65.1072L90.5918 64.1954L90.5918 64.1954L91.0022 65.1072ZM28.2295 81.9074C27.7171 81.7012 27.1346 81.9494 26.9284 82.4617C26.7222 82.9741 26.9704 83.5566 27.4827 83.7628L28.2295 81.9074ZM44.6115 57.5579L44.2437 58.4879L44.2437 58.4879L44.6115 57.5579ZM54.8255 63.5288L55.1255 64.4827L54.8255 63.5288ZM54.658 55.2515L54.6529 56.2515L54.6529 56.2515L54.658 55.2515ZM73.2528 2.65176L74.2385 2.48319C74.1547 1.9933 73.7239 1.63928 73.2271 1.65209C72.7302 1.66489 72.3182 2.04064 72.2598 2.53419L73.2528 2.65176ZM66.4507 60.1085L65.4576 59.991C65.4113 60.382 65.5988 60.7638 65.9366 60.9663C66.2743 61.1687 66.6994 61.1541 67.0225 60.9289L66.4507 60.1085ZM66.5567 60.0346L67.1285 60.855L67.1285 60.855L66.5567 60.0346ZM78.5181 46.56L79.4427 46.941L78.5181 46.56ZM87.6949 5.68963L88.6784 5.87054C88.6962 5.77386 88.6996 5.67509 88.6886 5.57741L87.6949 5.68963ZM78.2592 8.72597L78.4468 7.74372L78.2592 8.72597ZM78.4416 5.83835L78.1183 6.78463L78.1183 6.78463L78.4416 5.83835ZM80.7058 1.0657L80.5901 2.05897L80.7058 1.0657ZM80.4318 2.57496C79.8808 2.53824 79.4043 2.95519 79.3676 3.50626C79.3308 4.05732 79.7478 4.53381 80.2989 4.57054L80.4318 2.57496ZM93.3313 92.4932L92.3426 92.3429L93.3313 92.4932ZM48.0957 99.4861L48.2463 98.4975L48.0957 99.4861ZM6.98551 79.3356L5.99687 79.1853L6.98551 79.3356ZM79.5529 78.6846C79.0452 78.4674 78.4574 78.703 78.2402 79.2107C78.023 79.7185 78.2586 80.3062 78.7663 80.5234L79.5529 78.6846ZM13.9605 75.8804C14.5128 75.8804 14.9605 75.4326 14.9605 74.8804C14.9605 74.3281 14.5128 73.8804 13.9605 73.8804L13.9605 75.8804ZM69.3914 35.3478C69.9437 35.3522 70.3949 34.908 70.3993 34.3557C70.4036 33.8035 69.9595 33.3522 69.4072 33.3479L69.3914 35.3478ZM64.3884 33.5013C63.8374 33.5375 63.42 34.0137 63.4562 34.5648C63.4924 35.1159 63.9686 35.5332 64.5197 35.497L64.3884 33.5013ZM82.755 39.4578C82.9107 39.9877 83.4664 40.2911 83.9963 40.1354C84.5262 39.9798 84.8296 39.424 84.6739 38.8941L82.755 39.4578ZM82.015 35.7823C81.5409 35.4991 80.9269 35.6538 80.6437 36.1279C80.3604 36.602 80.5151 37.216 80.9892 37.4992L82.015 35.7823ZM49.2778 16.5368C49.6214 16.1044 49.5494 15.4754 49.1169 15.1318C48.6845 14.7882 48.0555 14.8603 47.7119 15.2927L49.2778 16.5368ZM44.4489 32.1732C44.5708 32.7119 45.1063 33.0497 45.645 32.9278C46.1836 32.8059 46.5215 32.2704 46.3996 31.7317L44.4489 32.1732ZM29.8332 28.0417C29.312 28.2244 29.0376 28.795 29.2203 29.3162C29.403 29.8374 29.9737 30.1118 30.4948 29.9291L29.8332 28.0417ZM44.778 32.7068C45.2205 33.0373 45.8471 32.9465 46.1776 32.504C46.5081 32.0615 46.4173 31.4349 45.9748 31.1044L44.778 32.7068ZM37.2772 17.5422C36.7887 17.2846 36.1838 17.4717 35.9262 17.9602C35.6685 18.4487 35.8557 19.0536 36.3442 19.3112L37.2772 17.5422ZM44.4071 31.9793C44.4885 32.5256 44.9973 32.9025 45.5436 32.8211C46.0898 32.7397 46.4667 32.2309 46.3853 31.6847L44.4071 31.9793ZM37.7817 18.367C37.7385 17.8164 37.2571 17.4051 36.7065 17.4484C36.1559 17.4916 35.7446 17.973 35.7878 18.5236L37.7817 18.367ZM44.8383 32.6974C45.306 32.9912 45.9233 32.8502 46.2171 32.3826C46.5109 31.9149 46.3699 31.2976 45.9022 31.0038L44.8383 32.6974ZM41.4142 48.1848C41.5736 48.7135 42.1315 49.013 42.6603 48.8535C43.1891 48.6941 43.4885 48.1362 43.329 47.6074L41.4142 48.1848ZM46.267 32.4239C46.5793 31.9685 46.4633 31.346 46.0078 31.0337C45.5523 30.7213 44.9299 30.8374 44.6175 31.2929L46.267 32.4239ZM30.8247 28.2097C30.4081 27.8471 29.7765 27.8908 29.4138 28.3074C29.0512 28.724 29.095 29.3556 29.5116 29.7182L30.8247 28.2097ZM45.6399 32.85C46.1733 32.7067 46.4895 32.1582 46.3463 31.6248C46.203 31.0914 45.6545 30.7752 45.1211 30.9184L45.6399 32.85ZM32.3378 40.241C31.7886 40.2995 31.3908 40.7921 31.4493 41.3413C31.5078 41.8905 32.0004 42.2883 32.5496 42.2298L32.3378 40.241ZM46.2364 32.4623C46.5138 31.9848 46.3516 31.3727 45.8741 31.0953C45.3966 30.8178 44.7845 30.98 44.5071 31.4576L46.2364 32.4623ZM31.529 40.7674C31.2854 41.2631 31.4897 41.8624 31.9854 42.106C32.4811 42.3496 33.0803 42.1452 33.3239 41.6496L31.529 40.7674ZM45.5352 32.9166C46.0784 32.8168 46.4378 32.2955 46.338 31.7523C46.2382 31.2091 45.717 30.8497 45.1738 30.9495L45.5352 32.9166ZM49.4319 15.6222C49.2725 15.0934 48.7146 14.794 48.1858 14.9534C47.6571 15.1128 47.3577 15.6707 47.5171 16.1995L49.4319 15.6222ZM44.5792 31.383C44.2668 31.8385 44.3829 32.4609 44.8384 32.7733C45.2938 33.0856 45.9163 32.9696 46.2286 32.5141L44.5792 31.383ZM60.0214 35.5972C60.438 35.9599 61.0697 35.9161 61.4323 35.4996C61.7949 35.083 61.7511 34.4513 61.3346 34.0887L60.0214 35.5972ZM45.2063 30.957C44.6729 31.1002 44.3566 31.6487 44.4998 32.1821C44.6431 32.7155 45.1916 33.0318 45.725 32.8885L45.2063 30.957ZM58.5084 23.5659C59.0575 23.5074 59.4553 23.0148 59.3968 22.4656C59.3383 21.9165 58.8457 21.5187 58.2966 21.5772L58.5084 23.5659ZM44.6098 31.3446C44.3323 31.8222 44.4945 32.4342 44.972 32.7117C45.4496 32.9891 46.0616 32.8269 46.3391 32.3494L44.6098 31.3446ZM59.3171 23.0395C59.5607 22.5438 59.3564 21.9446 58.8607 21.701C58.3651 21.4574 57.7658 21.6617 57.5222 22.1574L59.3171 23.0395ZM45.3109 30.8904C44.7677 30.9902 44.4083 31.5114 44.5081 32.0546C44.6079 32.5978 45.1292 32.9572 45.6724 32.8574L45.3109 30.8904ZM41.5683 47.2701C41.2248 47.7025 41.2968 48.3316 41.7292 48.6752C42.1616 49.0187 42.7907 48.9467 43.1342 48.5143L41.5683 47.2701ZM46.3972 31.6337C46.2753 31.0951 45.7398 30.7572 45.2011 30.8792C44.6625 31.0011 44.3247 31.5366 44.4466 32.0752L46.3972 31.6337ZM61.013 35.7652C61.5341 35.5825 61.8085 35.0119 61.6258 34.4907C61.4431 33.9695 60.8725 33.6951 60.3513 33.8779L61.013 35.7652ZM46.0681 31.1001C45.6256 30.7696 44.999 30.8604 44.6685 31.3029C44.338 31.7454 44.4288 32.372 44.8713 32.7025L46.0681 31.1001ZM53.5689 46.2647C54.0574 46.5224 54.6623 46.3352 54.92 45.8467C55.1776 45.3582 54.9905 44.7533 54.502 44.4957L53.5689 46.2647ZM46.439 31.8276C46.3576 31.2813 45.8488 30.9045 45.3026 30.9859C44.7563 31.0672 44.3795 31.576 44.4608 32.1223L46.439 31.8276ZM53.0644 45.4399C53.1077 45.9905 53.5891 46.4018 54.1397 46.3586C54.6903 46.3153 55.1015 45.8339 55.0583 45.2833L53.0644 45.4399ZM46.0078 31.1096C45.5401 30.8158 44.9229 30.9567 44.6291 31.4244C44.3353 31.892 44.4762 32.5093 44.9439 32.8031L46.0078 31.1096ZM83.6854 39.3122H82.6854C82.6854 46.5454 79.1429 52.921 73.3988 58.064C67.6483 63.2127 59.7354 67.0785 51.1651 69.2389C33.9433 73.58 14.5818 70.9412 4.98583 58.755L4.20018 59.3737L3.41452 59.9924C13.7297 73.0919 34.1108 75.6003 51.6539 71.1782C60.4659 68.957 68.6911 64.9635 74.7329 59.554C80.7812 54.1386 84.6854 47.2569 84.6854 39.3122H83.6854ZM4.20018 59.3737L5.03484 58.823C0.47648 51.9148 1.53758 44.3972 5.02747 38.9148C8.57223 33.3462 14.3619 30.2123 19.0227 31.5375L19.2962 30.5756L19.5696 29.6137C13.6892 27.9418 7.11579 31.9097 3.3403 37.8408C-0.490067 43.8581 -1.70637 52.2381 3.36551 59.9245L4.20018 59.3737ZM19.2962 30.5756L19.0227 31.5375C22.9159 32.6444 25.4286 34.8246 26.9118 37.4835C28.4075 40.1648 28.8925 43.4018 28.5817 46.6382L29.5771 46.7338L30.5725 46.8294C30.9124 43.2898 30.3962 39.6246 28.6584 36.5092C26.9081 33.3715 23.955 30.8606 19.5696 29.6137L19.2962 30.5756ZM29.5771 46.7338L28.5817 46.6382C27.8902 53.8386 30.7315 60.344 36.3807 64.4897C42.0161 68.6253 50.3309 70.3352 60.4912 68.2447L60.2896 67.2652L60.0881 66.2857C50.3373 68.292 42.6366 66.5998 37.564 62.8773C32.5051 59.1648 29.9457 53.3562 30.5725 46.8294L29.5771 46.7338ZM86.8378 46.8641L87.598 47.5138C90.4015 44.2336 92.6232 43.6456 94.0979 44.0618C95.6337 44.4953 96.9664 46.1713 97.6127 48.7522C98.8989 53.8883 97.1161 61.2586 90.5918 64.1954L91.0022 65.1072L91.4127 66.0191C99.0734 62.5708 101 54.0435 99.5528 48.2663C98.8327 45.3906 97.1885 42.856 94.6412 42.137C92.0328 41.4008 89.0653 42.7186 86.0776 46.2144L86.8378 46.8641ZM83.6854 39.3122L82.6868 39.3647C83.4564 54.0052 80.9769 64.9009 76.3184 72.4885L77.1706 73.0117L78.0228 73.5349C82.9613 65.4913 85.4668 54.1519 84.6841 39.2597L83.6854 39.3122ZM77.1706 73.0117L76.3184 72.4885C76.0834 72.8713 75.8428 73.2457 75.5968 73.6118L76.4268 74.1695L77.2568 74.7273C77.5182 74.3383 77.7736 73.9408 78.0228 73.5349L77.1706 73.0117ZM76.4268 74.1695L75.5968 73.6118C66.0882 87.7614 48.0758 89.8954 28.2295 81.9074L27.8561 82.8351L27.4827 83.7628C47.72 91.9081 66.9762 90.0257 77.2568 74.7273L76.4268 74.1695ZM91.0022 65.1072L90.5918 64.1954C89.2496 64.7995 87.912 65.3362 86.5877 65.8752C85.2716 66.4108 83.9684 66.9487 82.7366 67.5427C80.2737 68.7302 78.0099 70.1805 76.3647 72.4196L77.1706 73.0117L77.9765 73.6038C79.3412 71.7464 81.2676 70.4713 83.6053 69.3442C84.7738 68.7808 86.0234 68.2641 87.3416 67.7276C88.6514 67.1946 90.0293 66.6418 91.4127 66.0191L91.0022 65.1072ZM77.1706 73.0117L76.3647 72.4196C76.0733 72.8163 75.8022 73.2364 75.5534 73.6824L76.4268 74.1695L77.3001 74.6566C77.5079 74.2841 77.7338 73.934 77.9765 73.6038L77.1706 73.0117ZM44.6115 57.5579L44.9792 56.628C44.2073 56.3228 43.4475 56.1482 42.801 56.2934C42.4461 56.3731 42.0964 56.5573 41.8443 56.8882C41.5975 57.212 41.5164 57.5812 41.5138 57.9049C41.5089 58.5134 41.7753 59.1421 42.1028 59.6866C42.4474 60.2594 42.9339 60.8607 43.5257 61.4397C45.8602 63.7237 50.2339 66.0215 55.1255 64.4827L54.8255 63.5288L54.5254 62.5748C50.5763 63.8172 46.9389 61.9811 44.9244 60.0101C44.429 59.5255 44.0572 59.0554 43.8166 58.6556C43.5589 58.2273 43.5133 57.9819 43.5138 57.921C43.5138 57.91 43.5148 57.9958 43.435 58.1005C43.3497 58.2124 43.2519 58.242 43.2393 58.2448C43.2371 58.2453 43.2557 58.2409 43.3014 58.2414C43.3469 58.2418 43.4123 58.2469 43.5007 58.2623C43.6796 58.2934 43.9244 58.3616 44.2437 58.4879L44.6115 57.5579ZM54.8255 63.5288L55.1255 64.4827C57.0612 63.8737 58.422 62.9761 59.2287 61.8682C60.0511 60.7387 60.2352 59.4725 59.9509 58.3084C59.4036 56.0678 57.1475 54.2642 54.6631 54.2515L54.658 55.2515L54.6529 56.2515C56.2446 56.2596 57.6844 57.4584 58.008 58.783C58.1591 59.4016 58.0722 60.0587 57.6119 60.691C57.1358 61.3448 56.2019 62.0474 54.5254 62.5748L54.8255 63.5288ZM54.658 55.2515L54.6631 54.2515C53.1308 54.2436 52.0897 54.6298 51.3001 55.2413C50.9235 55.533 50.6332 55.8537 50.3959 56.1385C50.129 56.4588 49.9934 56.6481 49.7879 56.8759C49.4651 57.2338 49.1746 57.4455 48.6169 57.4924C47.9646 57.5472 46.877 57.3785 44.9792 56.628L44.6115 57.5579L44.2437 58.4879C46.2278 59.2725 47.665 59.5795 48.7844 59.4854C49.9985 59.3833 50.7265 58.8214 51.2731 58.2154C51.5022 57.9613 51.7638 57.6212 51.9325 57.4188C52.1306 57.1809 52.314 56.9858 52.5247 56.8226C52.9096 56.5245 53.4977 56.2455 54.6529 56.2515L54.658 55.2515ZM73.2528 2.65176L72.2598 2.53419L65.4576 59.991L66.4507 60.1085L67.4437 60.2261L74.2459 2.76932L73.2528 2.65176ZM66.4507 60.1085L67.0225 60.9289L67.1285 60.855L66.5567 60.0346L65.9849 59.2142L65.8789 59.2881L66.4507 60.1085ZM66.5567 60.0346L67.1285 60.855C71.0974 58.0888 76.3526 54.4402 79.4427 46.941L78.5181 46.56L77.5935 46.179C74.7435 53.0957 69.9341 56.4617 65.9849 59.2142L66.5567 60.0346ZM78.5181 46.56L79.4427 46.941C80.2262 45.0394 81.1905 41.5006 82.1886 37.3392C83.193 33.1518 84.2489 28.2585 85.2096 23.5996C86.1707 18.9395 87.0377 14.5077 87.6645 11.2414C87.9779 9.60808 88.2313 8.26582 88.4064 7.33171C88.4939 6.86464 88.5619 6.49959 88.608 6.25119C88.631 6.12699 88.6486 6.03195 88.6604 5.9679C88.6664 5.93587 88.6708 5.9116 88.6738 5.89529C88.6753 5.88714 88.6765 5.88098 88.6772 5.87685C88.6776 5.87478 88.6779 5.87322 88.6781 5.87217C88.6782 5.87164 88.6783 5.87124 88.6783 5.87097C88.6784 5.87069 88.6784 5.87054 87.6949 5.68963C86.7114 5.50872 86.7114 5.50883 86.7113 5.50906C86.7113 5.50931 86.7112 5.50967 86.7111 5.51016C86.711 5.51116 86.7107 5.51266 86.7103 5.51466C86.7096 5.51867 86.7085 5.5247 86.707 5.53273C86.704 5.54878 86.6996 5.5728 86.6937 5.60457C86.682 5.6681 86.6645 5.76261 86.6416 5.88626C86.5957 6.13357 86.5279 6.49745 86.4406 6.96329C86.266 7.89496 86.0131 9.23437 85.7003 10.8645C85.0747 14.125 84.2094 18.5473 83.2508 23.1957C82.292 27.8453 81.241 32.7151 80.2438 36.8727C79.2403 41.0563 78.3083 44.4444 77.5935 46.179L78.5181 46.56ZM73.2528 2.65176C72.2671 2.82032 72.2672 2.82069 72.2673 2.82109C72.2673 2.82124 72.2674 2.82166 72.2674 2.82197C72.2675 2.8226 72.2677 2.82332 72.2678 2.82411C72.2681 2.8257 72.2684 2.82761 72.2688 2.82984C72.2696 2.83431 72.2706 2.84006 72.2719 2.84704C72.2745 2.86102 72.278 2.87997 72.2826 2.9036C72.2919 2.95084 72.3055 3.01686 72.3239 3.09923C72.3608 3.26378 72.4174 3.49458 72.4986 3.77187C72.6603 4.32377 72.9235 5.07363 73.3308 5.85656C74.1341 7.40115 75.5879 9.23389 78.0716 9.70822L78.2592 8.72597L78.4468 7.74372C76.8289 7.43474 75.7795 6.23038 75.1051 4.93369C74.7734 4.29597 74.5541 3.67415 74.418 3.20953C74.3503 2.97855 74.3042 2.78989 74.2755 2.66203C74.2612 2.59819 74.2513 2.54978 74.2453 2.51913C74.2423 2.50382 74.2403 2.49297 74.2392 2.48687C74.2386 2.48383 74.2383 2.48197 74.2382 2.48134C74.2381 2.48103 74.2381 2.48102 74.2382 2.48133C74.2382 2.48148 74.2383 2.48171 74.2383 2.48202C74.2383 2.48218 74.2384 2.48247 74.2384 2.48255C74.2385 2.48286 74.2385 2.48319 73.2528 2.65176ZM78.2592 8.72597L78.0716 9.70822C81.8623 10.4321 84.4808 9.63208 86.1752 8.56218C87.011 8.0345 87.5997 7.45528 87.9841 6.99964C88.1763 6.77169 88.3183 6.57373 88.4152 6.42698C88.4637 6.35354 88.5011 6.29272 88.5281 6.24714C88.5415 6.22434 88.5524 6.20533 88.5607 6.19042C88.5649 6.18297 88.5684 6.17654 88.5713 6.17118C88.5728 6.1685 88.5741 6.16608 88.5753 6.16393C88.5758 6.16286 88.5764 6.16186 88.5769 6.16092C88.5771 6.16045 88.5775 6.1598 88.5776 6.15957C88.5779 6.15893 88.5783 6.15832 87.6949 5.68963C86.8115 5.22095 86.8118 5.22036 86.8122 5.2198C86.8122 5.21963 86.8125 5.21908 86.8127 5.21874C86.8131 5.21808 86.8134 5.21747 86.8137 5.21693C86.8143 5.21585 86.8147 5.21502 86.815 5.21444C86.8157 5.21329 86.8157 5.21315 86.8153 5.21396C86.8144 5.2156 86.8113 5.22109 86.8059 5.23014C86.7952 5.24824 86.7756 5.28049 86.7465 5.32453C86.6882 5.41272 86.5926 5.54739 86.4553 5.7101C86.1806 6.03578 85.7426 6.47006 85.1075 6.87107C83.8603 7.65855 81.761 8.37666 78.4468 7.74372L78.2592 8.72597ZM78.4416 5.83835L78.765 4.89208C77.4042 4.42703 77.1024 3.48612 77.2193 3.0331C77.3156 2.6599 77.977 1.7544 80.5901 2.05897L80.7058 1.0657L80.8216 0.0724235C77.9079 -0.267188 75.7703 0.644002 75.2827 2.53335C74.8158 4.34288 76.1453 6.11039 78.1183 6.78463L78.4416 5.83835ZM80.7058 1.0657L80.5901 2.05897C83.6648 2.41736 85.1679 3.4801 85.9053 4.32268C86.2818 4.75294 86.4839 5.15389 86.5906 5.43241C86.6441 5.57208 86.6737 5.68109 86.689 5.74729C86.6966 5.78033 86.7007 5.80248 86.7023 5.81217C86.7031 5.81701 86.7033 5.8187 86.7031 5.81706C86.703 5.81623 86.7028 5.81457 86.7024 5.81205C86.7023 5.81079 86.7021 5.80931 86.7019 5.80761C86.7018 5.80676 86.7017 5.80586 86.7016 5.8049C86.7015 5.80442 86.7014 5.80366 86.7014 5.80342C86.7013 5.80264 86.7012 5.80185 87.6949 5.68963C88.6886 5.57741 88.6885 5.57659 88.6884 5.57576C88.6884 5.57546 88.6883 5.57461 88.6882 5.57401C88.6881 5.57282 88.6879 5.57156 88.6878 5.57025C88.6874 5.56761 88.6871 5.56473 88.6867 5.56161C88.6859 5.55537 88.685 5.54816 88.6838 5.54001C88.6815 5.52372 88.6785 5.50364 88.6745 5.48002C88.6666 5.43279 88.6548 5.37127 88.6377 5.29727C88.6036 5.14937 88.5479 4.95085 88.4582 4.7167C88.2784 4.24757 87.9619 3.63576 87.4103 3.00552C86.2915 1.72708 84.3 0.477855 80.8216 0.0724235L80.7058 1.0657ZM78.4416 5.83835L78.1183 6.78463C79.2753 7.18002 80.3959 7.24611 81.342 7.10196C82.2553 6.96283 83.1188 6.60783 83.6532 6.03897C83.9279 5.74665 84.1756 5.32825 84.1773 4.81186C84.179 4.27127 83.9112 3.82873 83.5547 3.5175C82.9079 2.95265 81.8168 2.66725 80.4318 2.57496L80.3654 3.57275L80.2989 4.57054C80.9213 4.61202 81.3828 4.69379 81.7113 4.78939C82.0489 4.88762 82.1954 4.98573 82.2393 5.02401C82.268 5.04913 82.1767 4.97506 82.1773 4.80549C82.1777 4.66011 82.2466 4.61528 82.1957 4.6695C82.079 4.79371 81.7045 5.02367 81.0408 5.12478C80.4101 5.22087 79.6148 5.18249 78.765 4.89208L78.4416 5.83835ZM93.3313 92.4932L92.3426 92.3429C92.1275 93.7583 90.9812 95.1469 88.6667 96.3756C86.3728 97.5934 83.1112 98.5507 79.0749 99.1747C71.0144 100.421 60.0962 100.303 48.2463 98.4975L48.0957 99.4861L47.945 100.475C59.9389 102.302 71.0688 102.436 79.3804 101.151C83.5301 100.51 87.0356 99.5059 89.6045 98.1422C92.1529 96.7893 93.9654 94.9757 94.3199 92.6434L93.3313 92.4932ZM48.0957 99.4861L48.2463 98.4975C36.3965 96.6918 25.9375 93.5518 18.6121 89.9612C14.9439 88.1632 12.1143 86.2777 10.2859 84.4316C8.44099 82.5689 7.75901 80.9014 7.97416 79.4858L6.98551 79.3356L5.99687 79.1853C5.64242 81.5174 6.83394 83.7885 8.86486 85.839C10.9122 87.9061 13.9606 89.9085 17.7319 91.7571C25.2854 95.4595 35.9512 98.647 47.945 100.475L48.0957 99.4861ZM79.1596 79.604L78.7663 80.5234C83.3396 82.4797 86.9342 84.5951 89.2887 86.6944C91.6783 88.825 92.5855 90.7445 92.3426 92.3429L93.3313 92.4932L94.3199 92.6434C94.719 90.0176 93.1644 87.4705 90.6197 85.2016C88.04 82.9015 84.2278 80.6844 79.5529 78.6846L79.1596 79.604ZM6.98551 79.3356L7.97416 79.4858C8.09002 78.7235 8.71049 77.8248 9.8345 77.0867C10.9359 76.3635 12.4026 75.8804 13.9605 75.8804L13.9605 74.8804L13.9605 73.8804C12.0046 73.8804 10.1575 74.482 8.73673 75.4149C7.33853 76.3331 6.22839 77.662 5.99687 79.1853L6.98551 79.3356ZM69.3993 34.3478L69.4072 33.3479C67.8136 33.3353 66.1337 33.3866 64.3884 33.5013L64.4541 34.4992L64.5197 35.497C66.2206 35.3852 67.8512 35.3356 69.3914 35.3478L69.3993 34.3478ZM83.7145 39.176L84.6739 38.8941C84.2858 37.5728 83.3021 36.5513 82.015 35.7823L81.5021 36.6408L80.9892 37.4992C82.0112 38.1098 82.5555 38.7786 82.755 39.4578L83.7145 39.176ZM48.4949 15.9147L47.7119 15.2927C47.7074 15.2983 47.7025 15.3045 47.6976 15.3107L48.481 15.9322L49.2644 16.5538C49.2687 16.5483 49.273 16.5429 49.2778 16.5368L48.4949 15.9147ZM48.481 15.9322L47.6976 15.3107C45.9195 17.5516 44.7411 19.5572 44.1122 21.6874C43.4811 23.825 43.4264 26.0095 43.7753 28.5724L44.7661 28.4375L45.757 28.3026C45.4333 25.9246 45.5026 24.0411 46.0303 22.2537C46.5603 20.4587 47.5755 18.6822 49.2643 16.5538L48.481 15.9322ZM44.7661 28.4375L43.7753 28.5724C43.9219 29.6498 44.1404 30.7975 44.4187 32.0391L45.3945 31.8204L46.3703 31.6017C46.1001 30.3965 45.8937 29.3073 45.757 28.3026L44.7661 28.4375ZM45.3945 31.8204L44.4187 32.0391C44.4248 32.0665 44.431 32.0939 44.4372 32.1215L45.4127 31.9015L46.3882 31.6815C46.3822 31.6549 46.3762 31.6283 46.3703 31.6017L45.3945 31.8204ZM45.4127 31.9015L44.4372 32.1215C44.4391 32.13 44.4411 32.1388 44.4431 32.1477L45.4185 31.9272L46.3939 31.7068C46.392 31.6984 46.3902 31.6901 46.3882 31.6814L45.4127 31.9015ZM45.4185 31.9272L44.4431 32.1476C44.4451 32.1563 44.447 32.1649 44.4489 32.1732L45.4242 31.9525L46.3996 31.7317C46.3976 31.7232 46.3958 31.715 46.3939 31.7068L45.4185 31.9272ZM30.164 28.9854L30.4948 29.9291C30.5014 29.9268 30.508 29.9245 30.5147 29.9221L30.1845 28.9782L29.8543 28.0343C29.8474 28.0367 29.8404 28.0392 29.8332 28.0417L30.164 28.9854ZM30.1845 28.9782L30.5147 29.9221C33.0825 29.0239 35.0418 28.6966 36.8312 28.8737C38.6132 29.05 40.3279 29.7368 42.3899 31.0441L42.9253 30.1995L43.4608 29.355C41.2421 27.9483 39.2265 27.1009 37.0282 26.8834C34.8374 26.6666 32.5667 27.0855 29.8543 28.0343L30.1845 28.9782ZM42.9253 30.1995L42.3899 31.0441C42.9919 31.4257 43.6214 31.8589 44.2893 32.346L44.8785 31.538L45.4677 30.73C44.7734 30.2237 44.1074 29.7649 43.4608 29.355L42.9253 30.1995ZM44.8785 31.538L44.2893 32.346C44.4436 32.4585 44.5999 32.5739 44.7583 32.6921L45.3564 31.8907L45.9544 31.0892C45.7905 30.9669 45.6283 30.8472 45.4677 30.73L44.8785 31.538ZM45.3564 31.8907L44.7583 32.6921C44.7648 32.697 44.7713 32.7018 44.778 32.7068L45.3764 31.9056L45.9748 31.1044C45.9681 31.0994 45.9613 31.0943 45.9544 31.0892L45.3564 31.8907ZM36.8107 18.4267L36.3442 19.3112C38.6795 20.5429 40.2486 21.7376 41.3744 23.1602C42.4971 24.5789 43.2357 26.296 43.7926 28.6662L44.7661 28.4375L45.7396 28.2087C45.1414 25.6627 44.3067 23.6427 42.9428 21.9191C41.5819 20.1995 39.7509 18.8469 37.2772 17.5422L36.8107 18.4267ZM44.7661 28.4375L43.7926 28.6662C44.024 29.6507 44.2228 30.7427 44.4054 31.9678L45.3945 31.8204L46.3836 31.6729C46.1956 30.4123 45.9873 29.263 45.7396 28.2087L44.7661 28.4375ZM45.3945 31.8204L44.4054 31.9677C44.406 31.9718 44.4065 31.9754 44.4071 31.9793L45.3962 31.832L46.3853 31.6847C46.3847 31.6809 46.3841 31.6767 46.3836 31.673L45.3945 31.8204ZM36.7848 18.4453L35.7878 18.5236C36.0216 21.4997 36.5477 23.8293 37.5998 25.8288C38.6566 27.8372 40.2002 29.4299 42.3312 31.0039L42.9253 30.1995L43.5195 29.3951C41.5401 27.9332 40.2416 26.5545 39.3698 24.8975C38.4933 23.2317 38.0044 21.2022 37.7817 18.367L36.7848 18.4453ZM42.9253 30.1995L42.3312 31.0039C42.9485 31.4598 43.6164 31.9151 44.3374 32.379L44.8785 31.538L45.4195 30.697C44.7259 30.2508 44.0947 29.82 43.5195 29.3951L42.9253 30.1995ZM44.8785 31.538L44.3374 32.379C44.5016 32.4846 44.6685 32.5907 44.8383 32.6974L45.3703 31.8506L45.9022 31.0038C45.7381 30.9007 45.5773 30.7985 45.4195 30.697L44.8785 31.538ZM42.3716 47.8961L43.329 47.6074C43.3269 47.6002 43.3248 47.5934 43.3228 47.5867L42.3652 47.8747L41.4075 48.1627C41.4098 48.1702 41.4121 48.1777 41.4142 48.1848L42.3716 47.8961ZM42.3652 47.8747L43.3228 47.5866C42.5398 44.9836 42.2527 42.957 42.4233 41.093C42.5932 39.2369 43.2244 37.4613 44.4035 35.3719L43.5325 34.8804L42.6616 34.389C41.3908 36.6411 40.6348 38.691 40.4316 40.9107C40.2292 43.1226 40.5833 45.4224 41.4076 48.1627L42.3652 47.8747ZM43.5325 34.8804L44.4035 35.3719C44.9016 34.4891 45.4956 33.5535 46.1917 32.5339L45.3658 31.9701L44.5399 31.4062C43.8228 32.4568 43.1958 33.4423 42.6616 34.389L43.5325 34.8804ZM45.3658 31.9701L46.1917 32.5339C46.2071 32.5114 46.2225 32.4889 46.2379 32.4664L45.4127 31.9015L44.5876 31.3366C44.5716 31.3599 44.5557 31.3831 44.5399 31.4062L45.3658 31.9701ZM45.4127 31.9015L46.2378 32.4664C46.2427 32.4594 46.2475 32.4523 46.2525 32.445L45.4276 31.8797L44.6027 31.3145C44.5978 31.3217 44.5927 31.3291 44.5876 31.3365L45.4127 31.9015ZM45.4276 31.8797L46.2525 32.445C46.2573 32.438 46.2622 32.4309 46.267 32.4239L45.4422 31.8584L44.6175 31.2929C44.6126 31.3001 44.6076 31.3073 44.6027 31.3145L45.4276 31.8797ZM30.1681 28.964L29.5116 29.7182C29.5173 29.7232 29.523 29.7282 29.5285 29.733L30.1845 28.9782L30.8406 28.2235C30.8351 28.2188 30.8299 28.2142 30.8247 28.2097L30.1681 28.964ZM30.1845 28.9782L29.5285 29.7329C31.698 31.6189 33.6529 32.8489 35.7683 33.4587C37.8911 34.0706 40.0768 34.0297 42.6579 33.5444L42.4731 32.5617L42.2883 31.5789C39.8898 32.0299 38.0431 32.033 36.3223 31.537C34.5943 31.0388 32.8946 30.009 30.8406 28.2235L30.1845 28.9782ZM42.4731 32.5617L42.6579 33.5444C43.4101 33.403 44.1983 33.2233 45.0304 33.01L44.7821 32.0414L44.5337 31.0727C43.7334 31.2779 42.9886 31.4472 42.2883 31.5789L42.4731 32.5617ZM44.7821 32.0414L45.0304 33.01C45.2229 32.9607 45.4179 32.9095 45.6153 32.8565L45.3564 31.8907L45.0974 30.9248C44.9065 30.976 44.7187 31.0253 44.5337 31.0727L44.7821 32.0414ZM45.3564 31.8907L45.6153 32.8566C45.6235 32.8544 45.6317 32.8522 45.6399 32.85L45.3805 31.8842L45.1211 30.9184C45.1132 30.9205 45.1053 30.9227 45.0974 30.9248L45.3564 31.8907ZM32.4437 41.2354L32.5496 42.2298C35.3299 41.9336 37.5308 41.355 39.4305 40.2611C41.3346 39.1647 42.8564 37.5968 44.3526 35.4527L43.5325 34.8804L42.7125 34.3082C41.3197 36.304 39.9994 37.6257 38.4325 38.5279C36.8613 39.4326 34.9623 39.9615 32.3378 40.241L32.4437 41.2354ZM43.5325 34.8804L44.3526 35.4527C44.9721 34.565 45.5902 33.5742 46.2304 32.4725L45.3658 31.9701L44.5012 31.4676C43.879 32.5383 43.291 33.4792 42.7125 34.3082L43.5325 34.8804ZM45.3658 31.9701L46.2305 32.4725C46.2316 32.4706 46.2327 32.4687 46.2336 32.467C46.2346 32.4653 46.2355 32.4638 46.2364 32.4623L45.3717 31.9599L44.5071 31.4576C44.4956 31.4772 44.5121 31.449 44.5012 31.4677L45.3658 31.9701ZM32.4265 41.2085L33.3239 41.6496C34.578 39.0979 35.7818 37.3935 37.2112 36.1705C38.633 34.9541 40.3484 34.1541 42.7273 33.5288L42.4731 32.5617L42.2189 31.5945C39.6575 32.2677 37.6348 33.176 35.911 34.6508C34.1948 36.1191 32.8454 38.0889 31.529 40.7674L32.4265 41.2085ZM42.4731 32.5617L42.7273 33.5288C43.4186 33.3471 44.1642 33.1806 44.9734 33.0229L44.7821 32.0414L44.5907 31.0598C43.7495 31.2238 42.9608 31.3995 42.2189 31.5945L42.4731 32.5617ZM44.7821 32.0414L44.9734 33.0229C45.1574 32.987 45.3447 32.9516 45.5352 32.9166L45.3545 31.9331L45.1738 30.9495C44.9766 30.9858 44.7823 31.0225 44.5907 31.0598L44.7821 32.0414ZM48.4745 15.9108L47.5171 16.1995C47.5191 16.2063 47.5212 16.2131 47.5233 16.2202L48.481 15.9322L49.4386 15.6442C49.4364 15.6371 49.4342 15.6297 49.4319 15.6222L48.4745 15.9108ZM48.481 15.9322L47.5233 16.2203C48.3063 18.8233 48.5935 20.8499 48.4228 22.7139C48.253 24.5701 47.6217 26.3456 46.4427 28.4351L47.3136 28.9265L48.1845 29.4179C49.4553 27.1659 50.2114 25.1159 50.4145 22.8962C50.617 20.6843 50.2629 18.3846 49.4386 15.6442L48.481 15.9322ZM47.3136 28.9265L46.4427 28.4351C45.9446 29.3178 45.3505 30.2534 44.6544 31.273L45.4803 31.8369L46.3062 32.4007C47.0234 31.3502 47.6503 30.3647 48.1845 29.4179L47.3136 28.9265ZM45.4803 31.8369L44.6544 31.273C44.6391 31.2955 44.6237 31.318 44.6083 31.3405L45.4334 31.9055L46.2586 32.4704C46.2745 32.4471 46.2904 32.4239 46.3062 32.4007L45.4803 31.8369ZM45.4334 31.9055L44.6083 31.3405C44.6034 31.3477 44.5985 31.3548 44.5936 31.3619L45.4185 31.9272L46.2434 32.4925C46.2485 32.4851 46.2535 32.4777 46.2586 32.4704L45.4334 31.9055ZM45.4185 31.9272L44.5936 31.3619C44.5885 31.3694 44.5839 31.3761 44.5792 31.383L45.4039 31.9485L46.2286 32.5141C46.2336 32.5068 46.2388 32.4993 46.2434 32.4925L45.4185 31.9272ZM60.678 34.843L61.3346 34.0887C61.3291 34.084 61.3234 34.079 61.3177 34.074L60.6616 34.8287L60.0055 35.5834C60.0107 35.5879 60.016 35.5925 60.0214 35.5972L60.678 34.843ZM60.6616 34.8287L61.3177 34.074C59.1481 32.1881 57.1933 30.9581 55.0778 30.3482C52.9551 29.7363 50.7693 29.7772 48.1883 30.2625L48.3731 31.2453L48.5578 32.2281C50.9564 31.7771 52.8031 31.774 54.5238 32.27C56.2519 32.7681 57.9515 33.7979 60.0056 35.5834L60.6616 34.8287ZM48.3731 31.2453L48.1883 30.2625C47.436 30.4039 46.6478 30.5836 45.8157 30.7969L46.064 31.7656L46.3124 32.7343C47.1127 32.5291 47.8576 32.3597 48.5578 32.2281L48.3731 31.2453ZM46.064 31.7656L45.8157 30.7969C45.6232 30.8463 45.4283 30.8974 45.2308 30.9504L45.4898 31.9163L45.7487 32.8822C45.9396 32.831 46.1274 32.7817 46.3124 32.7343L46.064 31.7656ZM45.4898 31.9163L45.2308 30.9504C45.2225 30.9526 45.2137 30.955 45.2063 30.957L45.4656 31.9228L45.725 32.8885C45.7337 32.8862 45.7409 32.8843 45.7487 32.8822L45.4898 31.9163ZM58.4025 22.5716L58.2966 21.5772C55.5163 21.8733 53.3153 22.452 51.4156 23.5458C49.5115 24.6423 47.9898 26.2102 46.4935 28.3542L47.3136 28.9265L48.1336 29.4988C49.5264 27.503 50.8468 26.1813 52.4136 25.2791C53.9848 24.3743 55.8838 23.8455 58.5084 23.5659L58.4025 22.5716ZM47.3136 28.9265L46.4935 28.3542C45.874 29.242 45.2559 30.2328 44.6157 31.3344L45.4803 31.8369L46.3449 32.3393C46.9671 31.2687 47.5552 30.3277 48.1336 29.4988L47.3136 28.9265ZM45.4803 31.8369L44.6157 31.3345C44.6139 31.3375 44.6116 31.3415 44.6098 31.3446L45.4744 31.847L46.3391 32.3494C46.3412 32.3458 46.3428 32.343 46.345 32.3392L45.4803 31.8369ZM58.4197 22.5984L57.5222 22.1574C56.2681 24.7091 55.0644 26.4135 53.635 27.6364C52.2131 28.8528 50.4978 29.6529 48.1188 30.2781L48.3731 31.2453L48.6273 32.2124C51.1886 31.5392 53.2113 30.6309 54.9352 29.1561C56.6514 27.6878 58.0008 25.718 59.3171 23.0395L58.4197 22.5984ZM48.3731 31.2453L48.1188 30.2781C47.4275 30.4598 46.6819 30.6263 45.8727 30.7841L46.064 31.7656L46.2554 32.7471C47.0966 32.5831 47.8854 32.4074 48.6273 32.2124L48.3731 31.2453ZM46.064 31.7656L45.8727 30.7841C45.6887 30.8199 45.5015 30.8553 45.3109 30.8904L45.4916 31.8739L45.6724 32.8574C45.8695 32.8212 46.0638 32.7845 46.2554 32.7471L46.064 31.7656ZM42.3513 47.8922L43.1342 48.5143C43.139 48.5083 43.1437 48.5023 43.1486 48.4962L42.3652 47.8747L41.5818 47.2532C41.5773 47.2588 41.5729 47.2644 41.5683 47.2701L42.3513 47.8922ZM42.3652 47.8747L43.1485 48.4963C44.9266 46.2554 46.1051 44.2497 46.734 42.1196C47.3651 39.982 47.4197 37.7975 47.0709 35.2346L46.08 35.3695L45.0891 35.5043C45.4128 37.8824 45.3435 39.7658 44.8158 41.5533C44.2859 43.3482 43.2706 45.1247 41.5818 47.2531L42.3652 47.8747ZM46.08 35.3695L47.0709 35.2346C46.9242 34.1572 46.7058 33.0094 46.4274 31.7678L45.4517 31.9866L44.4759 32.2053C44.746 33.4104 44.9524 34.4997 45.0891 35.5043L46.08 35.3695ZM45.4517 31.9866L46.4274 31.7678C46.4213 31.7404 46.4151 31.713 46.4089 31.6854L45.4334 31.9055L44.4579 32.1255C44.4639 32.1521 44.4699 32.1787 44.4759 32.2053L45.4517 31.9866ZM45.4334 31.9055L46.4089 31.6854C46.407 31.6768 46.405 31.6681 46.403 31.6593L45.4276 31.8797L44.4522 32.1002C44.4541 32.1085 44.456 32.1169 44.4579 32.1255L45.4334 31.9055ZM45.4276 31.8797L46.403 31.6593C46.4011 31.6507 46.3991 31.6421 46.3972 31.6337L45.4219 31.8545L44.4466 32.0752C44.4485 32.0838 44.4504 32.092 44.4522 32.1002L45.4276 31.8797ZM60.6821 34.8215L60.3513 33.8779C60.3448 33.8801 60.3385 33.8823 60.3314 33.8848L60.6616 34.8287L60.9918 35.7726C60.9984 35.7703 61.0057 35.7678 61.013 35.7652L60.6821 34.8215ZM60.6616 34.8287L60.3314 33.8848C57.7637 34.783 55.8043 35.1104 54.0149 34.9333C52.2329 34.7569 50.5182 34.0701 48.4562 32.7628L47.9208 33.6074L47.3853 34.452C49.604 35.8586 51.6197 36.706 53.8179 36.9236C56.0087 37.1404 58.2794 36.7214 60.9918 35.7726L60.6616 34.8287ZM47.9208 33.6074L48.4562 32.7628C47.8542 32.3812 47.2248 31.948 46.5569 31.461L45.9677 32.269L45.3785 33.0769C46.0727 33.5832 46.7387 34.042 47.3853 34.452L47.9208 33.6074ZM45.9677 32.269L46.5569 31.461C46.4026 31.3484 46.2463 31.2331 46.0878 31.1148L45.4898 31.9163L44.8917 32.7177C45.0556 32.84 45.2178 32.9598 45.3785 33.0769L45.9677 32.269ZM45.4898 31.9163L46.0878 31.1148C46.0813 31.11 46.0748 31.1051 46.0681 31.1001L45.4697 31.9013L44.8713 32.7025C44.878 32.7075 44.8849 32.7126 44.8917 32.7177L45.4898 31.9163ZM54.0354 45.3802L54.502 44.4957C52.1667 43.264 50.5975 42.0694 49.4717 40.6467C48.349 39.228 47.6104 37.5109 47.0535 35.1407L46.08 35.3695L45.1065 35.5982C45.7048 38.1442 46.5394 40.1643 47.9034 41.8878C49.2642 43.6074 51.0952 44.9601 53.5689 46.2647L54.0354 45.3802ZM46.08 35.3695L47.0535 35.1407C46.8222 34.1563 46.6234 33.0643 46.4407 31.8391L45.4517 31.9866L44.4626 32.134C44.6505 33.3946 44.8588 34.544 45.1065 35.5982L46.08 35.3695ZM45.4517 31.9866L46.4407 31.8392C46.4401 31.8352 46.4396 31.8315 46.439 31.8276L45.4499 31.9749L44.4608 32.1223C44.4614 32.1261 44.462 32.1302 44.4626 32.1339L45.4517 31.9866ZM54.0614 45.3616L55.0583 45.2833C54.8246 42.3072 54.2984 39.9776 53.2463 37.9781C52.1896 35.9698 50.6459 34.377 48.5149 32.803L47.9208 33.6074L47.3266 34.4118C49.306 35.8737 50.6045 37.2524 51.4764 38.9094C52.3529 40.5752 52.8418 42.6047 53.0644 45.4399L54.0614 45.3616ZM47.9208 33.6074L48.5149 32.803C47.8977 32.3471 47.2297 31.8918 46.5088 31.428L45.9677 32.269L45.4266 33.1099C46.1202 33.5561 46.7514 33.9869 47.3266 34.4118L47.9208 33.6074ZM45.9677 32.269L46.5088 31.428C46.3446 31.3224 46.1776 31.2163 46.0078 31.1096L45.4758 31.9563L44.9439 32.8031C45.108 32.9062 45.2689 33.0085 45.4266 33.1099L45.9677 32.269Z" fill="#795338"/>
</svg>
