<svg width="240" height="62" viewBox="0 0 240 62" fill="none" xmlns="http://www.w3.org/2000/svg">
<path d="M50.78 24.167L51.2793 24.1407C51.265 23.87 51.0378 23.66 50.7668 23.6672C50.4959 23.6743 50.28 23.896 50.28 24.167H50.78ZM2.92664 36.2039L2.50973 36.4799C2.51745 36.4916 2.52565 36.5029 2.53432 36.5139L2.92664 36.2039ZM12.015 18.925L11.8787 19.4061L12.015 18.925ZM18.2046 28.62L18.7023 28.6679L18.7023 28.6679L18.2046 28.62ZM36.7952 41.4286C37.0657 41.3731 37.2401 41.1089 37.1846 40.8384C37.1291 40.5679 36.8649 40.3935 36.5943 40.449L36.7952 41.4286ZM52.2983 28.3727C52.1186 28.5823 52.1428 28.8979 52.3524 29.0777C52.562 29.2575 52.8777 29.2333 53.0574 29.0236L52.2983 28.3727ZM55.185 39.644L54.9804 39.1878L54.9804 39.1878L55.185 39.644ZM17.3546 49.8167C17.0983 49.7139 16.8072 49.8383 16.7044 50.0946C16.6016 50.3509 16.726 50.642 16.9823 50.7448L17.3546 49.8167ZM27.2559 35.1144L27.0726 35.5796L27.0726 35.5796L27.2559 35.1144ZM33.4051 38.6969L33.5547 39.174L33.4051 38.6969ZM33.3043 33.7306L33.3018 34.2306L33.3018 34.2306L33.3043 33.7306ZM44.4992 2.17074L44.9919 2.08618C44.9499 1.84135 44.7346 1.66449 44.4862 1.67091C44.2379 1.67733 44.0319 1.86509 44.0026 2.11176L44.4992 2.17074ZM40.404 36.6448L39.9075 36.5858C39.8843 36.7812 39.9778 36.9721 40.1465 37.0734C40.3152 37.1747 40.5276 37.1677 40.6892 37.0555L40.404 36.6448ZM40.4678 36.6005L40.7531 37.0111L40.7531 37.0111L40.4678 36.6005ZM47.6691 28.5157L48.1311 28.7067L47.6691 28.5157ZM53.1939 3.99347L53.6856 4.08422C53.6945 4.03572 53.6962 3.98617 53.6907 3.93717L53.1939 3.99347ZM47.5132 5.81527L47.6067 5.32409L47.5132 5.81527ZM47.623 4.0827L47.4618 4.556L47.4618 4.556L47.623 4.0827ZM48.9862 1.21911L48.9285 1.71577L48.9862 1.21911ZM48.8143 2.22444C48.5388 2.20614 48.3006 2.41467 48.2823 2.6902C48.264 2.96574 48.4725 3.20394 48.748 3.22224L48.8143 2.22444ZM56.5872 56.0756L56.0929 56.0002L56.5872 56.0756ZM29.3535 60.2713L29.4286 59.777L29.3535 60.2713ZM4.60352 48.181L4.10924 48.1056L4.60352 48.181ZM48.2514 47.8822C47.9974 47.7739 47.7036 47.892 47.5953 48.146C47.4871 48.4 47.6052 48.6938 47.8592 48.8021L48.2514 47.8822ZM8.80275 46.0079C9.07889 46.0079 9.30275 45.784 9.30275 45.5079C9.30275 45.2318 9.07889 45.0079 8.80275 45.0079L8.80275 46.0079ZM42.1752 21.6884C42.4514 21.6905 42.677 21.4685 42.6792 21.1923C42.6813 20.9162 42.4592 20.6906 42.1831 20.6884L42.1752 21.6884ZM39.1692 20.7802C38.8937 20.7983 38.6849 21.0363 38.703 21.3119C38.7211 21.5874 38.9591 21.7962 39.2346 21.7781L39.1692 20.7802ZM50.3179 24.2266C50.396 24.4915 50.674 24.6429 50.9388 24.5649C51.2037 24.4868 51.3552 24.2088 51.2771 23.9439L50.3179 24.2266ZM49.7214 22.1345C49.4841 21.9933 49.1772 22.0711 49.036 22.3084C48.8947 22.5456 48.9725 22.8525 49.2098 22.9938L49.7214 22.1345ZM29.9848 10.4402C30.1569 10.2243 30.1215 9.90971 29.9055 9.73757C29.6896 9.56543 29.375 9.60093 29.2029 9.81685L29.9848 10.4402ZM27.2576 19.8619C27.3188 20.1312 27.5867 20.2999 27.8559 20.2387C28.1252 20.1776 28.2939 19.9097 28.2328 19.6404L27.2576 19.8619ZM18.393 17.4989C18.1323 17.59 17.9948 17.8752 18.0859 18.1358C18.177 18.3965 18.4622 18.534 18.7228 18.443L18.393 17.4989ZM27.4179 20.1242C27.6394 20.289 27.9526 20.2431 28.1175 20.0216C28.2824 19.8001 28.2365 19.4869 28.015 19.322L27.4179 20.1242ZM22.7921 11.1931C22.5477 11.0647 22.2454 11.1587 22.1169 11.4031C21.9884 11.6475 22.0824 11.9498 22.3269 12.0783L22.7921 11.1931ZM27.2338 19.7528C27.2747 20.0259 27.5291 20.2142 27.8023 20.1734C28.0754 20.1326 28.2637 19.8781 28.2228 19.605L27.2338 19.7528ZM23.0423 11.6076C23.0207 11.3323 22.7799 11.1267 22.5046 11.1484C22.2293 11.1701 22.0237 11.4109 22.0454 11.6862L23.0423 11.6076ZM27.4474 20.1138C27.6814 20.2604 27.99 20.1894 28.1365 19.9554C28.2831 19.7213 28.2121 19.4128 27.9781 19.2663L27.4474 20.1138ZM25.4288 29.4621C25.5088 29.7264 25.7879 29.8759 26.0522 29.7959C26.3165 29.716 26.4659 29.4369 26.386 29.1726L25.4288 29.4621ZM28.168 19.9781C28.3245 19.7507 28.267 19.4393 28.0395 19.2828C27.812 19.1263 27.5007 19.1838 27.3441 19.4113L28.168 19.9781ZM18.888 17.5804C18.6795 17.3994 18.3637 17.4218 18.1827 17.6304C18.0018 17.839 18.0242 18.1548 18.2328 18.3358L18.888 17.5804ZM27.8482 20.1932C28.1149 20.1218 28.2733 19.8477 28.2019 19.5809C28.1305 19.3142 27.8564 19.1558 27.5896 19.2272L27.8482 20.1932ZM19.8776 24.8237C19.603 24.8529 19.404 25.0991 19.4332 25.3737C19.4623 25.6483 19.7086 25.8473 19.9832 25.8181L19.8776 24.8237ZM28.1455 20.0075C28.2846 19.7689 28.204 19.4628 27.9654 19.3237C27.7268 19.1846 27.4207 19.2653 27.2816 19.5038L28.1455 20.0075ZM19.4716 25.0837C19.3494 25.3313 19.4512 25.6311 19.6989 25.7532C19.9465 25.8754 20.2463 25.7736 20.3685 25.5259L19.4716 25.0837ZM27.7933 20.2313C28.0649 20.1816 28.2448 19.9211 28.195 19.6495C28.1453 19.3778 27.8848 19.198 27.6132 19.2477L27.7933 20.2313ZM30.0602 9.98141C29.9802 9.7171 29.7011 9.56765 29.4368 9.64762C29.1725 9.72758 29.0231 10.0067 29.103 10.271L30.0602 9.98141ZM27.321 19.4654C27.1645 19.6929 27.222 20.0042 27.4495 20.1607C27.677 20.3173 27.9883 20.2597 28.1449 20.0322L27.321 19.4654ZM36.6009 21.8632C36.8095 22.0441 37.1253 22.0217 37.3063 21.8131C37.4872 21.6045 37.4648 21.2887 37.2562 21.1078L36.6009 21.8632ZM27.6409 19.2503C27.3741 19.3217 27.2157 19.5959 27.2871 19.8626C27.3585 20.1294 27.6326 20.2877 27.8994 20.2163L27.6409 19.2503ZM35.6114 14.6198C35.886 14.5907 36.085 14.3444 36.0558 14.0698C36.0267 13.7952 35.7804 13.5963 35.5058 13.6254L35.6114 14.6198ZM27.3435 19.4361C27.2044 19.6746 27.285 19.9808 27.5236 20.1198C27.7622 20.2589 28.0683 20.1783 28.2074 19.9397L27.3435 19.4361ZM36.0174 14.3599C36.1396 14.1122 36.0378 13.8124 35.7901 13.6903C35.5425 13.5682 35.2427 13.6699 35.1205 13.9176L36.0174 14.3599ZM27.6957 19.2122C27.4241 19.2619 27.2442 19.5225 27.294 19.7941C27.3437 20.0657 27.6042 20.2456 27.8758 20.1958L27.6957 19.2122ZM25.5042 29.0033C25.3321 29.2192 25.3675 29.5338 25.5835 29.706C25.7994 29.8781 26.114 29.8426 26.2861 29.6267L25.5042 29.0033ZM28.2314 19.5816C28.1702 19.3124 27.9023 19.1436 27.6331 19.2048C27.3638 19.266 27.1951 19.5338 27.2562 19.8031L28.2314 19.5816ZM37.096 21.9446C37.3567 21.8535 37.4942 21.5684 37.4031 21.3077C37.312 21.047 37.0268 20.9095 36.7662 21.0006L37.096 21.9446ZM28.0711 19.3194C27.8496 19.1545 27.5364 19.2004 27.3715 19.4219C27.2066 19.6434 27.2525 19.9567 27.474 20.1216L28.0711 19.3194ZM32.6969 28.2504C32.9413 28.3789 33.2436 28.2849 33.3721 28.0405C33.5006 27.796 33.4066 27.4937 33.1621 27.3652L32.6969 28.2504ZM28.2552 19.6907C28.2144 19.4176 27.9599 19.2293 27.6867 19.2701C27.4136 19.311 27.2253 19.5655 27.2662 19.8386L28.2552 19.6907ZM32.4467 27.8359C32.4683 28.1112 32.7091 28.3168 32.9844 28.2951C33.2597 28.2734 33.4653 28.0327 33.4436 27.7574L32.4467 27.8359ZM28.0416 19.3297C27.8076 19.1832 27.499 19.2541 27.3525 19.4882C27.2059 19.7222 27.2769 20.0307 27.5109 20.1773L28.0416 19.3297ZM50.78 24.167H50.28C50.28 28.5418 48.1294 32.3924 44.6557 35.492C41.1789 38.5945 36.399 40.9205 31.2267 42.2199C20.8416 44.8288 9.13268 43.2519 3.31895 35.8939L2.92664 36.2039L2.53432 36.5139C8.7079 44.3273 20.9257 45.8388 31.4704 43.1897C36.763 41.8601 41.6989 39.4707 45.3215 36.2381C48.9473 33.0028 51.28 28.8989 51.28 24.167H50.78ZM2.92664 36.2039L3.34354 35.9279C0.573714 31.7445 1.2202 27.1915 3.33821 23.8755C5.48357 20.5167 9.00934 18.593 11.8787 19.4061L12.015 18.925L12.1513 18.444C8.6745 17.4588 4.75718 19.7962 2.49545 23.3372C0.20636 26.9211 -0.518237 31.9066 2.50973 36.4799L2.92664 36.2039ZM12.015 18.925L11.8787 19.4061C14.2481 20.0775 15.7831 21.4025 16.6894 23.0217C17.6019 24.652 17.8954 26.6153 17.7069 28.572L18.2046 28.62L18.7023 28.6679C18.9055 26.559 18.5962 24.381 17.562 22.5333C16.5216 20.6745 14.766 19.1849 12.1513 18.444L12.015 18.925ZM18.2046 28.62L17.7069 28.572C17.2937 32.8593 18.9906 36.7279 22.3617 39.1934C25.7256 41.6536 30.6997 42.6786 36.7952 41.4286L36.6948 40.9388L36.5943 40.449C30.7026 41.6572 26.0348 40.6408 22.952 38.3862C19.8763 36.1368 18.3217 32.6169 18.7023 28.6679L18.2046 28.62ZM52.6779 28.6982L53.0574 29.0236C54.7542 27.045 56.1302 26.6544 57.0769 26.9207C58.0535 27.1954 58.8713 28.2445 59.2639 29.8071C60.046 32.9197 58.9663 37.3997 54.9804 39.1878L55.185 39.644L55.3897 40.1002C59.9437 38.0573 61.097 32.9988 60.2337 29.5634C59.8037 27.852 58.8293 26.3748 57.3477 25.958C55.8362 25.5329 54.088 26.2857 52.2983 28.3727L52.6779 28.6982ZM50.78 24.167L50.2807 24.1933C50.7446 32.9899 49.2507 39.5493 46.4321 44.1245L46.8578 44.3867L47.2835 44.649C50.2428 39.8454 51.7499 33.0637 51.2793 24.1407L50.78 24.167ZM46.8578 44.3867L46.4321 44.1245C46.2899 44.3553 46.1443 44.5811 45.9954 44.8019L46.41 45.0814L46.8246 45.3609C46.9812 45.1287 47.1342 44.8913 47.2835 44.649L46.8578 44.3867ZM46.41 45.0814L45.9954 44.8019C40.2317 53.3497 29.3235 54.6177 17.3546 49.8167L17.1685 50.2807L16.9823 50.7448C29.1454 55.6238 40.6744 54.4819 46.8246 45.3609L46.41 45.0814ZM55.185 39.644L54.9804 39.1878C54.1702 39.5513 53.3628 39.8741 52.5663 40.1972C51.7739 40.5186 50.992 40.8403 50.2537 41.1951C48.7775 41.9045 47.4317 42.7657 46.4554 44.09L46.8578 44.3867L47.2603 44.6834C48.096 43.5498 49.273 42.7758 50.6868 42.0964C51.3936 41.7568 52.1487 41.4457 52.9421 41.1239C53.7315 40.8037 54.5589 40.4729 55.3897 40.1002L55.185 39.644ZM46.8578 44.3867L46.4554 44.09C46.2823 44.3247 46.1214 44.5732 45.9737 44.8372L46.41 45.0814L46.8463 45.3256C46.9735 45.0984 47.1117 44.8849 47.2603 44.6834L46.8578 44.3867ZM27.2559 35.1144L27.4392 34.6493C26.9792 34.468 26.5463 34.3732 26.1886 34.4532C25.9941 34.4968 25.8064 34.5963 25.6716 34.7726C25.5394 34.9455 25.4945 35.1445 25.493 35.3234C25.4903 35.6616 25.6397 36.0199 25.8334 36.3407C26.0357 36.6758 26.3228 37.03 26.6742 37.3726C28.0635 38.7273 30.6587 40.082 33.5547 39.174L33.4051 38.6969L33.2555 38.2198C30.8291 38.9806 28.6012 37.8549 27.3723 36.6567C27.0692 36.3611 26.8395 36.0725 26.6895 35.8239C26.5309 35.5611 26.4925 35.395 26.493 35.3315C26.4932 35.3096 26.4976 35.3386 26.4659 35.38C26.4316 35.4249 26.3955 35.4317 26.407 35.4291C26.4615 35.4169 26.6584 35.4164 27.0726 35.5796L27.2559 35.1144ZM33.4051 38.6969L33.5547 39.174C34.7066 38.8129 35.5041 38.2843 35.9731 37.6424C36.4501 36.9895 36.5562 36.2598 36.3916 35.5881C36.0731 34.2887 34.7558 33.238 33.3069 33.2306L33.3043 33.7306L33.3018 34.2306C34.3068 34.2357 35.2145 34.9864 35.4203 35.8261C35.5179 36.224 35.4609 36.6483 35.1656 37.0525C34.8624 37.4676 34.2784 37.8992 33.2555 38.2198L33.4051 38.6969ZM33.3043 33.7306L33.3069 33.2306C32.404 33.226 31.8006 33.4521 31.3458 33.803C31.1276 33.9715 30.9582 34.1576 30.8173 34.3262C30.6616 34.5124 30.5735 34.6336 30.4486 34.7716C30.2431 34.9987 30.0458 35.1438 29.676 35.1748C29.2591 35.2097 28.5862 35.1013 27.4392 34.6493L27.2559 35.1144L27.0726 35.5796C28.2626 36.0486 29.1098 36.2257 29.7595 36.1713C30.4564 36.1129 30.8723 35.7938 31.1901 35.4426C31.3269 35.2915 31.478 35.0949 31.5845 34.9676C31.7057 34.8225 31.8215 34.6991 31.9568 34.5947C32.2092 34.3999 32.5866 34.2269 33.3018 34.2306L33.3043 33.7306ZM44.4992 2.17074L44.0026 2.11176L39.9075 36.5858L40.404 36.6448L40.9005 36.7038L44.9957 2.22972L44.4992 2.17074ZM40.404 36.6448L40.6892 37.0555L40.7531 37.0111L40.4678 36.6005L40.1826 36.1898L40.1187 36.2342L40.404 36.6448ZM40.4678 36.6005L40.7531 37.0111C43.1413 35.3522 46.2828 33.1772 48.1311 28.7067L47.6691 28.5157L47.207 28.3246C45.4792 32.5036 42.5613 34.5375 40.1826 36.1898L40.4678 36.6005ZM47.6691 28.5157L48.1311 28.7067C48.5994 27.574 49.1784 25.4582 49.7795 22.9602C50.3839 20.4493 51.0193 17.5145 51.5976 14.7196C52.1761 11.9241 52.698 9.2655 53.0753 7.30599C53.264 6.32615 53.4165 5.52094 53.5219 4.96059C53.5745 4.68042 53.6155 4.46144 53.6432 4.31246C53.6571 4.23796 53.6676 4.18096 53.6748 4.14256C53.6783 4.12336 53.681 4.1088 53.6828 4.09903C53.6837 4.09415 53.6844 4.09046 53.6849 4.08799C53.6851 4.08675 53.6853 4.08581 53.6854 4.08519C53.6854 4.08487 53.6855 4.08463 53.6855 4.08447C53.6856 4.08431 53.6856 4.08422 53.1939 3.99347C52.7022 3.90271 52.7022 3.90278 52.7021 3.90292C52.7021 3.90307 52.7021 3.90329 52.702 3.90359C52.7019 3.90419 52.7017 3.90509 52.7015 3.9063C52.7011 3.90871 52.7004 3.91233 52.6995 3.91716C52.6977 3.9268 52.6951 3.94122 52.6915 3.9603C52.6844 3.99844 52.6739 4.05517 52.6601 4.12939C52.6325 4.27783 52.5917 4.49622 52.5391 4.77578C52.4339 5.3349 52.2817 6.13869 52.0933 7.11692C51.7166 9.07353 51.1956 11.7273 50.6184 14.517C50.041 17.3072 49.408 20.2302 48.8073 22.7263C48.2034 25.2353 47.6407 27.2756 47.207 28.3246L47.6691 28.5157ZM44.4992 2.17074C44.0064 2.2553 44.0064 2.25549 44.0064 2.25569C44.0064 2.25577 44.0065 2.25599 44.0065 2.25615C44.0066 2.25649 44.0066 2.25687 44.0067 2.2573C44.0068 2.25816 44.007 2.25921 44.0073 2.26046C44.0077 2.26295 44.0083 2.2662 44.009 2.2702C44.0105 2.2782 44.0126 2.28917 44.0153 2.30294C44.0207 2.33047 44.0286 2.36921 44.0396 2.41772C44.0613 2.51464 44.0949 2.65105 44.1431 2.81513C44.2392 3.14197 44.3955 3.58555 44.6369 4.04809C45.1143 4.96284 45.9691 6.03036 47.4197 6.30645L47.5132 5.81527L47.6067 5.32409C46.588 5.13019 45.9357 4.37545 45.5234 3.58543C45.32 3.19559 45.1858 2.81616 45.1025 2.53308C45.0611 2.39221 45.0329 2.27693 45.0152 2.19841C45.0064 2.1592 45.0003 2.12928 44.9965 2.11008C44.9946 2.10048 44.9933 2.09357 44.9926 2.08952C44.9922 2.0875 44.992 2.0862 44.9919 2.08563C44.9918 2.08535 44.9918 2.08525 44.9918 2.08534C44.9918 2.08539 44.9918 2.08548 44.9919 2.08562C44.9919 2.08569 44.9919 2.08583 44.9919 2.08586C44.9919 2.08602 44.9919 2.08618 44.4992 2.17074ZM47.5132 5.81527L47.4197 6.30645C49.6771 6.7361 51.2267 6.26035 52.2239 5.63285C52.7167 5.32269 53.0635 4.9825 53.2894 4.71563C53.4024 4.58214 53.4855 4.46653 53.542 4.3814C53.5702 4.33881 53.5918 4.30374 53.6072 4.27776C53.6149 4.26477 53.6211 4.25403 53.6257 4.24575C53.628 4.24161 53.63 4.23808 53.6316 4.23518C53.6324 4.23374 53.6331 4.23245 53.6337 4.23132C53.634 4.23076 53.6343 4.23024 53.6345 4.22975C53.6346 4.22951 53.6348 4.22918 53.6349 4.22906C53.6351 4.22874 53.6352 4.22843 53.1939 3.99347C52.7525 3.7585 52.7527 3.75821 52.7528 3.75793C52.7529 3.75785 52.753 3.75758 52.7531 3.75742C52.7533 3.7571 52.7534 3.75682 52.7536 3.75657C52.7538 3.75608 52.754 3.75575 52.7541 3.75556C52.7543 3.7552 52.7542 3.75544 52.7537 3.75626C52.7528 3.7579 52.7505 3.76187 52.7469 3.76798C52.7397 3.78021 52.727 3.80098 52.7085 3.82888C52.6715 3.88472 52.6115 3.96868 52.5261 4.06958C52.3552 4.27151 52.0839 4.53942 51.6913 4.78648C50.9175 5.2734 49.6267 5.70856 47.6067 5.32409L47.5132 5.81527ZM47.623 4.0827L47.7842 3.6094C46.9326 3.31936 46.7007 2.71309 46.7882 2.37496C46.8658 2.07553 47.3387 1.5311 48.9285 1.71577L48.9862 1.21911L49.0439 0.722447C47.3063 0.520607 46.0941 1.06618 45.8202 2.12429C45.5562 3.14368 46.3063 4.16247 47.4618 4.556L47.623 4.0827ZM48.9862 1.21911L48.9285 1.71577C50.8006 1.93324 51.7305 2.58054 52.1938 3.10807C52.4293 3.37627 52.5567 3.62735 52.6245 3.80388C52.6586 3.89235 52.6777 3.96218 52.6878 4.00592C52.6929 4.02776 52.6957 4.04299 52.697 4.05066C52.6976 4.05448 52.6979 4.0564 52.6979 4.0563C52.6978 4.05625 52.6978 4.05569 52.6976 4.0546C52.6976 4.05406 52.6975 4.05339 52.6974 4.05258C52.6973 4.05218 52.6973 4.05175 52.6972 4.05128C52.6972 4.05104 52.6972 4.05066 52.6971 4.05055C52.6971 4.05016 52.6971 4.04977 53.1939 3.99347C53.6907 3.93717 53.6906 3.93676 53.6906 3.93633C53.6906 3.93618 53.6905 3.93575 53.6905 3.93545C53.6904 3.93484 53.6903 3.93419 53.6903 3.9335C53.6901 3.93214 53.6899 3.93062 53.6897 3.92897C53.6893 3.92565 53.6888 3.92177 53.6881 3.91732C53.6869 3.90842 53.6852 3.89728 53.683 3.88403C53.6785 3.85754 53.6718 3.82257 53.662 3.78018C53.6424 3.69547 53.6101 3.58078 53.5579 3.44496C53.4533 3.1729 53.2684 2.81633 52.9452 2.44822C52.2909 1.70314 51.1169 0.963262 49.0439 0.722447L48.9862 1.21911ZM47.623 4.0827L47.4618 4.556C48.1425 4.78783 48.8003 4.82605 49.3536 4.74204C49.8903 4.66055 50.3851 4.45403 50.6857 4.13521C50.8397 3.97188 50.9732 3.74382 50.9741 3.46649C50.975 3.17698 50.8315 2.93716 50.6336 2.76496C50.2709 2.44933 49.6437 2.27952 48.8143 2.22444L48.7812 2.72334L48.748 3.22224C49.5368 3.27462 49.876 3.43134 49.9771 3.51932C50.0111 3.54893 49.9739 3.5302 49.9741 3.46329C49.9743 3.40857 50.0001 3.40465 49.958 3.44924C49.8666 3.54627 49.6161 3.69073 49.2035 3.75337C48.8074 3.81351 48.3117 3.78905 47.7842 3.6094L47.623 4.0827ZM56.5872 56.0756L56.0929 56.0002C55.9565 56.8947 55.2332 57.7493 53.8274 58.4931C52.4322 59.2312 50.456 59.808 48.0201 60.1833C43.1544 60.9329 36.5702 60.8616 29.4286 59.777L29.3535 60.2713L29.2784 60.7657C36.4918 61.8611 43.1815 61.9405 48.1724 61.1716C50.6648 60.7876 52.7626 60.1878 54.2951 59.377C55.817 58.5718 56.875 57.5051 57.0815 56.151L56.5872 56.0756ZM29.3535 60.2713L29.4286 59.777C22.287 58.6925 15.9796 56.806 11.5577 54.6459C9.34395 53.5645 7.62924 52.4272 6.51736 51.3084C5.39709 50.1811 4.96141 49.1508 5.09781 48.2564L4.60352 48.181L4.10924 48.1056C3.90271 49.4599 4.59496 50.7926 5.80806 52.0133C7.02956 53.2424 8.85368 54.4379 11.1188 55.5444C15.6546 57.7601 22.0651 59.6702 29.2784 60.7657L29.3535 60.2713ZM48.0553 48.3421L47.8592 48.8021C50.6178 49.9781 52.793 51.2525 54.222 52.5223C55.6688 53.8079 56.2469 54.9907 56.0929 56.0002L56.5872 56.0756L57.0815 56.151C57.314 54.626 56.41 53.1288 54.8862 51.7747C53.3446 50.4048 51.0606 49.0798 48.2514 47.8822L48.0553 48.3421ZM4.60352 48.181L5.09781 48.2564C5.17328 47.7615 5.57117 47.2007 6.26207 46.7486C6.94151 46.3039 7.84418 46.0079 8.80275 46.0079L8.80275 45.5079L8.80275 45.0079C7.6459 45.0079 6.55352 45.3627 5.71449 45.9118C4.88692 46.4534 4.2429 47.2292 4.10924 48.1056L4.60352 48.181ZM42.1792 21.1884L42.1831 20.6884C41.2264 20.6809 40.2177 20.7116 39.1692 20.7802L39.2019 21.2792L39.2346 21.7781C40.2609 21.7109 41.2452 21.681 42.1752 21.6884L42.1792 21.1884ZM50.7975 24.0853L51.2771 23.9439C51.0528 23.1829 50.4825 22.5878 49.7214 22.1345L49.4656 22.5642L49.2098 22.9938C49.8387 23.3683 50.1884 23.7873 50.3179 24.2266L50.7975 24.0853ZM29.5938 10.1285L29.2029 9.81685C29.2002 9.82024 29.1972 9.82395 29.1943 9.82762L29.5855 10.139L29.9767 10.4504C29.9793 10.4471 29.9819 10.4438 29.9848 10.4402L29.5938 10.1285ZM29.5855 10.139L29.1943 9.8276C28.1284 11.1665 27.427 12.3585 27.0533 13.62C26.6784 14.8853 26.6448 16.1812 26.8536 17.7098L27.349 17.6422L27.8444 17.5745C27.6483 16.1386 27.6893 14.9937 28.0121 13.904C28.336 12.8105 28.9554 11.7332 29.9766 10.4505L29.5855 10.139ZM27.349 17.6422L26.8536 17.7098C26.9414 18.3527 27.0723 19.0385 27.2395 19.7816L27.7273 19.6719L28.2151 19.5622C28.0521 18.8373 27.9272 18.1809 27.8444 17.5745L27.349 17.6422ZM27.7273 19.6719L27.2395 19.7816C27.2432 19.798 27.2469 19.8144 27.2506 19.8309L27.7383 19.7206L28.2259 19.6102C28.2223 19.5942 28.2187 19.5782 28.2151 19.5622L27.7273 19.6719ZM27.7383 19.7206L27.2506 19.831C27.2518 19.836 27.2529 19.8413 27.2541 19.8466L27.7418 19.736L28.2294 19.6254C28.2282 19.6204 28.2271 19.6154 28.2259 19.6102L27.7383 19.7206ZM27.7418 19.736L27.2541 19.8466C27.2553 19.8517 27.2565 19.8569 27.2576 19.8619L27.7452 19.7512L28.2328 19.6404C28.2316 19.6353 28.2305 19.6304 28.2294 19.6254L27.7418 19.736ZM18.5579 17.9709L18.7228 18.443C18.7268 18.4416 18.7308 18.4402 18.7349 18.4388L18.5703 17.9666L18.4057 17.4945C18.4015 17.4959 18.3973 17.4974 18.393 17.4989L18.5579 17.9709ZM18.5703 17.9666L18.7349 18.4388C20.2882 17.8972 21.484 17.6961 22.5821 17.8044C23.6765 17.9123 24.7243 18.3327 25.9737 19.1221L26.2408 18.6994L26.5078 18.2767C25.1801 17.4378 23.9821 16.9376 22.6802 16.8092C21.3821 16.6812 20.0312 16.9278 18.4057 17.4945L18.5703 17.9666ZM26.2408 18.6994L25.9737 19.1221C26.3384 19.3525 26.7192 19.6137 27.1227 19.907L27.4166 19.5025L27.7106 19.098C27.2939 18.7952 26.8949 18.5212 26.5078 18.2767L26.2408 18.6994ZM27.4166 19.5025L27.1227 19.907C27.2159 19.9747 27.3103 20.0442 27.406 20.1153L27.7043 19.7141L28.0027 19.3129C27.9043 19.2397 27.807 19.1681 27.7106 19.098L27.4166 19.5025ZM27.7043 19.7141L27.406 20.1153C27.4099 20.1182 27.4138 20.1212 27.4179 20.1242L27.7164 19.7231L28.015 19.322C28.0109 19.319 28.0068 19.3159 28.0027 19.3129L27.7043 19.7141ZM22.5595 11.6357L22.3269 12.0783C23.7399 12.8211 24.6979 13.5459 25.3876 14.4144C26.0756 15.2809 26.525 16.3262 26.8623 17.7569L27.349 17.6422L27.8357 17.5274C27.4775 16.0084 26.9798 14.8115 26.1707 13.7926C25.3633 12.7757 24.2743 11.9722 22.7921 11.1931L22.5595 11.6357ZM27.349 17.6422L26.8623 17.7569C27.0024 18.351 27.1226 19.009 27.2328 19.7459L27.7273 19.6719L28.2218 19.598C28.1089 18.8433 27.984 18.1565 27.8357 17.5274L27.349 17.6422ZM27.7273 19.6719L27.2328 19.7458C27.2331 19.7482 27.2335 19.7504 27.2338 19.7528L27.7283 19.6789L28.2228 19.605C28.2225 19.6027 28.2221 19.6002 28.2218 19.598L27.7273 19.6719ZM22.5439 11.6469L22.0454 11.6862C22.1856 13.4649 22.5006 14.8479 23.1252 16.031C23.7522 17.2185 24.6692 18.1634 25.9444 19.1021L26.2408 18.6994L26.5372 18.2967C25.3377 17.4138 24.5437 16.5758 24.0095 15.5642C23.4731 14.5481 23.1769 13.3156 23.0423 11.6076L22.5439 11.6469ZM26.2408 18.6994L25.9444 19.1021C26.3138 19.374 26.7141 19.646 27.1468 19.9234L27.4166 19.5025L27.6865 19.0816C27.2675 18.8129 26.8856 18.5532 26.5372 18.2967L26.2408 18.6994ZM27.4166 19.5025L27.1468 19.9234C27.2452 19.9866 27.3455 20.05 27.4474 20.1138L27.7127 19.69L27.9781 19.2663C27.879 19.2042 27.7818 19.1427 27.6865 19.0816L27.4166 19.5025ZM25.9074 29.3173L26.386 29.1726C26.3847 29.1682 26.3834 29.1641 26.3822 29.1601L25.9035 29.3045L25.4248 29.449C25.4262 29.4534 25.4275 29.4579 25.4288 29.4621L25.9074 29.3173ZM25.9035 29.3045L26.3822 29.16C25.9088 27.5914 25.7326 26.362 25.8369 25.2265C25.9408 24.095 26.327 23.0161 27.0414 21.7543L26.6063 21.508L26.1712 21.2616C25.4108 22.6047 24.9617 23.8211 24.8411 25.1351C24.7208 26.4451 24.9306 27.8116 25.4249 29.449L25.9035 29.3045ZM26.6063 21.508L27.0414 21.7543C27.3431 21.2215 27.7024 20.6576 28.1225 20.0443L27.71 19.7617L27.2975 19.4792C26.8668 20.1079 26.491 20.6967 26.1712 21.2616L26.6063 21.508ZM27.71 19.7617L28.1225 20.0443C28.1318 20.0308 28.1411 20.0172 28.1504 20.0037L27.7383 19.7206L27.3261 19.4375C27.3166 19.4514 27.307 19.4653 27.2975 19.4792L27.71 19.7617ZM27.7383 19.7206L28.1504 20.0037C28.1533 19.9994 28.1562 19.9952 28.1592 19.9908L27.7472 19.7075L27.3352 19.4242C27.3322 19.4286 27.3292 19.433 27.3261 19.4375L27.7383 19.7206ZM27.7472 19.7075L28.1592 19.9908C28.1621 19.9866 28.1651 19.9824 28.168 19.9781L27.756 19.6947L27.3441 19.4113C27.3412 19.4156 27.3382 19.4199 27.3352 19.4242L27.7472 19.7075ZM18.5604 17.9581L18.2328 18.3358C18.2362 18.3387 18.2396 18.3417 18.2429 18.3445L18.5703 17.9666L18.8977 17.5887C18.8944 17.5859 18.8912 17.5831 18.888 17.5804L18.5604 17.9581ZM18.5703 17.9666L18.2429 18.3445C19.5432 19.471 20.707 20.1988 21.9607 20.5589C23.2178 20.9201 24.5162 20.8975 26.0606 20.6081L25.9685 20.1167L25.8764 19.6252C24.4229 19.8976 23.2936 19.9014 22.2368 19.5978C21.1764 19.2932 20.1401 18.6651 18.8977 17.5887L18.5703 17.9666ZM25.9685 20.1167L26.0606 20.6081C26.5108 20.5238 26.9831 20.4165 27.4824 20.2889L27.3586 19.8045L27.2348 19.3201C26.7513 19.4436 26.3007 19.5457 25.8764 19.6252L25.9685 20.1167ZM27.3586 19.8045L27.4824 20.2889C27.5979 20.2594 27.7149 20.2288 27.8334 20.1971L27.7043 19.7141L27.5753 19.231C27.46 19.2618 27.3466 19.2915 27.2348 19.3201L27.3586 19.8045ZM27.7043 19.7141L27.8334 20.1971C27.8383 20.1958 27.8432 20.1945 27.8482 20.1932L27.7189 19.7102L27.5896 19.2272C27.5848 19.2285 27.58 19.2298 27.5753 19.231L27.7043 19.7141ZM19.9304 25.3209L19.9832 25.8181C21.6489 25.6413 22.9584 25.2967 24.0852 24.65C25.2143 24.0021 26.1203 23.0738 27.0159 21.7947L26.6063 21.508L26.1968 21.2212C25.3531 22.426 24.548 23.2315 23.5875 23.7827C22.6246 24.3352 21.4658 24.6551 19.8776 24.8237L19.9304 25.3209ZM26.6063 21.508L27.0159 21.7947C27.3868 21.265 27.7574 20.673 28.142 20.0136L27.71 19.7617L27.2781 19.5099C26.9026 20.1538 26.5471 20.7208 26.1968 21.2212L26.6063 21.508ZM27.71 19.7617L28.142 20.0136C28.1426 20.0124 28.1433 20.0113 28.1439 20.0103C28.1445 20.0093 28.145 20.0084 28.1455 20.0075L27.7136 19.7556L27.2816 19.5038C27.2757 19.514 27.2837 19.5002 27.2781 19.5099L27.71 19.7617ZM19.92 25.3048L20.3685 25.5259C21.1265 23.9887 21.8585 22.9527 22.7336 22.2066C23.605 21.4636 24.6535 20.978 26.0952 20.6004L25.9685 20.1167L25.8418 19.633C24.3092 20.0345 23.1072 20.5739 22.0848 21.4456C21.0661 22.3142 20.261 23.4828 19.4716 25.0837L19.92 25.3048ZM25.9685 20.1167L26.0952 20.6004C26.514 20.4907 26.9651 20.3903 27.4539 20.2953L27.3586 19.8045L27.2632 19.3137C26.7585 19.4117 26.2858 19.5167 25.8418 19.633L25.9685 20.1167ZM27.3586 19.8045L27.4539 20.2953C27.5651 20.2737 27.6782 20.2524 27.7933 20.2313L27.7032 19.7395L27.6132 19.2477C27.4948 19.2694 27.3782 19.2914 27.2632 19.3137L27.3586 19.8045ZM29.5816 10.1262L29.103 10.271C29.1043 10.2751 29.1055 10.2792 29.1068 10.2835L29.5855 10.139L30.0642 9.99459C30.0629 9.9903 30.0615 9.98587 30.0602 9.98141L29.5816 10.1262ZM29.5855 10.139L29.1068 10.2835C29.5802 11.8521 29.7564 13.0815 29.6521 14.217C29.5482 15.3486 29.162 16.4274 28.4476 17.6892L28.8827 17.9356L29.3178 18.1819C30.0782 16.8388 30.5273 15.6224 30.6479 14.3085C30.7682 12.9984 30.5584 11.632 30.0641 9.99456L29.5855 10.139ZM28.8827 17.9356L28.4476 17.6892C28.1459 18.2221 27.7866 18.7859 27.3665 19.3992L27.779 19.6818L28.1915 19.9644C28.6222 19.3356 28.998 18.7468 29.3178 18.1819L28.8827 17.9356ZM27.779 19.6818L27.3665 19.3992C27.3572 19.4127 27.3479 19.4263 27.3386 19.4399L27.7507 19.723L28.1629 20.0061C28.1724 19.9922 28.1819 19.9783 28.1915 19.9644L27.779 19.6818ZM27.7507 19.723L27.3386 19.4398C27.3356 19.4442 27.3327 19.4484 27.3298 19.4527L27.7418 19.736L28.1538 20.0193C28.1568 20.0149 28.1598 20.0105 28.1629 20.0061L27.7507 19.723ZM27.7418 19.736L27.3298 19.4527C27.3267 19.4571 27.3239 19.4612 27.321 19.4654L27.733 19.7488L28.1449 20.0322C28.1479 20.0279 28.1509 20.0234 28.1538 20.0193L27.7418 19.736ZM36.9286 21.4855L37.2562 21.1078C37.253 21.1049 37.2496 21.102 37.2461 21.099L36.9187 21.4769L36.5913 21.8548C36.5945 21.8575 36.5976 21.8603 36.6009 21.8632L36.9286 21.4855ZM36.9187 21.4769L37.2461 21.099C35.9458 19.9725 34.782 19.2447 33.5284 18.8846C32.2712 18.5234 30.9729 18.546 29.4284 18.8354L29.5205 19.3269L29.6126 19.8183C31.0661 19.5459 32.1955 19.5421 33.2522 19.8457C34.3126 20.1503 35.3489 20.7785 36.5913 21.8548L36.9187 21.4769ZM29.5205 19.3269L29.4284 18.8354C28.9782 18.9198 28.5059 19.027 28.0066 19.1546L28.1304 19.639L28.2542 20.1235C28.7377 20 29.1883 19.8978 29.6126 19.8183L29.5205 19.3269ZM28.1304 19.639L28.0066 19.1546C27.8911 19.1841 27.7741 19.2147 27.6556 19.2464L27.7847 19.7295L27.9137 20.2125C28.029 20.1817 28.1424 20.152 28.2542 20.1235L28.1304 19.639ZM27.7847 19.7295L27.6556 19.2464C27.6506 19.2477 27.6454 19.2491 27.6409 19.2503L27.7701 19.7333L27.8994 20.2163C27.9045 20.215 27.909 20.2138 27.9137 20.2125L27.7847 19.7295ZM35.5586 14.1226L35.5058 13.6254C33.8401 13.8022 32.5306 14.1469 31.4038 14.7935C30.2747 15.4414 29.3687 16.3697 28.4731 17.6488L28.8827 17.9356L29.2922 18.2224C30.1359 17.0175 30.941 16.212 31.9015 15.6608C32.8644 15.1083 34.0232 14.7884 35.6114 14.6198L35.5586 14.1226ZM28.8827 17.9356L28.4731 17.6488C28.1022 18.1785 27.7316 18.7705 27.347 19.4299L27.779 19.6818L28.2109 19.9337C28.5864 19.2897 28.9419 18.7227 29.2922 18.2224L28.8827 17.9356ZM27.779 19.6818L27.347 19.43C27.3459 19.4318 27.3446 19.4341 27.3435 19.4361L27.7754 19.6879L28.2074 19.9397C28.2086 19.9376 28.2096 19.9358 28.2109 19.9336L27.779 19.6818ZM35.569 14.1387L35.1205 13.9176C34.3625 15.4549 33.6305 16.4908 32.7554 17.237C31.884 17.9799 30.8355 18.4655 29.3938 18.8432L29.5205 19.3269L29.6472 19.8105C31.1798 19.4091 32.3818 18.8697 33.4042 17.9979C34.4229 17.1293 35.228 15.9608 36.0174 14.3599L35.569 14.1387ZM29.5205 19.3269L29.3938 18.8432C28.975 18.9529 28.5239 19.0533 28.035 19.1482L28.1304 19.639L28.2257 20.1299C28.7305 20.0318 29.2032 19.9268 29.6472 19.8105L29.5205 19.3269ZM28.1304 19.639L28.035 19.1482C27.9239 19.1698 27.8108 19.1911 27.6957 19.2122L27.7858 19.704L27.8758 20.1958C27.9942 20.1742 28.1108 20.1522 28.2257 20.1299L28.1304 19.639ZM25.8952 29.315L26.2861 29.6267C26.289 29.6231 26.2918 29.6195 26.2947 29.6159L25.9035 29.3045L25.5123 28.9931C25.5097 28.9965 25.5069 28.9999 25.5042 29.0033L25.8952 29.315ZM25.9035 29.3045L26.2947 29.6159C27.3606 28.2771 28.062 27.0851 28.4357 25.8236C28.8106 24.5583 28.8442 23.2623 28.6354 21.7337L28.14 21.8014L27.6446 21.869C27.8407 23.3049 27.7997 24.4498 27.4769 25.5395C27.1529 26.6331 26.5336 27.7104 25.5124 28.9931L25.9035 29.3045ZM28.14 21.8014L28.6354 21.7337C28.5476 21.0908 28.4167 20.4051 28.2495 19.6619L27.7617 19.7716L27.2739 19.8813C27.4369 20.6062 27.5618 21.2627 27.6446 21.869L28.14 21.8014ZM27.7617 19.7716L28.2495 19.6619C28.2458 19.6455 28.2421 19.6291 28.2384 19.6126L27.7507 19.723L27.2631 19.8333C27.2667 19.8494 27.2703 19.8654 27.2739 19.8813L27.7617 19.7716ZM27.7507 19.723L28.2384 19.6126C28.2372 19.6074 28.236 19.6022 28.2349 19.5969L27.7472 19.7075L27.2596 19.8181C27.2608 19.8231 27.2619 19.8282 27.2631 19.8333L27.7507 19.723ZM27.7472 19.7075L28.2349 19.597C28.2337 19.5918 28.2325 19.5866 28.2314 19.5816L27.7438 19.6924L27.2562 19.8031C27.2574 19.8082 27.2585 19.8132 27.2596 19.8181L27.7472 19.7075ZM36.9311 21.4726L36.7662 21.0006C36.7622 21.002 36.7584 21.0033 36.7541 21.0048L36.9187 21.4769L37.0833 21.949C37.0873 21.9477 37.0917 21.9461 37.096 21.9446L36.9311 21.4726ZM36.9187 21.4769L36.7541 21.0048C35.2008 21.5463 34.005 21.7475 32.9069 21.6392C31.8125 21.5312 30.7647 21.1109 29.5153 20.3214L29.2482 20.7441L28.9811 21.1668C30.3089 22.0058 31.5069 22.5059 32.8087 22.6343C34.1069 22.7624 35.4578 22.5157 37.0833 21.949L36.9187 21.4769ZM29.2482 20.7441L29.5153 20.3214C29.1506 20.091 28.7698 19.8298 28.3663 19.5366L28.0724 19.9411L27.7784 20.3455C28.1951 20.6483 28.5941 20.9223 28.9811 21.1668L29.2482 20.7441ZM28.0724 19.9411L28.3663 19.5366C28.2731 19.4688 28.1787 19.3994 28.083 19.3282L27.7847 19.7295L27.4863 20.1307C27.5847 20.2038 27.682 20.2755 27.7784 20.3455L28.0724 19.9411ZM27.7847 19.7295L28.083 19.3282C28.0791 19.3253 28.0752 19.3224 28.0711 19.3194L27.7726 19.7205L27.474 20.1216C27.4781 20.1246 27.4822 20.1276 27.4863 20.1307L27.7847 19.7295ZM32.9295 27.8078L33.1621 27.3652C31.7491 26.6225 30.7911 25.8977 30.1014 25.0291C29.4134 24.1627 28.964 23.1173 28.6267 21.6866L28.14 21.8014L27.6533 21.9161C28.0115 23.4351 28.5092 24.6321 29.3183 25.651C30.1257 26.6678 31.2147 27.4714 32.6969 28.2504L32.9295 27.8078ZM28.14 21.8014L28.6267 21.6866C28.4866 21.0925 28.3664 20.4345 28.2562 19.6977L27.7617 19.7716L27.2672 19.8456C27.3801 20.6002 27.505 21.287 27.6533 21.9161L28.14 21.8014ZM27.7617 19.7716L28.2562 19.6977C28.2559 19.6953 28.2555 19.6931 28.2552 19.6907L27.7607 19.7647L27.2662 19.8386C27.2665 19.8409 27.2669 19.8433 27.2672 19.8455L27.7617 19.7716ZM32.9451 27.7967L33.4436 27.7574C33.3034 25.9786 32.9884 24.5957 32.3638 23.4125C31.7368 22.225 30.8198 21.2801 29.5446 20.3415L29.2482 20.7441L28.9518 21.1468C30.1513 22.0297 30.9453 22.8677 31.4795 23.8794C32.0159 24.8954 32.3121 26.1279 32.4467 27.8359L32.9451 27.7967ZM29.2482 20.7441L29.5446 20.3415C29.1752 20.0695 28.7749 19.7976 28.3423 19.5201L28.0724 19.9411L27.8025 20.362C28.2215 20.6306 28.6034 20.8903 28.9518 21.1468L29.2482 20.7441ZM28.0724 19.9411L28.3423 19.5201C28.2438 19.457 28.1436 19.3935 28.0416 19.3297L27.7763 19.7535L27.5109 20.1773C27.61 20.2393 27.7072 20.3009 27.8025 20.362L28.0724 19.9411Z" fill="#FFEFD4"/>
<path d="M75.96 45.0997C75.1333 45.0464 74.64 44.8997 74.48 44.6597C74.3467 44.4197 74.28 44.1664 74.28 43.8997C74.4133 43.4997 74.56 43.113 74.72 42.7397C74.9067 42.3664 75.04 41.9664 75.12 41.5397C75.2 41.193 75.28 40.873 75.36 40.5797C75.44 40.2864 75.5333 39.9664 75.64 39.6197C75.8533 38.9797 76.0933 38.193 76.36 37.2597C76.6533 36.3264 76.96 35.393 77.28 34.4597C77.6 33.5264 77.88 32.753 78.12 32.1397C78.3333 31.5264 78.5067 31.0064 78.64 30.5797C78.8 30.153 78.96 29.7397 79.12 29.3397C79.28 28.9397 79.4533 28.4597 79.64 27.8997C79.7733 27.553 79.8933 27.2197 80 26.8997C80.1067 26.553 80.2133 26.2064 80.32 25.8597C80.4533 25.513 80.5733 25.1797 80.68 24.8597C80.8133 24.513 80.9333 24.1664 81.04 23.8197C81.3333 23.2064 81.5867 22.6197 81.8 22.0597C82.04 21.4997 82.2533 20.8864 82.44 20.2197C82.5467 19.9797 82.5333 19.8064 82.4 19.6997C82.2933 19.593 82.24 19.3664 82.24 19.0197C82.2133 18.6997 82.2933 18.473 82.48 18.3397C82.6933 18.1797 82.96 18.1397 83.28 18.2197C83.6533 18.2997 84.1733 18.3664 84.84 18.4197C85.5333 18.473 86.16 18.4997 86.72 18.4997C87.3067 18.473 87.6267 18.4464 87.68 18.4197C87.8133 18.3664 88.2533 18.2864 89 18.1797C89.7467 18.0464 90.6533 17.8997 91.72 17.7397C92.7867 17.5797 93.88 17.433 95 17.2997C96.1467 17.1664 97.16 17.0464 98.04 16.9397C98.3333 16.8864 98.6133 16.8864 98.88 16.9397C99.1733 16.993 99.4533 17.0464 99.72 17.0997C100.067 17.153 100.413 17.3397 100.76 17.6597C101.107 17.9797 101.227 18.3664 101.12 18.8197C101.013 19.113 100.787 19.273 100.44 19.2997C100.093 19.2997 99.6267 19.2464 99.04 19.1397C98.9867 19.1397 98.9333 19.2464 98.88 19.4597C98.8267 19.673 98.76 19.9264 98.68 20.2197C98.6267 20.513 98.5333 20.8197 98.4 21.1397C98.24 21.3264 98.0533 21.6864 97.84 22.2197C97.6533 22.753 97.4533 23.3397 97.24 23.9797C97.0267 24.6197 96.8533 25.2064 96.72 25.7397C96.5867 26.273 96.52 26.6464 96.52 26.8597C96.1467 27.4464 95.88 28.0864 95.72 28.7797C95.5867 29.473 95.4133 30.1264 95.2 30.7397C95.1733 30.8464 95.0667 31.2197 94.88 31.8597C94.72 32.473 94.52 33.2197 94.28 34.0997C94.04 34.9797 93.8 35.8597 93.56 36.7397C93.32 37.593 93.12 38.3264 92.96 38.9397C92.8 39.553 92.72 39.8997 92.72 39.9797C92.6933 40.513 92.6267 41.0597 92.52 41.6197C92.44 42.1797 92.3867 42.7264 92.36 43.2597C92.3867 43.3664 92.4 43.4597 92.4 43.5397C92.4 43.593 92.3467 43.6464 92.24 43.6997C92.0267 43.8864 91.6667 43.9797 91.16 43.9797C90.6533 43.953 90.3333 43.8597 90.2 43.6997C90.0933 43.4864 90 43.2997 89.92 43.1397C89.84 42.953 89.8133 42.753 89.84 42.5397C89.8933 41.793 89.9867 41.0464 90.12 40.2997C90.2533 39.553 90.3733 38.833 90.48 38.1397C90.6133 37.4464 90.7733 36.8197 90.96 36.2597C91.1467 35.6997 91.28 35.393 91.36 35.3397L92.12 32.4997C92.4133 31.6997 92.6 31.073 92.68 30.6197C92.76 30.1397 92.84 29.673 92.92 29.2197C93.0267 28.7664 93.2133 28.1797 93.48 27.4597C93.7467 26.793 93.96 26.1264 94.12 25.4597C94.3067 24.7664 94.4933 24.0864 94.68 23.4197C94.8667 22.7797 95.0533 22.2197 95.24 21.7397C95.4267 21.233 95.5733 20.793 95.68 20.4197C95.8133 20.0464 95.8667 19.7264 95.84 19.4597C95.2533 19.513 94.7067 19.5797 94.2 19.6597C93.72 19.7397 93.2133 19.8197 92.68 19.8997C92.1733 19.953 91.5467 20.033 90.8 20.1397C90.3467 20.193 89.7467 20.2864 89 20.4197C88.2533 20.5264 87.56 20.633 86.92 20.7397C86.3067 20.8197 85.92 20.8597 85.76 20.8597C85.5733 20.8864 85.4133 20.9397 85.28 21.0197C85.1467 21.0997 85.08 21.2064 85.08 21.3397C84.68 22.1397 84.2933 22.953 83.92 23.7797C83.5467 24.5797 83.2133 25.353 82.92 26.0997C82.6533 26.8197 82.4533 27.4597 82.32 28.0197C82.2667 28.1264 82.16 28.393 82 28.8197C81.84 29.2464 81.6533 29.7397 81.44 30.2997C81.2267 30.8597 81.0267 31.393 80.84 31.8997C80.6533 32.4064 80.5067 32.8064 80.4 33.0997C80.32 33.3664 80.2933 33.433 80.32 33.2997C79.92 34.5797 79.5867 35.593 79.32 36.3397C79.08 37.0597 78.88 37.633 78.72 38.0597C78.56 38.4864 78.4267 38.8597 78.32 39.1797C78.2133 39.4997 78.1067 39.8864 78 40.3397C77.84 40.7664 77.7067 41.2064 77.6 41.6597C77.4933 42.113 77.3867 42.5664 77.28 43.0197C77.2533 43.153 77.2133 43.2997 77.16 43.4597C77.1333 43.6197 77.08 43.953 77 44.4597C76.8933 44.673 76.76 44.833 76.6 44.9397C76.4667 45.073 76.2533 45.1264 75.96 45.0997ZM97.6197 53.1397C97.513 53.1397 97.3797 53.1397 97.2197 53.1397C97.0597 53.1664 96.913 53.0597 96.7797 52.8197C96.673 52.6864 96.6064 52.4864 96.5797 52.2197C96.5797 51.953 96.6464 51.473 96.7797 50.7797C96.913 50.3264 97.0197 49.873 97.0997 49.4197C97.1797 48.993 97.2197 48.673 97.2197 48.4597C97.2197 48.353 97.2464 48.1397 97.2997 47.8197C97.3797 47.5264 97.4197 47.313 97.4197 47.1797C97.553 46.9664 97.6597 46.673 97.7397 46.2997C97.8197 45.9264 97.8597 45.593 97.8597 45.2997C97.8597 44.9797 98.0197 44.6864 98.3397 44.4197C98.3397 44.2064 98.3797 43.9397 98.4597 43.6197C98.5664 43.2997 98.6197 43.0864 98.6197 42.9797C98.6997 42.6064 98.873 41.953 99.1397 41.0197C99.433 40.0597 99.7797 38.9797 100.18 37.7797C100.606 36.5797 101.02 35.4064 101.42 34.2597C101.82 33.113 102.18 32.1397 102.5 31.3397C102.82 30.593 103.033 29.953 103.14 29.4197C103.273 28.8597 103.34 28.4464 103.34 28.1797C103.34 28.073 103.366 27.993 103.42 27.9397C103.473 27.8597 103.593 27.713 103.78 27.4997C104.046 27.233 104.273 27.153 104.46 27.2597C104.673 27.3664 104.926 27.5264 105.22 27.7397C105.433 28.0864 105.58 28.3797 105.66 28.6197C105.766 28.8597 105.766 29.273 105.66 29.8597C105.66 30.2597 105.593 30.6064 105.46 30.8997C105.326 31.193 105.206 31.4197 105.1 31.5797C104.993 31.713 104.966 31.7664 105.02 31.7397C106.113 31.233 107.073 30.9664 107.9 30.9397C108.753 30.8864 109.46 31.033 110.02 31.3797C110.606 31.6997 111.046 32.153 111.34 32.7397C111.633 33.3264 111.78 34.0064 111.78 34.7797C111.78 35.0997 111.713 35.4864 111.58 35.9397C111.446 36.3664 111.273 36.7664 111.06 37.1397C110.873 37.4864 110.7 37.7397 110.54 37.8997C110.433 37.8997 110.326 37.993 110.22 38.1797C110.113 38.3397 110.006 38.5264 109.9 38.7397C109.686 39.0064 109.34 39.313 108.86 39.6597C108.406 39.9797 107.953 40.2464 107.5 40.4597C107.046 40.6464 106.713 40.6997 106.5 40.6197C106.5 40.6197 106.46 40.633 106.38 40.6597C106.326 40.6597 106.3 40.7264 106.3 40.8597C106.3 40.913 106.086 41.033 105.66 41.2197C105.233 41.3797 104.74 41.5397 104.18 41.6997C103.62 41.833 103.126 41.8997 102.7 41.8997C102.14 41.8997 101.74 41.793 101.5 41.5797C101.446 41.633 101.38 41.713 101.3 41.8197C101.246 41.9264 101.22 42.0197 101.22 42.0997C101.22 42.2597 101.153 42.5664 101.02 43.0197C100.913 43.4464 100.78 43.8597 100.62 44.2597C100.46 44.6597 100.313 44.8597 100.18 44.8597C100.18 44.8597 100.153 44.8997 100.1 44.9797C100.046 45.0597 100.073 45.1664 100.18 45.2997C100.18 45.2997 100.166 45.4464 100.14 45.7397C100.14 46.0597 100.073 46.3264 99.9397 46.5397C99.9397 46.753 99.8997 47.073 99.8197 47.4997C99.7397 47.9264 99.6464 48.2464 99.5397 48.4597C99.5397 48.7797 99.4864 49.0864 99.3797 49.3797C99.2997 49.6997 99.2064 49.8597 99.0997 49.8597C98.993 49.8864 98.9264 50.0464 98.8997 50.3397C98.873 50.6597 98.8597 50.8864 98.8597 51.0197C98.833 51.6864 98.6997 52.2064 98.4597 52.5797C98.2197 52.953 97.9397 53.1397 97.6197 53.1397ZM102.46 39.7797C102.673 39.7797 103.113 39.6864 103.78 39.4997C104.446 39.313 105.126 39.0864 105.82 38.8197C106.54 38.5264 107.073 38.233 107.42 37.9397C108.113 37.3264 108.646 36.633 109.02 35.8597C109.42 35.0597 109.393 34.2997 108.94 33.5797C108.726 33.2064 108.34 33.0597 107.78 33.1397C107.22 33.193 106.606 33.4064 105.94 33.7797C105.273 34.153 104.646 34.6197 104.06 35.1797C103.74 35.5264 103.446 35.953 103.18 36.4597C102.913 36.9664 102.686 37.473 102.5 37.9797C102.34 38.4864 102.246 38.913 102.22 39.2597C102.193 39.6064 102.273 39.7797 102.46 39.7797ZM114.937 43.9797C114.617 43.9797 114.337 43.9397 114.097 43.8597C113.884 43.753 113.71 43.6197 113.577 43.4597C113.47 43.273 113.364 43.0864 113.257 42.8997C113.15 42.6864 113.057 42.4597 112.977 42.2197C113.03 42.0064 113.15 41.793 113.337 41.5797C113.524 41.3664 113.777 41.353 114.097 41.5397C114.15 41.5397 114.204 41.5664 114.257 41.6197C114.31 41.673 114.377 41.7264 114.457 41.7797C115.444 41.3264 116.244 40.7397 116.857 40.0197C117.497 39.273 118.11 38.4464 118.697 37.5397C118.244 37.4064 117.79 37.193 117.337 36.8997C116.91 36.6064 116.604 36.2997 116.417 35.9797C116.15 35.553 115.977 35.0464 115.897 34.4597C115.817 33.873 115.75 33.553 115.697 33.4997C115.937 32.9664 116.084 32.513 116.137 32.1397C116.217 31.7664 116.324 31.4064 116.457 31.0597C116.59 30.6864 116.844 30.2597 117.217 29.7797C117.51 29.4064 117.87 29.0597 118.297 28.7397C118.724 28.393 119.137 28.113 119.537 27.8997C119.937 27.6864 120.23 27.5797 120.417 27.5797C120.71 27.6864 120.99 27.673 121.257 27.5397C121.524 27.4064 121.79 27.393 122.057 27.4997C122.164 27.5264 122.257 27.5397 122.337 27.5397C122.444 27.513 122.524 27.513 122.577 27.5397C123.244 27.673 123.83 27.8597 124.337 28.0997C124.844 28.3397 125.177 28.7797 125.337 29.4197C125.204 29.9797 125.057 30.5397 124.897 31.0997C124.764 31.633 124.55 32.1664 124.257 32.6997C123.99 33.2064 123.724 33.7397 123.457 34.2997C123.217 34.833 122.91 35.3397 122.537 35.8197L122.617 36.0597C122.91 36.113 123.27 36.1797 123.697 36.2597C124.15 36.313 124.39 36.3397 124.417 36.3397C124.71 36.4197 124.964 36.553 125.177 36.7397C125.417 36.8997 125.67 37.0864 125.937 37.2997C125.964 37.4064 125.964 37.513 125.937 37.6197C125.91 37.7264 125.857 37.8464 125.777 37.9797C125.484 38.5664 125.177 39.1664 124.857 39.7797C124.537 40.3664 124.23 40.9664 123.937 41.5797C123.83 41.8464 123.737 42.1797 123.657 42.5797C123.577 42.9797 123.47 43.2997 123.337 43.5397C123.097 43.7797 122.937 43.9264 122.857 43.9797C122.804 44.0064 122.75 43.993 122.697 43.9397C122.644 43.8864 122.497 43.8597 122.257 43.8597C121.884 43.7797 121.63 43.5797 121.497 43.2597C121.444 43.073 121.364 42.8997 121.257 42.7397C121.177 42.5797 121.164 42.393 121.217 42.1797C121.27 42.0197 121.324 41.873 121.377 41.7397C121.43 41.5797 121.497 41.433 121.577 41.2997C121.79 40.873 121.977 40.4464 122.137 40.0197C122.297 39.593 122.47 39.1797 122.657 38.7797C122.764 38.673 122.817 38.5264 122.817 38.3397H122.537C122.377 38.313 122.19 38.2864 121.977 38.2597C121.79 38.2064 121.577 38.1664 121.337 38.1397C121.204 38.2464 121.044 38.3664 120.857 38.4997C120.67 38.6064 120.524 38.8064 120.417 39.0997C120.124 39.4197 119.844 39.7797 119.577 40.1797C119.337 40.553 119.044 40.913 118.697 41.2597C118.35 41.6064 118.004 41.953 117.657 42.2997C117.337 42.6464 116.977 42.993 116.577 43.3397C115.99 43.7664 115.444 43.9797 114.937 43.9797ZM119.737 35.6597C119.87 35.633 120.057 35.473 120.297 35.1797C120.564 34.8597 120.83 34.513 121.097 34.1397C121.39 33.7397 121.644 33.3797 121.857 33.0597C122.07 32.713 122.19 32.4997 122.217 32.4197C122.217 32.473 122.27 32.353 122.377 32.0597C122.484 31.7664 122.604 31.4197 122.737 31.0197C122.897 30.6197 123.044 30.2464 123.177 29.8997C123.31 29.553 123.377 29.3664 123.377 29.3397C123.03 29.0997 122.75 28.9797 122.537 28.9797C122.324 28.9797 122.07 29.033 121.777 29.1397C120.79 29.4064 119.977 29.8597 119.337 30.4997C118.697 31.113 118.23 31.913 117.937 32.8997C117.724 33.8064 117.777 34.5664 118.097 35.1797C118.444 35.7664 118.99 35.9264 119.737 35.6597ZM138.588 43.7397C138.428 43.6864 138.268 43.6464 138.108 43.6197C137.948 43.5664 137.788 43.513 137.628 43.4597C137.495 43.4064 137.335 43.3664 137.148 43.3397C136.881 42.9664 136.775 42.513 136.828 41.9797C136.881 41.4197 137.001 40.8464 137.188 40.2597C137.401 39.673 137.601 39.0997 137.788 38.5397C138.001 37.9797 138.121 37.4997 138.148 37.0997C138.121 36.993 138.081 36.9664 138.028 37.0197C137.975 37.0464 137.948 37.0864 137.948 37.1397C137.761 37.353 137.495 37.4997 137.148 37.5797C136.801 37.6597 136.481 37.7264 136.188 37.7797C135.681 37.8597 135.175 37.953 134.668 38.0597C134.161 38.1664 133.668 38.2864 133.188 38.4197C133.108 38.3664 133.015 38.2997 132.908 38.2197C132.828 38.1397 132.748 38.073 132.668 38.0197C132.481 38.0197 132.321 38.193 132.188 38.5397C132.055 38.8864 131.935 39.313 131.828 39.8197C131.721 40.2997 131.615 40.7664 131.508 41.2197C131.428 41.6464 131.348 41.953 131.268 42.1397C130.841 42.193 130.535 42.2064 130.348 42.1797C130.188 42.153 129.881 42.073 129.428 41.9397C129.215 41.6464 129.095 41.3664 129.068 41.0997C129.068 40.833 129.108 40.5397 129.188 40.2197C129.321 39.6064 129.428 39.113 129.508 38.7397C129.615 38.3664 129.788 37.8864 130.028 37.2997C130.161 37.0064 130.281 36.7264 130.388 36.4597C130.521 36.1664 130.588 35.8464 130.588 35.4997C130.801 35.233 130.948 34.9397 131.028 34.6197C131.108 34.2997 131.201 33.9797 131.308 33.6597C131.735 32.5664 132.068 31.7264 132.308 31.1397C132.575 30.5264 132.761 30.0464 132.868 29.6997C132.975 29.353 133.041 29.033 133.068 28.7397C133.095 28.3664 133.321 28.1797 133.748 28.1797C134.015 28.1797 134.295 28.2864 134.588 28.4997C134.881 28.6864 135.108 28.9264 135.268 29.2197C135.428 29.513 135.441 29.8197 135.308 30.1397C135.228 30.353 135.095 30.6997 134.908 31.1797C134.748 31.633 134.561 32.1397 134.348 32.6997C134.161 33.233 133.975 33.7397 133.788 34.2197C133.628 34.673 133.495 35.0064 133.388 35.2197C133.361 35.3264 133.308 35.4197 133.228 35.4997C133.148 35.553 133.108 35.6464 133.108 35.7797C133.295 35.913 133.601 35.9664 134.028 35.9397C134.481 35.8864 134.801 35.8064 134.988 35.6997C135.388 35.6997 135.775 35.6997 136.148 35.6997C136.548 35.6997 136.948 35.6997 137.348 35.6997C137.748 35.9397 138.055 36.2997 138.268 36.7797C138.455 36.273 138.708 35.6064 139.028 34.7797C139.348 33.9264 139.655 33.0864 139.948 32.2597C140.241 31.433 140.415 30.8064 140.468 30.3797C140.521 30.1397 140.628 29.9264 140.788 29.7397C140.948 29.553 141.121 29.4064 141.308 29.2997C141.681 29.4864 142.041 29.6464 142.388 29.7797C142.761 29.8864 143.001 30.193 143.108 30.6997C143.081 30.9397 143.028 31.1797 142.948 31.4197C142.868 31.633 142.788 31.8464 142.708 32.0597C142.441 32.833 142.108 33.6864 141.708 34.6197C141.308 35.5264 140.935 36.4597 140.588 37.4197C140.268 38.353 140.041 39.233 139.908 40.0597C139.908 40.1397 139.841 40.4064 139.708 40.8597C139.601 41.313 139.481 41.753 139.348 42.1797C139.241 42.6064 139.175 42.833 139.148 42.8597C139.148 43.0464 139.095 43.2197 138.988 43.3797C138.881 43.513 138.748 43.633 138.588 43.7397ZM151.923 43.6597C151.016 43.8997 150.376 44.0197 150.003 44.0197C149.629 44.0197 149.229 43.833 148.803 43.4597C148.669 43.3264 148.589 43.193 148.563 43.0597C148.536 42.8997 148.469 42.8064 148.363 42.7797C148.336 42.593 148.349 42.4464 148.403 42.3397C148.483 42.2064 148.656 42.0864 148.923 41.9797C149.323 42.2197 149.829 42.2864 150.443 42.1797C151.056 42.073 151.656 41.8464 152.243 41.4997C152.856 41.1264 153.336 40.6864 153.683 40.1797C154.216 39.5397 154.629 38.9397 154.923 38.3797C155.216 37.793 155.376 37.273 155.403 36.8197C155.403 36.553 155.363 36.3664 155.283 36.2597C155.229 36.1264 155.096 35.9264 154.883 35.6597C154.403 35.8197 153.963 36.0064 153.563 36.2197C153.189 36.433 152.883 36.6597 152.643 36.8997C151.843 37.5664 151.216 38.113 150.763 38.5397C150.336 38.9664 149.963 39.393 149.643 39.8197C149.349 40.2464 148.976 40.8197 148.523 41.5397C148.309 41.8064 148.109 42.0064 147.923 42.1397C147.763 42.273 147.589 42.3397 147.403 42.3397C147.483 42.873 147.296 43.193 146.843 43.2997C146.256 43.1664 145.829 42.993 145.563 42.7797C145.296 42.5397 145.216 42.0864 145.323 41.4197C145.429 41.0464 145.536 40.6064 145.643 40.0997C145.749 39.5664 145.869 39.1264 146.003 38.7797C146.643 37.073 147.203 35.553 147.683 34.2197C148.189 32.8864 148.629 31.9397 149.003 31.3797L149.883 29.0997C150.336 29.1264 150.683 29.2197 150.923 29.3797C151.163 29.513 151.443 29.8464 151.763 30.3797C151.763 30.513 151.629 30.8997 151.363 31.5397C151.123 32.153 150.829 32.8597 150.483 33.6597C150.163 34.4597 149.856 35.2064 149.563 35.8997C149.296 36.5664 149.109 37.033 149.003 37.2997C148.896 37.593 148.976 37.5397 149.243 37.1397C149.536 36.7397 150.043 36.233 150.763 35.6197C151.109 35.273 151.536 34.953 152.043 34.6597C152.549 34.3397 152.976 34.0997 153.323 33.9397C153.696 33.7797 154.003 33.6864 154.243 33.6597C154.483 33.633 154.656 33.6064 154.763 33.5797C155.429 33.5797 155.963 33.753 156.363 34.0997C156.763 34.4197 157.043 34.793 157.203 35.2197C157.389 35.6464 157.483 35.993 157.483 36.2597C157.563 36.6864 157.616 37.0997 157.643 37.4997C157.696 37.873 157.669 38.273 157.563 38.6997C157.483 38.913 157.336 39.2064 157.123 39.5797C156.909 39.953 156.656 40.3397 156.363 40.7397C156.096 41.113 155.776 41.4197 155.403 41.6597C155.163 41.8997 154.843 42.153 154.443 42.4197C154.043 42.6864 153.616 42.9397 153.163 43.1797C152.736 43.393 152.323 43.553 151.923 43.6597ZM160.243 44.2997C159.763 44.2464 159.363 44.0997 159.043 43.8597C158.749 43.593 158.536 43.2064 158.403 42.6997C158.403 42.2464 158.456 41.833 158.563 41.4597C158.696 41.0597 158.803 40.673 158.883 40.2997C159.016 39.6864 159.203 39.073 159.443 38.4597C159.683 37.8464 159.896 37.233 160.083 36.6197C160.243 36.2464 160.376 35.8864 160.483 35.5397C160.589 35.193 160.696 34.8464 160.803 34.4997C160.936 34.073 161.069 33.6597 161.203 33.2597C161.336 32.8597 161.469 32.4597 161.603 32.0597C161.709 31.713 161.789 31.353 161.843 30.9797C161.923 30.6064 161.989 30.233 162.043 29.8597C162.336 29.5397 162.656 29.4064 163.003 29.4597C163.376 29.513 163.829 29.8197 164.363 30.3797C164.496 30.6997 164.563 30.993 164.563 31.2597C164.563 31.4997 164.496 31.753 164.363 32.0197C164.256 32.2597 164.109 32.6197 163.923 33.0997C163.763 33.5797 163.589 34.0597 163.403 34.5397C163.243 34.993 163.123 35.3397 163.043 35.5797C162.989 35.873 162.843 36.353 162.603 37.0197C162.389 37.6864 162.163 38.3797 161.923 39.0997C161.683 39.793 161.509 40.353 161.403 40.7797C161.243 41.1797 161.123 41.5664 161.043 41.9397C160.963 42.313 160.883 42.7797 160.803 43.3397C160.856 43.5797 160.816 43.7797 160.683 43.9397C160.576 44.073 160.429 44.193 160.243 44.2997ZM175.576 44.0997C175.389 44.2064 175.136 44.1664 174.816 43.9797C174.522 43.793 174.229 43.513 173.936 43.1397C173.749 42.8197 173.616 42.473 173.536 42.0997C173.482 41.7264 173.456 41.2064 173.456 40.5397C173.482 40.0064 173.456 39.6597 173.376 39.4997C173.322 39.3397 173.176 39.3664 172.936 39.5797C172.696 39.7664 172.282 40.153 171.696 40.7397C171.029 41.4064 170.389 41.9264 169.776 42.2997C169.189 42.673 168.709 42.8464 168.336 42.8197C168.149 42.8197 167.936 42.7264 167.696 42.5397C167.482 42.3264 167.282 42.073 167.096 41.7797C166.909 41.4597 166.749 41.1397 166.616 40.8197C166.456 40.233 166.429 39.4864 166.536 38.5797C166.669 37.6464 166.882 36.673 167.176 35.6597C167.469 34.6464 167.802 33.6864 168.176 32.7797C168.576 31.873 168.976 31.1397 169.376 30.5797C169.802 30.0197 170.176 29.7397 170.496 29.7397C170.709 29.7397 170.896 29.8464 171.056 30.0597C171.242 30.273 171.429 30.6064 171.616 31.0597C171.722 31.2464 171.762 31.4064 171.736 31.5397C171.736 31.673 171.629 31.833 171.416 32.0197C171.176 32.3397 170.896 32.8197 170.576 33.4597C170.282 34.0997 169.989 34.793 169.696 35.5397C169.429 36.2864 169.189 37.0064 168.976 37.6997C168.762 38.393 168.616 38.9664 168.536 39.4197C168.456 39.8464 168.469 40.0597 168.576 40.0597C168.949 40.0597 169.389 39.913 169.896 39.6197C170.429 39.2997 170.936 38.913 171.416 38.4597C171.976 37.8997 172.469 37.2864 172.896 36.6197C173.349 35.953 173.802 35.2464 174.256 34.4997C174.602 33.9664 174.962 33.3797 175.336 32.7397C175.736 32.0997 175.989 31.6464 176.096 31.3797C176.469 30.6864 176.749 30.2197 176.936 29.9797C177.122 29.713 177.349 29.5397 177.616 29.4597C177.749 29.4597 177.869 29.4597 177.976 29.4597C178.109 29.4597 178.176 29.4597 178.176 29.4597C178.336 29.4864 178.522 29.6064 178.736 29.8197C178.949 29.9264 179.069 30.033 179.096 30.1397C179.122 30.2197 179.136 30.3264 179.136 30.4597C179.029 30.7264 178.856 31.1264 178.616 31.6597C178.402 32.1664 178.242 32.5397 178.136 32.7797C177.629 33.9264 177.122 35.0597 176.616 36.1797C176.136 37.273 175.789 38.393 175.576 39.5397C175.522 39.913 175.509 40.353 175.536 40.8597C175.589 41.3397 175.669 41.6864 175.776 41.8997C175.856 42.0597 175.949 42.2464 176.056 42.4597C176.189 42.6464 176.336 42.8064 176.496 42.9397C176.736 43.0997 176.776 43.273 176.616 43.4597C176.482 43.6464 176.296 43.8064 176.056 43.9397C175.816 44.0464 175.656 44.0997 175.576 44.0997ZM175.056 27.4997C174.229 27.6064 173.536 27.3664 172.976 26.7797C172.416 26.193 171.989 25.3264 171.696 24.1797C171.642 23.9664 171.616 23.7797 171.616 23.6197C171.642 23.433 171.696 23.273 171.776 23.1397C171.829 23.033 171.936 22.953 172.096 22.8997C172.256 22.8197 172.389 22.8064 172.496 22.8597C172.869 22.993 173.136 23.1664 173.296 23.3797C173.482 23.5664 173.602 23.8064 173.656 24.0997C173.709 24.233 173.736 24.3664 173.736 24.4997C173.762 24.633 173.776 24.6864 173.776 24.6597C173.909 25.0864 174.082 25.3797 174.296 25.5397C174.509 25.6997 174.829 25.6864 175.256 25.4997C175.709 25.313 176.149 25.0997 176.576 24.8597C177.029 24.6197 177.429 24.3264 177.776 23.9797C178.069 23.6864 178.349 23.4197 178.616 23.1797C178.909 22.9397 179.189 22.6864 179.456 22.4197L179.496 22.3797C179.602 22.2997 179.736 22.273 179.896 22.2997C180.056 22.3264 180.149 22.3664 180.176 22.4197C180.362 22.6064 180.456 22.793 180.456 22.9797C180.456 23.1664 180.456 23.3664 180.456 23.5797L180.416 23.6597C180.469 23.8197 180.336 24.1264 180.016 24.5797C179.722 25.033 179.362 25.4197 178.936 25.7397C178.562 26.033 178.162 26.2997 177.736 26.5397C177.309 26.7797 176.869 27.0064 176.416 27.2197C176.229 27.3264 176.029 27.393 175.816 27.4197C175.629 27.4197 175.376 27.4464 175.056 27.4997ZM190.823 53.1397C190.716 53.1397 190.583 53.1397 190.423 53.1397C190.263 53.1664 190.116 53.0597 189.983 52.8197C189.876 52.6864 189.809 52.4864 189.783 52.2197C189.783 51.953 189.849 51.473 189.983 50.7797C190.116 50.3264 190.223 49.873 190.303 49.4197C190.383 48.993 190.423 48.673 190.423 48.4597C190.423 48.353 190.449 48.1397 190.503 47.8197C190.583 47.5264 190.623 47.313 190.623 47.1797C190.756 46.9664 190.863 46.673 190.943 46.2997C191.023 45.9264 191.063 45.593 191.063 45.2997C191.063 44.9797 191.223 44.6864 191.543 44.4197C191.543 44.2064 191.583 43.9397 191.663 43.6197C191.769 43.2997 191.823 43.0864 191.823 42.9797C191.903 42.6064 192.076 41.953 192.343 41.0197C192.636 40.0597 192.983 38.9797 193.383 37.7797C193.809 36.5797 194.223 35.4064 194.623 34.2597C195.023 33.113 195.383 32.1397 195.703 31.3397C196.023 30.593 196.236 29.953 196.343 29.4197C196.476 28.8597 196.543 28.4464 196.543 28.1797C196.543 28.073 196.569 27.993 196.623 27.9397C196.676 27.8597 196.796 27.713 196.983 27.4997C197.249 27.233 197.476 27.153 197.663 27.2597C197.876 27.3664 198.129 27.5264 198.423 27.7397C198.636 28.0864 198.783 28.3797 198.863 28.6197C198.969 28.8597 198.969 29.273 198.863 29.8597C198.863 30.2597 198.796 30.6064 198.663 30.8997C198.529 31.193 198.409 31.4197 198.303 31.5797C198.196 31.713 198.169 31.7664 198.223 31.7397C199.316 31.233 200.276 30.9664 201.103 30.9397C201.956 30.8864 202.663 31.033 203.223 31.3797C203.809 31.6997 204.249 32.153 204.543 32.7397C204.836 33.3264 204.983 34.0064 204.983 34.7797C204.983 35.0997 204.916 35.4864 204.783 35.9397C204.649 36.3664 204.476 36.7664 204.263 37.1397C204.076 37.4864 203.903 37.7397 203.743 37.8997C203.636 37.8997 203.529 37.993 203.423 38.1797C203.316 38.3397 203.209 38.5264 203.103 38.7397C202.889 39.0064 202.543 39.313 202.063 39.6597C201.609 39.9797 201.156 40.2464 200.703 40.4597C200.249 40.6464 199.916 40.6997 199.703 40.6197C199.703 40.6197 199.663 40.633 199.583 40.6597C199.529 40.6597 199.503 40.7264 199.503 40.8597C199.503 40.913 199.289 41.033 198.863 41.2197C198.436 41.3797 197.943 41.5397 197.383 41.6997C196.823 41.833 196.329 41.8997 195.903 41.8997C195.343 41.8997 194.943 41.793 194.703 41.5797C194.649 41.633 194.583 41.713 194.503 41.8197C194.449 41.9264 194.423 42.0197 194.423 42.0997C194.423 42.2597 194.356 42.5664 194.223 43.0197C194.116 43.4464 193.983 43.8597 193.823 44.2597C193.663 44.6597 193.516 44.8597 193.383 44.8597C193.383 44.8597 193.356 44.8997 193.303 44.9797C193.249 45.0597 193.276 45.1664 193.383 45.2997C193.383 45.2997 193.369 45.4464 193.343 45.7397C193.343 46.0597 193.276 46.3264 193.143 46.5397C193.143 46.753 193.103 47.073 193.023 47.4997C192.943 47.9264 192.849 48.2464 192.743 48.4597C192.743 48.7797 192.689 49.0864 192.583 49.3797C192.503 49.6997 192.409 49.8597 192.303 49.8597C192.196 49.8864 192.129 50.0464 192.103 50.3397C192.076 50.6597 192.063 50.8864 192.063 51.0197C192.036 51.6864 191.903 52.2064 191.663 52.5797C191.423 52.953 191.143 53.1397 190.823 53.1397ZM195.663 39.7797C195.876 39.7797 196.316 39.6864 196.983 39.4997C197.649 39.313 198.329 39.0864 199.023 38.8197C199.743 38.5264 200.276 38.233 200.623 37.9397C201.316 37.3264 201.849 36.633 202.223 35.8597C202.623 35.0597 202.596 34.2997 202.143 33.5797C201.929 33.2064 201.543 33.0597 200.983 33.1397C200.423 33.193 199.809 33.4064 199.143 33.7797C198.476 34.153 197.849 34.6197 197.263 35.1797C196.943 35.5264 196.649 35.953 196.383 36.4597C196.116 36.9664 195.889 37.473 195.703 37.9797C195.543 38.4864 195.449 38.913 195.423 39.2597C195.396 39.6064 195.476 39.7797 195.663 39.7797ZM207.78 42.7397C207.673 42.5264 207.54 42.3664 207.38 42.2597C207.22 42.1264 207.14 42.0064 207.14 41.8997C207.14 41.793 207.127 41.6864 207.1 41.5797C207.1 41.4464 207.047 41.3264 206.94 41.2197C206.807 41.0597 206.82 40.6997 206.98 40.1397C207.14 39.553 207.407 38.8464 207.78 38.0197C208.153 37.1664 208.593 36.273 209.1 35.3397C209.313 35.1264 209.527 34.8464 209.74 34.4997C209.953 34.153 210.113 33.9264 210.22 33.8197C210.22 33.713 210.26 33.6197 210.34 33.5397C210.42 33.433 210.513 33.3797 210.62 33.3797V33.1397C210.62 33.0064 210.74 32.7797 210.98 32.4597C211.247 32.1397 211.567 31.793 211.94 31.4197C212.313 31.0197 212.7 30.6464 213.1 30.2997C213.5 29.9264 213.833 29.6597 214.1 29.4997C214.66 29.1264 215.233 28.8997 215.82 28.8197C216.433 28.7397 216.953 28.873 217.38 29.2197C217.46 29.2997 217.593 29.433 217.78 29.6197C217.967 29.8064 218.18 30.0197 218.42 30.2597C218.687 30.473 218.953 30.6997 219.22 30.9397L220.7 32.2597L219.98 34.2597C219.633 35.3264 219.54 36.2597 219.7 37.0597C219.887 37.8597 220.153 38.553 220.5 39.1397C220.633 39.433 220.9 39.713 221.3 39.9797C221.727 40.2464 222.127 40.4064 222.5 40.4597C222.713 40.4864 222.913 40.5664 223.1 40.6997C223.287 40.833 223.38 41.0464 223.38 41.3397C223.38 41.6064 223.327 41.8197 223.22 41.9797C223.113 42.1397 222.927 42.2464 222.66 42.2997C221.78 42.4064 220.953 42.193 220.18 41.6597C219.433 41.1264 218.74 40.2464 218.1 39.0197C217.993 38.8597 217.847 38.5664 217.66 38.1397C217.5 37.6864 217.407 37.393 217.38 37.2597C217.273 37.393 217.073 37.6464 216.78 38.0197C216.487 38.3664 216.26 38.6197 216.1 38.7797C214.207 40.6997 212.567 41.993 211.18 42.6597C209.82 43.2997 208.687 43.3264 207.78 42.7397ZM209.22 40.4997C209.22 40.6864 209.5 40.6864 210.06 40.4997C210.647 40.2864 211.273 39.913 211.94 39.3797C212.847 38.6064 213.753 37.753 214.66 36.8197C215.593 35.8864 216.34 35.0197 216.9 34.2197L217.78 32.7797C217.513 32.1664 217.22 31.753 216.9 31.5397C216.607 31.2997 216.353 31.1797 216.14 31.1797C215.793 31.1797 215.273 31.4997 214.58 32.1397C213.913 32.7797 213.193 33.633 212.42 34.6997C211.647 35.7664 210.913 36.9397 210.22 38.2197C209.953 38.753 209.713 39.273 209.5 39.7797C209.313 40.2597 209.22 40.4997 209.22 40.4997ZM234.521 44.0997C234.334 44.2064 234.081 44.1664 233.761 43.9797C233.468 43.793 233.174 43.513 232.881 43.1397C232.694 42.8197 232.561 42.473 232.481 42.0997C232.428 41.7264 232.401 41.2064 232.401 40.5397C232.428 40.0064 232.401 39.6597 232.321 39.4997C232.268 39.3397 232.121 39.3664 231.881 39.5797C231.641 39.7664 231.228 40.153 230.641 40.7397C229.974 41.4064 229.334 41.9264 228.721 42.2997C228.134 42.673 227.654 42.8464 227.281 42.8197C227.094 42.8197 226.881 42.7264 226.641 42.5397C226.428 42.3264 226.228 42.073 226.041 41.7797C225.854 41.4597 225.694 41.1397 225.561 40.8197C225.401 40.233 225.374 39.4864 225.481 38.5797C225.614 37.6464 225.828 36.673 226.121 35.6597C226.414 34.6464 226.748 33.6864 227.121 32.7797C227.521 31.873 227.921 31.1397 228.321 30.5797C228.748 30.0197 229.121 29.7397 229.441 29.7397C229.654 29.7397 229.841 29.8464 230.001 30.0597C230.188 30.273 230.374 30.6064 230.561 31.0597C230.668 31.2464 230.708 31.4064 230.681 31.5397C230.681 31.673 230.574 31.833 230.361 32.0197C230.121 32.3397 229.841 32.8197 229.521 33.4597C229.228 34.0997 228.934 34.793 228.641 35.5397C228.374 36.2864 228.134 37.0064 227.921 37.6997C227.708 38.393 227.561 38.9664 227.481 39.4197C227.401 39.8464 227.414 40.0597 227.521 40.0597C227.894 40.0597 228.334 39.913 228.841 39.6197C229.374 39.2997 229.881 38.913 230.361 38.4597C230.921 37.8997 231.414 37.2864 231.841 36.6197C232.294 35.953 232.748 35.2464 233.201 34.4997C233.548 33.9664 233.908 33.3797 234.281 32.7397C234.681 32.0997 234.934 31.6464 235.041 31.3797C235.414 30.6864 235.694 30.2197 235.881 29.9797C236.068 29.713 236.294 29.5397 236.561 29.4597C236.694 29.4597 236.814 29.4597 236.921 29.4597C237.054 29.4597 237.121 29.4597 237.121 29.4597C237.281 29.4864 237.468 29.6064 237.681 29.8197C237.894 29.9264 238.014 30.033 238.041 30.1397C238.068 30.2197 238.081 30.3264 238.081 30.4597C237.974 30.7264 237.801 31.1264 237.561 31.6597C237.348 32.1664 237.188 32.5397 237.081 32.7797C236.574 33.9264 236.068 35.0597 235.561 36.1797C235.081 37.273 234.734 38.393 234.521 39.5397C234.468 39.913 234.454 40.353 234.481 40.8597C234.534 41.3397 234.614 41.6864 234.721 41.8997C234.801 42.0597 234.894 42.2464 235.001 42.4597C235.134 42.6464 235.281 42.8064 235.441 42.9397C235.681 43.0997 235.721 43.273 235.561 43.4597C235.428 43.6464 235.241 43.8064 235.001 43.9397C234.761 44.0464 234.601 44.0997 234.521 44.0997ZM234.001 27.4997C233.174 27.6064 232.481 27.3664 231.921 26.7797C231.361 26.193 230.934 25.3264 230.641 24.1797C230.588 23.9664 230.561 23.7797 230.561 23.6197C230.588 23.433 230.641 23.273 230.721 23.1397C230.774 23.033 230.881 22.953 231.041 22.8997C231.201 22.8197 231.334 22.8064 231.441 22.8597C231.814 22.993 232.081 23.1664 232.241 23.3797C232.428 23.5664 232.548 23.8064 232.601 24.0997C232.654 24.233 232.681 24.3664 232.681 24.4997C232.708 24.633 232.721 24.6864 232.721 24.6597C232.854 25.0864 233.028 25.3797 233.241 25.5397C233.454 25.6997 233.774 25.6864 234.201 25.4997C234.654 25.313 235.094 25.0997 235.521 24.8597C235.974 24.6197 236.374 24.3264 236.721 23.9797C237.014 23.6864 237.294 23.4197 237.561 23.1797C237.854 22.9397 238.134 22.6864 238.401 22.4197L238.441 22.3797C238.548 22.2997 238.681 22.273 238.841 22.2997C239.001 22.3264 239.094 22.3664 239.121 22.4197C239.308 22.6064 239.401 22.793 239.401 22.9797C239.401 23.1664 239.401 23.3664 239.401 23.5797L239.361 23.6597C239.414 23.8197 239.281 24.1264 238.961 24.5797C238.668 25.033 238.308 25.4197 237.881 25.7397C237.508 26.033 237.108 26.2997 236.681 26.5397C236.254 26.7797 235.814 27.0064 235.361 27.2197C235.174 27.3264 234.974 27.393 234.761 27.4197C234.574 27.4197 234.321 27.4464 234.001 27.4997Z" fill="#FFEFD4"/>
</svg>
