<svg width="55" height="50" viewBox="0 0 55 50" fill="none" xmlns="http://www.w3.org/2000/svg">
<path d="M53.548 0.935723C52.3973 -0.0183572 50.8159 -0.263871 49.4301 0.296366L2.50441 19.2392C0.440208 20.0888 -0.544338 22.4507 0.305291 24.5146C0.744731 25.582 1.61946 26.4104 2.70903 26.7913L12.8323 30.3104L18.3185 48.4476C18.3296 48.4846 18.3634 48.5071 18.3777 48.5426C18.4344 48.6872 18.5174 48.8204 18.6221 48.9352C18.6611 48.9813 18.7036 49.0247 18.749 49.0646C18.8857 49.1781 19.0444 49.262 19.2152 49.3109C19.2412 49.3186 19.2586 49.3418 19.2852 49.3479L19.3005 49.3472L19.3082 49.3504C19.3956 49.3699 19.4848 49.3793 19.5742 49.3785C19.691 49.3744 19.8069 49.3542 19.9182 49.3186C19.9398 49.3127 19.9615 49.3143 19.9826 49.3073C20.1727 49.2403 20.3444 49.1302 20.4842 48.9853C20.5005 48.969 20.5253 48.9662 20.541 48.9489L28.434 40.2409L39.9486 49.156C40.6483 49.703 41.5109 50.0002 42.3989 50C44.3197 49.9997 45.9777 48.6543 46.3735 46.7751L54.9189 4.82813C55.2149 3.37711 54.6879 1.88101 53.548 0.935723ZM21.1831 33.7501L19.3309 42.7503L15.4682 29.9763L34.6263 20.0012L21.5386 33.0877C21.3577 33.2688 21.2341 33.4991 21.1831 33.7501ZM43.8083 46.2483C43.7079 46.7303 43.3639 47.1256 42.9004 47.2917C42.4473 47.4659 41.9358 47.3882 41.555 47.0871L29.0787 37.4277C28.5385 37.0095 27.7675 37.0775 27.3088 37.5837L21.8201 43.6389L23.6692 34.6631L42.4962 15.8353C43.0079 15.3246 43.0087 14.496 42.498 13.9845C42.094 13.5797 41.474 13.4841 40.9667 13.7484L13.8245 27.8813L3.56585 24.3157C3.00668 24.1318 2.62638 23.6128 2.61951 23.0242C2.59249 22.4316 2.94337 21.8867 3.49423 21.6662L50.4122 2.72592C50.9024 2.51797 51.4679 2.60509 51.8727 2.95098C52.2755 3.27609 52.4606 3.80052 52.351 4.30641L43.8083 46.2483Z" fill="#CBD2B4"/>
</svg>
