<svg width="50" height="50" viewBox="0 0 50 50" fill="none" xmlns="http://www.w3.org/2000/svg">
<path fill-rule="evenodd" clip-rule="evenodd" d="M42.7152 7.2661C38.015 2.583 31.7641 0.0026322 25.1044 0C11.3823 0 0.214235 11.1138 0.208743 24.7746C0.206913 29.1413 1.35334 33.4038 3.53183 37.161L0 50L13.1976 46.5547C16.8337 48.5285 20.9278 49.5687 25.0944 49.5704H25.1047C38.8253 49.5704 49.9944 38.4552 50 24.7944C50.0026 18.1742 47.4156 11.9492 42.7152 7.2661ZM25.1047 45.3858H25.0962C21.3833 45.3844 17.7415 44.3917 14.5646 42.5154L13.8089 42.0691L5.97743 44.1137L8.06784 36.5145L7.57578 35.7355C5.50448 32.4567 4.41046 28.6671 4.41209 24.7761C4.41663 13.4219 13.6992 4.18453 25.1129 4.18453C30.6397 4.18662 35.8351 6.33146 39.7418 10.2239C43.6485 14.1163 45.7988 19.2903 45.7967 24.7927C45.792 36.1478 36.5096 45.3858 25.1047 45.3858ZM36.4547 29.9629C35.8326 29.653 32.7744 28.1553 32.2041 27.9487C31.634 27.7421 31.2193 27.6388 30.8045 28.2586C30.3899 28.8783 29.1978 30.2728 28.8348 30.6859C28.472 31.0991 28.1092 31.1508 27.4871 30.8409C26.8651 30.531 24.8607 29.8773 22.4847 27.7682C20.6356 26.1268 19.387 24.0993 19.0242 23.4796C18.6614 22.8598 18.9856 22.5247 19.297 22.2161C19.5768 21.9387 19.919 21.4931 20.2301 21.1315C20.5411 20.77 20.6447 20.5118 20.852 20.0987C21.0594 19.6855 20.9558 19.324 20.8002 19.0141C20.6447 18.7042 19.4007 15.6571 18.8823 14.4176C18.3774 13.2104 17.8646 13.3738 17.4827 13.3549C17.1203 13.3369 16.7052 13.3331 16.2905 13.3331C15.8758 13.3331 15.2019 13.488 14.6317 14.1077C14.0615 14.7275 12.4546 16.2252 12.4546 19.2723C12.4546 22.3194 14.6836 25.2632 14.9946 25.6763C15.3056 26.0895 19.3809 32.3426 25.621 35.0242C27.1051 35.662 28.2638 36.0428 29.1672 36.3283C30.6574 36.7994 32.0135 36.7329 33.0853 36.5735C34.2804 36.3958 36.7656 35.0759 37.2841 33.6298C37.8024 32.1837 37.8024 30.9442 37.6469 30.686C37.4915 30.4277 37.0768 30.2728 36.4547 29.9629Z" fill="#CBD2B4"/>
</svg>
